<ttFont>
    <TTGlyph name=".notdef" xMin="193" yMin="0" xMax="1034" yMax="1462">
      <contour>
        <pt x="193" y="1462" on="1"/>
        <pt x="1034" y="1462" on="1"/>
        <pt x="1034" y="0" on="1"/>
        <pt x="193" y="0" on="1"/>
      </contour>
      <contour>
        <pt x="297" y="104" on="1"/>
        <pt x="930" y="104" on="1"/>
        <pt x="930" y="1358" on="1"/>
        <pt x="297" y="1358" on="1"/>
      </contour>
    </TTGlyph>
    <TTGlyph name="A" xMin="33" yMin="0" xMax="1196" yMax="1468">
      <contour>
        <pt x="1004" y="0" on="1"/>
        <pt x="860" y="453" on="1"/>
        <pt x="369" y="453" on="1"/>
        <pt x="223" y="0" on="1"/>
        <pt x="33" y="0" on="1"/>
        <pt x="516" y="1468" on="1"/>
        <pt x="711" y="1468" on="1"/>
        <pt x="1196" y="0" on="1"/>
      </contour>
      <contour>
        <pt x="807" y="618" on="1"/>
        <pt x="674" y="1042" on="1"/>
        <pt x="635" y="1166" on="0"/>
        <pt x="612" y="1268" on="1"/>
        <pt x="592" y="1169" on="0"/>
        <pt x="566" y="1085" on="1"/>
        <pt x="422" y="618" on="1"/>
      </contour>
    </TTGlyph>
    <TTGlyph name="AE" xMin="0" yMin="0" xMax="1210" yMax="1462">
      <contour>
        <pt x="1210" y="0" on="1"/>
        <pt x="557" y="0" on="1"/>
        <pt x="557" y="453" on="1"/>
        <pt x="268" y="453" on="1"/>
        <pt x="172" y="0" on="1"/>
        <pt x="0" y="0" on="1"/>
        <pt x="338" y="1462" on="1"/>
        <pt x="1210" y="1462" on="1"/>
        <pt x="1210" y="1298" on="1"/>
        <pt x="733" y="1298" on="1"/>
        <pt x="733" y="846" on="1"/>
        <pt x="1171" y="846" on="1"/>
        <pt x="1171" y="684" on="1"/>
        <pt x="733" y="684" on="1"/>
        <pt x="733" y="164" on="1"/>
        <pt x="1210" y="164" on="1"/>
      </contour>
      <contour>
        <pt x="305" y="618" on="1"/>
        <pt x="557" y="618" on="1"/>
        <pt x="557" y="1298" on="1"/>
        <pt x="451" y="1298" on="1"/>
      </contour>
    </TTGlyph>
    <TTGlyph name="AEacute" xMin="0" yMin="0" xMax="1210" yMax="1907">
      <component glyphName="AE" x="0" y="0" flags="0x204"/>
      <component glyphName="acute" x="213" y="338" flags="0x4"/>
    </TTGlyph>
    <TTGlyph name="Aacute" xMin="33" yMin="0" xMax="1196" yMax="1907">
      <component glyphName="A" x="0" y="0" flags="0x204"/>
      <component glyphName="acute" x="102" y="338" flags="0x4"/>
    </TTGlyph>
    <TTGlyph name="Abreve" xMin="33" yMin="0" xMax="1196" yMax="1856">
      <component glyphName="A" x="0" y="0" flags="0x204"/>
      <component glyphName="breve" x="-3" y="338" flags="0x4"/>
    </TTGlyph>
    <TTGlyph name="Acircumflex" xMin="33" yMin="0" xMax="1196" yMax="1907">
      <component glyphName="A" x="0" y="0" flags="0x204"/>
      <component glyphName="circumflex" x="0" y="338" flags="0x4"/>
    </TTGlyph>
    <TTGlyph name="Adieresis" xMin="33" yMin="0" xMax="1196" yMax="1835">
      <component glyphName="A" x="0" y="0" flags="0x204"/>
      <component glyphName="dieresis" x="0" y="338" flags="0x4"/>
    </TTGlyph>
    <TTGlyph name="Agrave" xMin="33" yMin="0" xMax="1196" yMax="1907">
      <component glyphName="A" x="0" y="0" flags="0x204"/>
      <component glyphName="grave" x="-77" y="338" flags="0x4"/>
    </TTGlyph>
    <TTGlyph name="Alpha" xMin="33" yMin="0" xMax="1196" yMax="1468">
      <component glyphName="A" x="0" y="0" flags="0x204"/>
    </TTGlyph>
    <TTGlyph name="Alphatonos" xMin="33" yMin="0" xMax="1196" yMax="1468">
      <component glyphName="A" x="0" y="0" flags="0x204"/>
      <component glyphName="tonos" x="-443" y="-105" flags="0x4"/>
    </TTGlyph>
    <TTGlyph name="Amacron" xMin="33" yMin="0" xMax="1196" yMax="1729">
      <component glyphName="A" x="0" y="0" flags="0x204"/>
      <component glyphName="macron" x="0" y="338" flags="0x4"/>
    </TTGlyph>
    <TTGlyph name="Aogonek" xMin="33" yMin="-455" xMax="1214" yMax="1468">
      <component glyphName="A" x="0" y="0" flags="0x204"/>
      <component glyphName="ogonek" x="399" y="0" flags="0x4"/>
    </TTGlyph>
    <TTGlyph name="Aring" xMin="33" yMin="0" xMax="1196" yMax="1796">
      <component glyphName="A" x="0" y="0" flags="0x204"/>
      <component glyphName="ring" x="0" y="125" flags="0x4"/>
    </TTGlyph>
    <TTGlyph name="Aringacute" xMin="33" yMin="0" xMax="1196" yMax="2163">
      <component glyphName="A" x="0" y="0" flags="0x204"/>
      <component glyphName="ring" x="2" y="125" flags="0x4"/>
      <component glyphName="acute" x="72" y="594" flags="0x4"/>
    </TTGlyph>
    <TTGlyph name="Atilde" xMin="33" yMin="0" xMax="1196" yMax="1845">
      <component glyphName="A" x="0" y="0" flags="0x204"/>
      <component glyphName="tilde" x="-1" y="338" flags="0x4"/>
    </TTGlyph>
    <TTGlyph name="B" xMin="135" yMin="0" xMax="1137" yMax="1462">
      <contour>
        <pt x="135" y="1462" on="1"/>
        <pt x="575" y="1462" on="1"/>
        <pt x="849" y="1462" on="0"/>
        <pt x="1096" y="1287" on="0"/>
        <pt x="1096" y="1092" on="1"/>
        <pt x="1096" y="964" on="0"/>
        <pt x="939" y="794" on="0"/>
        <pt x="805" y="776" on="1"/>
        <pt x="805" y="766" on="1"/>
        <pt x="1137" y="712" on="0"/>
        <pt x="1137" y="424" on="1"/>
        <pt x="1137" y="226" on="0"/>
        <pt x="882" y="0" on="0"/>
        <pt x="662" y="0" on="1"/>
        <pt x="135" y="0" on="1"/>
      </contour>
      <contour>
        <pt x="322" y="842" on="1"/>
        <pt x="606" y="842" on="1"/>
        <pt x="762" y="842" on="0"/>
        <pt x="905" y="952" on="0"/>
        <pt x="905" y="1079" on="1"/>
        <pt x="905" y="1199" on="0"/>
        <pt x="752" y="1303" on="0"/>
        <pt x="586" y="1303" on="1"/>
        <pt x="322" y="1303" on="1"/>
      </contour>
      <contour>
        <pt x="322" y="686" on="1"/>
        <pt x="322" y="158" on="1"/>
        <pt x="629" y="158" on="1"/>
        <pt x="940" y="158" on="0"/>
        <pt x="940" y="432" on="1"/>
        <pt x="940" y="686" on="0"/>
        <pt x="616" y="686" on="1"/>
      </contour>
    </TTGlyph>
    <TTGlyph name="Beta" xMin="135" yMin="0" xMax="1137" yMax="1462">
      <component glyphName="B" x="0" y="0" flags="0x204"/>
    </TTGlyph>
    <TTGlyph name="C" xMin="129" yMin="-20" xMax="1180" yMax="1483">
      <contour>
        <pt x="1124" y="201" on="1"/>
        <pt x="1124" y="39" on="1"/>
        <pt x="978" y="-20" on="0"/>
        <pt x="766" y="-20" on="1"/>
        <pt x="457" y="-20" on="0"/>
        <pt x="129" y="372" on="0"/>
        <pt x="129" y="733" on="1"/>
        <pt x="129" y="1079" on="0"/>
        <pt x="487" y="1483" on="0"/>
        <pt x="797" y="1483" on="1"/>
        <pt x="1017" y="1483" on="0"/>
        <pt x="1180" y="1397" on="1"/>
        <pt x="1102" y="1241" on="1"/>
        <pt x="948" y="1319" on="0"/>
        <pt x="797" y="1319" on="1"/>
        <pt x="582" y="1319" on="0"/>
        <pt x="326" y="1002" on="0"/>
        <pt x="326" y="731" on="1"/>
        <pt x="326" y="444" on="0"/>
        <pt x="566" y="143" on="0"/>
        <pt x="797" y="143" on="1"/>
        <pt x="927" y="143" on="0"/>
      </contour>
    </TTGlyph>
    <TTGlyph name="Cacute" xMin="129" yMin="-20" xMax="1180" yMax="1907">
      <component glyphName="C" x="0" y="0" flags="0x204"/>
      <component glyphName="acute" x="242" y="338" flags="0x4"/>
    </TTGlyph>
    <TTGlyph name="Ccaron" xMin="129" yMin="-20" xMax="1180" yMax="1907">
      <component glyphName="C" x="0" y="0" flags="0x204"/>
      <component glyphName="caron" x="154" y="338" flags="0x4"/>
    </TTGlyph>
    <TTGlyph name="Ccedilla" xMin="129" yMin="-492" xMax="1180" yMax="1483">
      <component glyphName="C" x="0" y="0" flags="0x204"/>
      <component glyphName="cedilla" x="80" y="0" flags="0x4"/>
    </TTGlyph>
    <TTGlyph name="Ccircumflex" xMin="129" yMin="-20" xMax="1180" yMax="1907">
      <component glyphName="C" x="0" y="0" flags="0x204"/>
      <component glyphName="circumflex" x="160" y="338" flags="0x4"/>
    </TTGlyph>
    <TTGlyph name="Cdot" xMin="129" yMin="-20" xMax="1180" yMax="1847">
      <component glyphName="C" x="0" y="0" flags="0x204"/>
      <component glyphName="dotaccent" x="164" y="338" flags="0x4"/>
    </TTGlyph>
    <TTGlyph name="Chi" xMin="53" yMin="0" xMax="1174" yMax="1462">
      <component glyphName="X" x="0" y="0" flags="0x204"/>
    </TTGlyph>
    <TTGlyph name="D" xMin="135" yMin="0" xMax="1147" yMax="1462">
      <contour>
        <pt x="135" y="0" on="1"/>
        <pt x="135" y="1462" on="1"/>
        <pt x="477" y="1462" on="1"/>
        <pt x="794" y="1462" on="0"/>
        <pt x="1147" y="1084" on="0"/>
        <pt x="1147" y="745" on="1"/>
        <pt x="1147" y="384" on="0"/>
        <pt x="781" y="0" on="0"/>
        <pt x="436" y="0" on="1"/>
      </contour>
      <contour>
        <pt x="322" y="1303" on="1"/>
        <pt x="322" y="160" on="1"/>
        <pt x="418" y="160" on="1"/>
        <pt x="950" y="160" on="0"/>
        <pt x="950" y="739" on="1"/>
        <pt x="950" y="1303" on="0"/>
        <pt x="457" y="1303" on="1"/>
      </contour>
    </TTGlyph>
    <TTGlyph name="Dcaron" xMin="135" yMin="0" xMax="1147" yMax="1907">
      <component glyphName="D" x="0" y="0" flags="0x204"/>
      <component glyphName="caron" x="-9" y="338" flags="0x4"/>
    </TTGlyph>
    <TTGlyph name="Dcroat" xMin="0" yMin="0" xMax="1147" yMax="1462">
      <component glyphName="Eth" x="0" y="0" flags="0x204"/>
    </TTGlyph>
    <TTGlyph name="Delta" xMin="74" yMin="0" xMax="1155" yMax="1462">
      <contour>
        <pt x="74" y="113" on="1"/>
        <pt x="520" y="1462" on="1"/>
        <pt x="707" y="1462" on="1"/>
        <pt x="1155" y="111" on="1"/>
        <pt x="1155" y="0" on="1"/>
        <pt x="74" y="0" on="1"/>
      </contour>
      <contour>
        <pt x="705" y="922" on="1"/>
        <pt x="646" y="1104" on="0"/>
        <pt x="612" y="1262" on="1"/>
        <pt x="567" y="1062" on="0"/>
        <pt x="524" y="928" on="1"/>
        <pt x="274" y="164" on="1"/>
        <pt x="952" y="164" on="1"/>
      </contour>
    </TTGlyph>
    <TTGlyph name="E" xMin="217" yMin="0" xMax="1059" yMax="1462">
      <contour>
        <pt x="1059" y="0" on="1"/>
        <pt x="217" y="0" on="1"/>
        <pt x="217" y="1462" on="1"/>
        <pt x="1059" y="1462" on="1"/>
        <pt x="1059" y="1298" on="1"/>
        <pt x="403" y="1298" on="1"/>
        <pt x="403" y="846" on="1"/>
        <pt x="1020" y="846" on="1"/>
        <pt x="1020" y="684" on="1"/>
        <pt x="403" y="684" on="1"/>
        <pt x="403" y="164" on="1"/>
        <pt x="1059" y="164" on="1"/>
      </contour>
    </TTGlyph>
    <TTGlyph name="Eacute" xMin="217" yMin="0" xMax="1059" yMax="1907">
      <component glyphName="E" x="0" y="0" flags="0x204"/>
      <component glyphName="acute" x="63" y="338" flags="0x4"/>
    </TTGlyph>
    <TTGlyph name="Ebreve" xMin="217" yMin="0" xMax="1059" yMax="1856">
      <component glyphName="E" x="0" y="0" flags="0x204"/>
      <component glyphName="breve" x="29" y="338" flags="0x4"/>
    </TTGlyph>
    <TTGlyph name="Ecaron" xMin="217" yMin="0" xMax="1059" yMax="1907">
      <component glyphName="E" x="0" y="0" flags="0x204"/>
      <component glyphName="caron" x="35" y="338" flags="0x4"/>
    </TTGlyph>
    <TTGlyph name="Ecircumflex" xMin="217" yMin="0" xMax="1059" yMax="1907">
      <component glyphName="E" x="0" y="0" flags="0x204"/>
      <component glyphName="circumflex" x="35" y="338" flags="0x4"/>
    </TTGlyph>
    <TTGlyph name="Edieresis" xMin="217" yMin="0" xMax="1059" yMax="1835">
      <component glyphName="E" x="0" y="0" flags="0x204"/>
      <component glyphName="dieresis" x="25" y="338" flags="0x4"/>
    </TTGlyph>
    <TTGlyph name="Edotaccent" xMin="217" yMin="0" xMax="1059" yMax="1818">
      <component glyphName="E" x="0" y="0" flags="0x204"/>
      <component glyphName="dotaccent" x="35" y="309" flags="0x4"/>
    </TTGlyph>
    <TTGlyph name="Egrave" xMin="217" yMin="0" xMax="1059" yMax="1907">
      <component glyphName="E" x="0" y="0" flags="0x204"/>
      <component glyphName="grave" x="-73" y="338" flags="0x4"/>
    </TTGlyph>
    <TTGlyph name="Emacron" xMin="217" yMin="0" xMax="1059" yMax="1729">
      <component glyphName="E" x="0" y="0" flags="0x204"/>
      <component glyphName="macron" x="10" y="338" flags="0x4"/>
    </TTGlyph>
    <TTGlyph name="Eng" xMin="135" yMin="-389" xMax="1092" yMax="1462">
      <contour>
        <pt x="297" y="1210" on="1"/>
        <pt x="289" y="1210" on="1"/>
        <pt x="307" y="933" on="0"/>
        <pt x="307" y="793" on="1"/>
        <pt x="307" y="0" on="1"/>
        <pt x="135" y="0" on="1"/>
        <pt x="135" y="1462" on="1"/>
        <pt x="348" y="1462" on="1"/>
        <pt x="926" y="334" on="1"/>
        <pt x="936" y="334" on="1"/>
        <pt x="918" y="608" on="0"/>
        <pt x="918" y="737" on="1"/>
        <pt x="918" y="1462" on="1"/>
        <pt x="1092" y="1462" on="1"/>
        <pt x="1092" y="20" on="1"/>
        <pt x="1092" y="-178" on="0"/>
        <pt x="892" y="-389" on="0"/>
        <pt x="705" y="-389" on="1"/>
        <pt x="611" y="-389" on="0"/>
        <pt x="549" y="-365" on="1"/>
        <pt x="549" y="-205" on="1"/>
        <pt x="626" y="-225" on="0"/>
        <pt x="707" y="-225" on="1"/>
        <pt x="918" y="-225" on="0"/>
        <pt x="918" y="0" on="1"/>
      </contour>
    </TTGlyph>
    <TTGlyph name="Eogonek" xMin="217" yMin="-455" xMax="1059" yMax="1462">
      <component glyphName="E" x="0" y="0" flags="0x204"/>
      <component glyphName="ogonek" x="205" y="0" flags="0x4"/>
    </TTGlyph>
    <TTGlyph name="Epsilon" xMin="217" yMin="0" xMax="1059" yMax="1462">
      <component glyphName="E" x="0" y="0" flags="0x204"/>
    </TTGlyph>
    <TTGlyph name="Epsilontonos" xMin="-114" yMin="0" xMax="1059" yMax="1464">
      <component glyphName="E" x="0" y="0" flags="0x204"/>
      <component glyphName="tonos" x="-593" y="-105" flags="0x4"/>
    </TTGlyph>
    <TTGlyph name="Eta" xMin="135" yMin="0" xMax="1094" yMax="1462">
      <component glyphName="H" x="0" y="0" flags="0x204"/>
    </TTGlyph>
    <TTGlyph name="Etatonos" xMin="-155" yMin="0" xMax="1094" yMax="1464">
      <component glyphName="H" x="0" y="0" flags="0x204"/>
      <component glyphName="tonos" x="-634" y="-105" flags="0x4"/>
    </TTGlyph>
    <TTGlyph name="Eth" xMin="0" yMin="0" xMax="1147" yMax="1462">
      <contour>
        <pt x="135" y="0" on="1"/>
        <pt x="135" y="659" on="1"/>
        <pt x="0" y="659" on="1"/>
        <pt x="0" y="821" on="1"/>
        <pt x="135" y="821" on="1"/>
        <pt x="135" y="1462" on="1"/>
        <pt x="477" y="1462" on="1"/>
        <pt x="794" y="1462" on="0"/>
        <pt x="1147" y="1084" on="0"/>
        <pt x="1147" y="745" on="1"/>
        <pt x="1147" y="384" on="0"/>
        <pt x="781" y="0" on="0"/>
        <pt x="436" y="0" on="1"/>
      </contour>
      <contour>
        <pt x="322" y="1303" on="1"/>
        <pt x="322" y="821" on="1"/>
        <pt x="702" y="821" on="1"/>
        <pt x="702" y="659" on="1"/>
        <pt x="322" y="659" on="1"/>
        <pt x="322" y="160" on="1"/>
        <pt x="418" y="160" on="1"/>
        <pt x="950" y="160" on="0"/>
        <pt x="950" y="739" on="1"/>
        <pt x="950" y="1303" on="0"/>
        <pt x="457" y="1303" on="1"/>
      </contour>
    </TTGlyph>
    <TTGlyph name="Euro" xMin="96" yMin="-20" xMax="1130" yMax="1483">
      <contour>
        <pt x="442" y="934" on="1"/>
        <pt x="874" y="934" on="1"/>
        <pt x="874" y="797" on="1"/>
        <pt x="428" y="797" on="1"/>
        <pt x="428" y="782" on="0"/>
        <pt x="427" y="768" on="1"/>
        <pt x="426" y="743" on="1"/>
        <pt x="426" y="681" on="1"/>
        <pt x="426" y="661" on="0"/>
        <pt x="428" y="639" on="1"/>
        <pt x="813" y="639" on="1"/>
        <pt x="813" y="502" on="1"/>
        <pt x="446" y="502" on="1"/>
        <pt x="519" y="143" on="0"/>
        <pt x="815" y="143" on="1"/>
        <pt x="951" y="143" on="0"/>
        <pt x="1083" y="201" on="1"/>
        <pt x="1083" y="39" on="1"/>
        <pt x="961" y="-20" on="0"/>
        <pt x="801" y="-20" on="1"/>
        <pt x="354" y="-20" on="0"/>
        <pt x="260" y="502" on="1"/>
        <pt x="96" y="502" on="1"/>
        <pt x="96" y="639" on="1"/>
        <pt x="244" y="639" on="1"/>
        <pt x="242" y="677" on="1"/>
        <pt x="244" y="797" on="1"/>
        <pt x="96" y="797" on="1"/>
        <pt x="96" y="934" on="1"/>
        <pt x="256" y="934" on="1"/>
        <pt x="295" y="1196" on="0"/>
        <pt x="576" y="1483" on="0"/>
        <pt x="795" y="1483" on="1"/>
        <pt x="986" y="1483" on="0"/>
        <pt x="1130" y="1391" on="1"/>
        <pt x="1051" y="1245" on="1"/>
        <pt x="929" y="1319" on="0"/>
        <pt x="809" y="1319" on="1"/>
        <pt x="673" y="1319" on="0"/>
        <pt x="479" y="1120" on="0"/>
      </contour>
    </TTGlyph>
    <TTGlyph name="F" xMin="244" yMin="0" xMax="1085" yMax="1462">
      <contour>
        <pt x="430" y="0" on="1"/>
        <pt x="244" y="0" on="1"/>
        <pt x="244" y="1462" on="1"/>
        <pt x="1085" y="1462" on="1"/>
        <pt x="1085" y="1298" on="1"/>
        <pt x="430" y="1298" on="1"/>
        <pt x="430" y="782" on="1"/>
        <pt x="1047" y="782" on="1"/>
        <pt x="1047" y="618" on="1"/>
        <pt x="430" y="618" on="1"/>
      </contour>
    </TTGlyph>
    <TTGlyph name="G" xMin="117" yMin="-20" xMax="1094" yMax="1483">
      <contour>
        <pt x="672" y="772" on="1"/>
        <pt x="1094" y="772" on="1"/>
        <pt x="1094" y="55" on="1"/>
        <pt x="899" y="-20" on="0"/>
        <pt x="674" y="-20" on="1"/>
        <pt x="412" y="-20" on="0"/>
        <pt x="117" y="379" on="0"/>
        <pt x="117" y="733" on="1"/>
        <pt x="117" y="1084" on="0"/>
        <pt x="441" y="1483" on="0"/>
        <pt x="725" y="1483" on="1"/>
        <pt x="917" y="1483" on="0"/>
        <pt x="1071" y="1397" on="1"/>
        <pt x="999" y="1235" on="1"/>
        <pt x="853" y="1319" on="0"/>
        <pt x="719" y="1319" on="1"/>
        <pt x="527" y="1319" on="0"/>
        <pt x="313" y="1008" on="0"/>
        <pt x="313" y="731" on="1"/>
        <pt x="313" y="143" on="0"/>
        <pt x="707" y="143" on="1"/>
        <pt x="804" y="143" on="0"/>
        <pt x="909" y="172" on="1"/>
        <pt x="909" y="608" on="1"/>
        <pt x="672" y="608" on="1"/>
      </contour>
    </TTGlyph>
    <TTGlyph name="Gamma" xMin="246" yMin="0" xMax="1071" yMax="1462">
      <contour>
        <pt x="1071" y="1462" on="1"/>
        <pt x="1071" y="1296" on="1"/>
        <pt x="432" y="1296" on="1"/>
        <pt x="432" y="0" on="1"/>
        <pt x="246" y="0" on="1"/>
        <pt x="246" y="1462" on="1"/>
      </contour>
    </TTGlyph>
    <TTGlyph name="Gbreve" xMin="117" yMin="-20" xMax="1094" yMax="1856">
      <component glyphName="G" x="0" y="0" flags="0x204"/>
      <component glyphName="breve" x="98" y="338" flags="0x4"/>
    </TTGlyph>
    <TTGlyph name="Gcircumflex" xMin="117" yMin="-20" xMax="1094" yMax="1907">
      <component glyphName="G" x="0" y="0" flags="0x204"/>
      <component glyphName="circumflex" x="80" y="338" flags="0x4"/>
    </TTGlyph>
    <TTGlyph name="Gcommaaccent" xMin="117" yMin="-453" xMax="1094" yMax="1483">
      <component glyphName="G" x="0" y="0" flags="0x204"/>
      <component glyphName="commaaccent" x="57" y="0" flags="0x4"/>
    </TTGlyph>
    <TTGlyph name="Gdot" xMin="117" yMin="-20" xMax="1094" yMax="1847">
      <component glyphName="G" x="0" y="0" flags="0x204"/>
      <component glyphName="dotaccent" x="109" y="338" flags="0x4"/>
    </TTGlyph>
    <TTGlyph name="H" xMin="135" yMin="0" xMax="1094" yMax="1462">
      <contour>
        <pt x="1094" y="0" on="1"/>
        <pt x="907" y="0" on="1"/>
        <pt x="907" y="682" on="1"/>
        <pt x="322" y="682" on="1"/>
        <pt x="322" y="0" on="1"/>
        <pt x="135" y="0" on="1"/>
        <pt x="135" y="1462" on="1"/>
        <pt x="322" y="1462" on="1"/>
        <pt x="322" y="846" on="1"/>
        <pt x="907" y="846" on="1"/>
        <pt x="907" y="1462" on="1"/>
        <pt x="1094" y="1462" on="1"/>
      </contour>
    </TTGlyph>
    <TTGlyph name="Hbar" xMin="0" yMin="0" xMax="1229" yMax="1462">
      <contour>
        <pt x="135" y="1219" on="1"/>
        <pt x="135" y="1462" on="1"/>
        <pt x="322" y="1462" on="1"/>
        <pt x="322" y="1219" on="1"/>
        <pt x="907" y="1219" on="1"/>
        <pt x="907" y="1462" on="1"/>
        <pt x="1094" y="1462" on="1"/>
        <pt x="1094" y="1219" on="1"/>
        <pt x="1229" y="1219" on="1"/>
        <pt x="1229" y="1069" on="1"/>
        <pt x="1094" y="1069" on="1"/>
        <pt x="1094" y="0" on="1"/>
        <pt x="907" y="0" on="1"/>
        <pt x="907" y="682" on="1"/>
        <pt x="322" y="682" on="1"/>
        <pt x="322" y="0" on="1"/>
        <pt x="135" y="0" on="1"/>
        <pt x="135" y="1069" on="1"/>
        <pt x="0" y="1069" on="1"/>
        <pt x="0" y="1219" on="1"/>
      </contour>
      <contour>
        <pt x="907" y="846" on="1"/>
        <pt x="907" y="1069" on="1"/>
        <pt x="322" y="1069" on="1"/>
        <pt x="322" y="846" on="1"/>
      </contour>
    </TTGlyph>
    <TTGlyph name="Hcircumflex" xMin="135" yMin="0" xMax="1094" yMax="1907">
      <component glyphName="H" x="0" y="0" flags="0x204"/>
      <component glyphName="circumflex" x="0" y="338" flags="0x4"/>
    </TTGlyph>
    <TTGlyph name="I" xMin="225" yMin="0" xMax="1001" yMax="1462">
      <contour>
        <pt x="1001" y="0" on="1"/>
        <pt x="225" y="0" on="1"/>
        <pt x="225" y="123" on="1"/>
        <pt x="520" y="143" on="1"/>
        <pt x="520" y="1319" on="1"/>
        <pt x="225" y="1339" on="1"/>
        <pt x="225" y="1462" on="1"/>
        <pt x="1001" y="1462" on="1"/>
        <pt x="1001" y="1339" on="1"/>
        <pt x="707" y="1319" on="1"/>
        <pt x="707" y="143" on="1"/>
        <pt x="1001" y="123" on="1"/>
      </contour>
    </TTGlyph>
    <TTGlyph name="IJ" xMin="156" yMin="-20" xMax="1059" yMax="1462">
      <contour>
        <pt x="156" y="0" on="1"/>
        <pt x="156" y="1462" on="1"/>
        <pt x="342" y="1462" on="1"/>
        <pt x="342" y="0" on="1"/>
      </contour>
      <contour>
        <pt x="492" y="23" on="1"/>
        <pt x="492" y="186" on="1"/>
        <pt x="585" y="141" on="0"/>
        <pt x="678" y="141" on="1"/>
        <pt x="872" y="141" on="0"/>
        <pt x="872" y="424" on="1"/>
        <pt x="872" y="1462" on="1"/>
        <pt x="1059" y="1462" on="1"/>
        <pt x="1059" y="436" on="1"/>
        <pt x="1059" y="-20" on="0"/>
        <pt x="694" y="-20" on="1"/>
        <pt x="561" y="-20" on="0"/>
      </contour>
    </TTGlyph>
    <TTGlyph name="Iacute" xMin="225" yMin="0" xMax="1001" yMax="1907">
      <component glyphName="I" x="0" y="0" flags="0x204"/>
      <component glyphName="acute" x="119" y="338" flags="0x4"/>
    </TTGlyph>
    <TTGlyph name="Ibreve" xMin="225" yMin="0" xMax="1001" yMax="1856">
      <component glyphName="I" x="0" y="0" flags="0x204"/>
      <component glyphName="breve" x="0" y="338" flags="0x4"/>
    </TTGlyph>
    <TTGlyph name="Icircumflex" xMin="225" yMin="0" xMax="1001" yMax="1907">
      <component glyphName="I" x="0" y="0" flags="0x204"/>
      <component glyphName="circumflex" x="0" y="338" flags="0x4"/>
    </TTGlyph>
    <TTGlyph name="Idieresis" xMin="225" yMin="0" xMax="1001" yMax="1835">
      <component glyphName="I" x="0" y="0" flags="0x204"/>
      <component glyphName="dieresis" x="2" y="338" flags="0x4"/>
    </TTGlyph>
    <TTGlyph name="Idotaccent" xMin="225" yMin="0" xMax="1001" yMax="1847">
      <component glyphName="I" x="0" y="0" flags="0x204"/>
      <component glyphName="dotaccent" x="0" y="338" flags="0x4"/>
    </TTGlyph>
    <TTGlyph name="Igrave" xMin="225" yMin="0" xMax="1001" yMax="1907">
      <component glyphName="I" x="0" y="0" flags="0x204"/>
      <component glyphName="grave" x="-108" y="338" flags="0x4"/>
    </TTGlyph>
    <TTGlyph name="Imacron" xMin="225" yMin="0" xMax="1001" yMax="1729">
      <component glyphName="I" x="0" y="0" flags="0x204"/>
      <component glyphName="macron" x="2" y="338" flags="0x4"/>
    </TTGlyph>
    <TTGlyph name="Iogonek" xMin="225" yMin="-455" xMax="1001" yMax="1462">
      <component glyphName="I" x="0" y="0" flags="0x204"/>
      <component glyphName="ogonek" x="8" y="0" flags="0x4"/>
    </TTGlyph>
    <TTGlyph name="Iota" xMin="225" yMin="0" xMax="1001" yMax="1462">
      <component glyphName="I" x="0" y="0" flags="0x204"/>
    </TTGlyph>
    <TTGlyph name="Iotadieresis" xMin="225" yMin="0" xMax="1001" yMax="1835">
      <component glyphName="I" x="0" y="0" flags="0x204"/>
      <component glyphName="dieresis" x="2" y="338" flags="0x4"/>
    </TTGlyph>
    <TTGlyph name="Iotatonos" xMin="-93" yMin="0" xMax="1001" yMax="1464">
      <component glyphName="I" x="0" y="0" flags="0x204"/>
      <component glyphName="tonos" x="-572" y="-105" flags="0x4"/>
    </TTGlyph>
    <TTGlyph name="Itilde" xMin="225" yMin="0" xMax="1001" yMax="1845">
      <component glyphName="I" x="0" y="0" flags="0x204"/>
      <component glyphName="tilde" x="0" y="338" flags="0x4"/>
    </TTGlyph>
    <TTGlyph name="J" xMin="137" yMin="-20" xMax="979" yMax="1462">
      <contour>
        <pt x="137" y="39" on="1"/>
        <pt x="137" y="205" on="1"/>
        <pt x="299" y="143" on="0"/>
        <pt x="446" y="143" on="1"/>
        <pt x="607" y="143" on="0"/>
        <pt x="793" y="302" on="0"/>
        <pt x="793" y="449" on="1"/>
        <pt x="793" y="1462" on="1"/>
        <pt x="979" y="1462" on="1"/>
        <pt x="979" y="451" on="1"/>
        <pt x="979" y="235" on="0"/>
        <pt x="698" y="-20" on="0"/>
        <pt x="461" y="-20" on="1"/>
        <pt x="244" y="-20" on="0"/>
      </contour>
    </TTGlyph>
    <TTGlyph name="Jcircumflex" xMin="137" yMin="-20" xMax="1214" yMax="1907">
      <component glyphName="J" x="0" y="0" flags="0x204"/>
      <component glyphName="circumflex" x="268" y="338" flags="0x4"/>
    </TTGlyph>
    <TTGlyph name="K" xMin="211" yMin="0" xMax="1198" yMax="1462">
      <contour>
        <pt x="1198" y="0" on="1"/>
        <pt x="987" y="0" on="1"/>
        <pt x="537" y="698" on="1"/>
        <pt x="397" y="584" on="1"/>
        <pt x="397" y="0" on="1"/>
        <pt x="211" y="0" on="1"/>
        <pt x="211" y="1462" on="1"/>
        <pt x="397" y="1462" on="1"/>
        <pt x="397" y="731" on="1"/>
        <pt x="518" y="899" on="1"/>
        <pt x="971" y="1462" on="1"/>
        <pt x="1180" y="1462" on="1"/>
        <pt x="659" y="825" on="1"/>
      </contour>
    </TTGlyph>
    <TTGlyph name="Kappa" xMin="211" yMin="0" xMax="1198" yMax="1462">
      <component glyphName="K" x="0" y="0" flags="0x204"/>
    </TTGlyph>
    <TTGlyph name="Kcommaaccent" xMin="211" yMin="-453" xMax="1198" yMax="1462">
      <component glyphName="K" x="0" y="0" flags="0x204"/>
      <component glyphName="commaaccent" x="27" y="0" flags="0x4"/>
    </TTGlyph>
    <TTGlyph name="L" xMin="233" yMin="0" xMax="1055" yMax="1462">
      <contour>
        <pt x="233" y="0" on="1"/>
        <pt x="233" y="1462" on="1"/>
        <pt x="420" y="1462" on="1"/>
        <pt x="420" y="166" on="1"/>
        <pt x="1055" y="166" on="1"/>
        <pt x="1055" y="0" on="1"/>
      </contour>
    </TTGlyph>
    <TTGlyph name="Lacute" xMin="233" yMin="0" xMax="1055" yMax="1907">
      <component glyphName="L" x="0" y="0" flags="0x204"/>
      <component glyphName="acute" x="-155" y="338" flags="0x4"/>
    </TTGlyph>
    <TTGlyph name="Lambda" xMin="33" yMin="0" xMax="1196" yMax="1462">
      <contour>
        <pt x="1196" y="0" on="1"/>
        <pt x="997" y="0" on="1"/>
        <pt x="705" y="922" on="1"/>
        <pt x="642" y="1121" on="0"/>
        <pt x="612" y="1262" on="1"/>
        <pt x="567" y="1062" on="0"/>
        <pt x="524" y="928" on="1"/>
        <pt x="229" y="0" on="1"/>
        <pt x="33" y="0" on="1"/>
        <pt x="520" y="1462" on="1"/>
        <pt x="707" y="1462" on="1"/>
      </contour>
    </TTGlyph>
    <TTGlyph name="Lcaron" xMin="233" yMin="0" xMax="1055" yMax="1463">
      <component glyphName="L" x="0" y="0" flags="0x204"/>
      <component glyphName="caroncommaaccent" x="256" y="-93" flags="0x4"/>
    </TTGlyph>
    <TTGlyph name="Lcommaaccent" xMin="233" yMin="-453" xMax="1055" yMax="1462">
      <component glyphName="L" x="0" y="0" flags="0x204"/>
      <component glyphName="commaaccent" x="8" y="0" flags="0x4"/>
    </TTGlyph>
    <TTGlyph name="Ldot" xMin="233" yMin="0" xMax="1055" yMax="1462">
      <component glyphName="L" x="0" y="0" flags="0x204"/>
      <component glyphName="dotaccent" x="242" y="-620" flags="0x4"/>
    </TTGlyph>
    <TTGlyph name="Lslash" xMin="72" yMin="0" xMax="1092" yMax="1462">
      <contour>
        <pt x="270" y="0" on="1"/>
        <pt x="270" y="492" on="1"/>
        <pt x="145" y="414" on="1"/>
        <pt x="72" y="539" on="1"/>
        <pt x="270" y="664" on="1"/>
        <pt x="270" y="1462" on="1"/>
        <pt x="457" y="1462" on="1"/>
        <pt x="457" y="782" on="1"/>
        <pt x="756" y="971" on="1"/>
        <pt x="834" y="846" on="1"/>
        <pt x="457" y="608" on="1"/>
        <pt x="457" y="166" on="1"/>
        <pt x="1092" y="166" on="1"/>
        <pt x="1092" y="0" on="1"/>
      </contour>
    </TTGlyph>
    <TTGlyph name="M" xMin="113" yMin="0" xMax="1116" yMax="1462">
      <contour>
        <pt x="532" y="0" on="1"/>
        <pt x="254" y="1280" on="1"/>
        <pt x="246" y="1280" on="1"/>
        <pt x="264" y="1014" on="0"/>
        <pt x="264" y="874" on="1"/>
        <pt x="264" y="0" on="1"/>
        <pt x="113" y="0" on="1"/>
        <pt x="113" y="1462" on="1"/>
        <pt x="360" y="1462" on="1"/>
        <pt x="608" y="270" on="1"/>
        <pt x="614" y="270" on="1"/>
        <pt x="864" y="1462" on="1"/>
        <pt x="1116" y="1462" on="1"/>
        <pt x="1116" y="0" on="1"/>
        <pt x="963" y="0" on="1"/>
        <pt x="963" y="887" on="1"/>
        <pt x="963" y="989" on="0"/>
        <pt x="977" y="1278" on="1"/>
        <pt x="969" y="1278" on="1"/>
        <pt x="686" y="0" on="1"/>
      </contour>
    </TTGlyph>
    <TTGlyph name="Mu" xMin="113" yMin="0" xMax="1116" yMax="1462">
      <component glyphName="M" x="0" y="0" flags="0x204"/>
    </TTGlyph>
    <TTGlyph name="N" xMin="135" yMin="0" xMax="1092" yMax="1462">
      <contour>
        <pt x="1092" y="0" on="1"/>
        <pt x="877" y="0" on="1"/>
        <pt x="297" y="1210" on="1"/>
        <pt x="289" y="1210" on="1"/>
        <pt x="307" y="933" on="0"/>
        <pt x="307" y="793" on="1"/>
        <pt x="307" y="0" on="1"/>
        <pt x="135" y="0" on="1"/>
        <pt x="135" y="1462" on="1"/>
        <pt x="348" y="1462" on="1"/>
        <pt x="926" y="258" on="1"/>
        <pt x="932" y="258" on="1"/>
        <pt x="918" y="561" on="0"/>
        <pt x="918" y="662" on="1"/>
        <pt x="918" y="1462" on="1"/>
        <pt x="1092" y="1462" on="1"/>
      </contour>
    </TTGlyph>
    <TTGlyph name="Nacute" xMin="135" yMin="0" xMax="1092" yMax="1907">
      <component glyphName="N" x="0" y="0" flags="0x204"/>
      <component glyphName="acute" x="98" y="338" flags="0x4"/>
    </TTGlyph>
    <TTGlyph name="Ncaron" xMin="135" yMin="0" xMax="1092" yMax="1907">
      <component glyphName="N" x="0" y="0" flags="0x204"/>
      <component glyphName="caron" x="-3" y="338" flags="0x4"/>
    </TTGlyph>
    <TTGlyph name="Ncommaaccent" xMin="135" yMin="-453" xMax="1092" yMax="1462">
      <component glyphName="N" x="0" y="0" flags="0x204"/>
      <component glyphName="commaaccent" x="-50" y="0" flags="0x4"/>
    </TTGlyph>
    <TTGlyph name="Ntilde" xMin="135" yMin="0" xMax="1092" yMax="1845">
      <component glyphName="N" x="0" y="0" flags="0x204"/>
      <component glyphName="tilde" x="4" y="338" flags="0x4"/>
    </TTGlyph>
    <TTGlyph name="Nu" xMin="135" yMin="0" xMax="1092" yMax="1462">
      <component glyphName="N" x="0" y="0" flags="0x204"/>
    </TTGlyph>
    <TTGlyph name="O" xMin="84" yMin="-20" xMax="1147" yMax="1485">
      <contour>
        <pt x="616" y="-20" on="1"/>
        <pt x="84" y="-20" on="0"/>
        <pt x="84" y="735" on="1"/>
        <pt x="84" y="1485" on="0"/>
        <pt x="618" y="1485" on="1"/>
        <pt x="874" y="1485" on="0"/>
        <pt x="1147" y="1094" on="0"/>
        <pt x="1147" y="733" on="1"/>
        <pt x="1147" y="372" on="0"/>
        <pt x="871" y="-20" on="0"/>
      </contour>
      <contour>
        <pt x="616" y="143" on="1"/>
        <pt x="789" y="143" on="0"/>
        <pt x="950" y="433" on="0"/>
        <pt x="950" y="733" on="1"/>
        <pt x="950" y="1036" on="0"/>
        <pt x="787" y="1321" on="0"/>
        <pt x="618" y="1321" on="1"/>
        <pt x="281" y="1321" on="0"/>
        <pt x="281" y="733" on="1"/>
        <pt x="281" y="143" on="0"/>
      </contour>
    </TTGlyph>
    <TTGlyph name="OE" xMin="20" yMin="-20" xMax="1227" yMax="1485">
      <contour>
        <pt x="1227" y="0" on="1"/>
        <pt x="653" y="0" on="1"/>
        <pt x="605" y="-10" on="1"/>
        <pt x="554" y="-20" on="0"/>
        <pt x="508" y="-20" on="1"/>
        <pt x="20" y="-20" on="0"/>
        <pt x="20" y="735" on="1"/>
        <pt x="20" y="1485" on="0"/>
        <pt x="532" y="1485" on="1"/>
        <pt x="614" y="1485" on="0"/>
        <pt x="686" y="1462" on="1"/>
        <pt x="1227" y="1462" on="1"/>
        <pt x="1227" y="1298" on="1"/>
        <pt x="829" y="1298" on="1"/>
        <pt x="829" y="846" on="1"/>
        <pt x="1188" y="846" on="1"/>
        <pt x="1188" y="684" on="1"/>
        <pt x="829" y="684" on="1"/>
        <pt x="829" y="164" on="1"/>
        <pt x="1227" y="164" on="1"/>
      </contour>
      <contour>
        <pt x="651" y="176" on="1"/>
        <pt x="651" y="1288" on="1"/>
        <pt x="593" y="1321" on="0"/>
        <pt x="520" y="1321" on="1"/>
        <pt x="209" y="1321" on="0"/>
        <pt x="209" y="733" on="1"/>
        <pt x="209" y="143" on="0"/>
        <pt x="518" y="143" on="1"/>
        <pt x="588" y="143" on="0"/>
      </contour>
    </TTGlyph>
    <TTGlyph name="Oacute" xMin="84" yMin="-20" xMax="1147" yMax="1907">
      <component glyphName="O" x="0" y="0" flags="0x204"/>
      <component glyphName="acute" x="90" y="338" flags="0x4"/>
    </TTGlyph>
    <TTGlyph name="Obreve" xMin="84" yMin="-20" xMax="1147" yMax="1856">
      <component glyphName="O" x="0" y="0" flags="0x204"/>
      <component glyphName="breve" x="-1" y="338" flags="0x4"/>
    </TTGlyph>
    <TTGlyph name="Ocircumflex" xMin="84" yMin="-20" xMax="1147" yMax="1907">
      <component glyphName="O" x="0" y="0" flags="0x204"/>
      <component glyphName="circumflex" x="0" y="338" flags="0x4"/>
    </TTGlyph>
    <TTGlyph name="Odieresis" xMin="84" yMin="-20" xMax="1147" yMax="1835">
      <component glyphName="O" x="0" y="0" flags="0x204"/>
      <component glyphName="dieresis" x="2" y="338" flags="0x4"/>
    </TTGlyph>
    <TTGlyph name="Ograve" xMin="84" yMin="-20" xMax="1147" yMax="1907">
      <component glyphName="O" x="0" y="0" flags="0x204"/>
      <component glyphName="grave" x="-81" y="338" flags="0x4"/>
    </TTGlyph>
    <TTGlyph name="Ohorn" xMin="84" yMin="-20" xMax="1270" yMax="1556">
      <contour>
        <pt x="1147" y="733" on="1"/>
        <pt x="1147" y="564" on="0"/>
        <pt x="1083" y="286" on="0"/>
        <pt x="951" y="88" on="0"/>
        <pt x="751" y="-20" on="0"/>
        <pt x="616" y="-20" on="1"/>
        <pt x="474" y="-20" on="0"/>
        <pt x="273" y="88" on="0"/>
        <pt x="144" y="286" on="0"/>
        <pt x="84" y="565" on="0"/>
        <pt x="84" y="735" on="1"/>
        <pt x="84" y="905" on="0"/>
        <pt x="144" y="1182" on="0"/>
        <pt x="273" y="1378" on="0"/>
        <pt x="476" y="1485" on="0"/>
        <pt x="618" y="1485" on="1"/>
        <pt x="742" y="1485" on="0"/>
        <pt x="929" y="1395" on="0"/>
        <pt x="995" y="1309" on="1"/>
        <pt x="1013" y="1328" on="0"/>
        <pt x="1036" y="1380" on="0"/>
        <pt x="1049" y="1443" on="0"/>
        <pt x="1055" y="1516" on="0"/>
        <pt x="1057" y="1556" on="1"/>
        <pt x="1255" y="1556" on="1"/>
        <pt x="1270" y="1534" on="1"/>
        <pt x="1259" y="1482" on="0"/>
        <pt x="1226" y="1383" on="0"/>
        <pt x="1177" y="1296" on="0"/>
        <pt x="1109" y="1222" on="0"/>
        <pt x="1063" y="1194" on="1"/>
        <pt x="1105" y="1103" on="0"/>
        <pt x="1147" y="870" on="0"/>
      </contour>
      <contour>
        <pt x="281" y="733" on="1"/>
        <pt x="281" y="596" on="0"/>
        <pt x="317" y="377" on="0"/>
        <pt x="396" y="224" on="0"/>
        <pt x="524" y="143" on="0"/>
        <pt x="616" y="143" on="1"/>
        <pt x="709" y="143" on="0"/>
        <pt x="837" y="224" on="0"/>
        <pt x="915" y="377" on="0"/>
        <pt x="950" y="596" on="0"/>
        <pt x="950" y="733" on="1"/>
        <pt x="950" y="871" on="0"/>
        <pt x="915" y="1089" on="0"/>
        <pt x="837" y="1240" on="0"/>
        <pt x="710" y="1321" on="0"/>
        <pt x="618" y="1321" on="1"/>
        <pt x="525" y="1321" on="0"/>
        <pt x="397" y="1240" on="0"/>
        <pt x="317" y="1089" on="0"/>
        <pt x="281" y="871" on="0"/>
      </contour>
    </TTGlyph>
    <TTGlyph name="Ohungarumlaut" xMin="84" yMin="-20" xMax="1147" yMax="1907">
      <component glyphName="O" x="0" y="0" flags="0x204"/>
      <component glyphName="hungarumlaut" x="80" y="338" flags="0x4"/>
    </TTGlyph>
    <TTGlyph name="Omacron" xMin="84" yMin="-20" xMax="1147" yMax="1729">
      <component glyphName="O" x="0" y="0" flags="0x204"/>
      <component glyphName="macron" x="4" y="338" flags="0x4"/>
    </TTGlyph>
    <TTGlyph name="Omega" xMin="74" yMin="0" xMax="1159" yMax="1485">
      <component glyphName="uni03A9" x="0" y="0" flags="0x204"/>
    </TTGlyph>
    <TTGlyph name="Omegatonos" xMin="-134" yMin="0" xMax="1159" yMax="1485">
      <component glyphName="uni03A9" x="0" y="0" flags="0x204"/>
      <component glyphName="tonos" x="-613" y="-105" flags="0x4"/>
    </TTGlyph>
    <TTGlyph name="Omicron" xMin="84" yMin="-20" xMax="1147" yMax="1485">
      <component glyphName="O" x="0" y="0" flags="0x204"/>
    </TTGlyph>
    <TTGlyph name="Omicrontonos" xMin="-132" yMin="-20" xMax="1147" yMax="1485">
      <component glyphName="O" x="0" y="0" flags="0x204"/>
      <component glyphName="tonos" x="-611" y="-105" flags="0x4"/>
    </TTGlyph>
    <TTGlyph name="Oslash" xMin="80" yMin="-76" xMax="1157" yMax="1532">
      <contour>
        <pt x="309" y="74" on="1"/>
        <pt x="217" y="-76" on="1"/>
        <pt x="80" y="2" on="1"/>
        <pt x="201" y="199" on="1"/>
        <pt x="84" y="383" on="0"/>
        <pt x="84" y="735" on="1"/>
        <pt x="84" y="1485" on="0"/>
        <pt x="618" y="1485" on="1"/>
        <pt x="804" y="1485" on="0"/>
        <pt x="928" y="1380" on="1"/>
        <pt x="1020" y="1532" on="1"/>
        <pt x="1157" y="1454" on="1"/>
        <pt x="1032" y="1253" on="1"/>
        <pt x="1147" y="1065" on="0"/>
        <pt x="1147" y="733" on="1"/>
        <pt x="1147" y="372" on="0"/>
        <pt x="871" y="-20" on="0"/>
        <pt x="616" y="-20" on="1"/>
        <pt x="427" y="-20" on="0"/>
      </contour>
      <contour>
        <pt x="319" y="391" on="1"/>
        <pt x="834" y="1227" on="1"/>
        <pt x="754" y="1321" on="0"/>
        <pt x="618" y="1321" on="1"/>
        <pt x="281" y="1321" on="0"/>
        <pt x="281" y="733" on="1"/>
        <pt x="281" y="521" on="0"/>
      </contour>
      <contour>
        <pt x="915" y="1061" on="1"/>
        <pt x="403" y="229" on="1"/>
        <pt x="483" y="143" on="0"/>
        <pt x="616" y="143" on="1"/>
        <pt x="789" y="143" on="0"/>
        <pt x="950" y="433" on="0"/>
        <pt x="950" y="733" on="1"/>
        <pt x="950" y="942" on="0"/>
      </contour>
    </TTGlyph>
    <TTGlyph name="Oslashacute" xMin="80" yMin="-76" xMax="1157" yMax="1907">
      <component glyphName="Oslash" x="0" y="0" flags="0x204"/>
      <component glyphName="acute" x="57" y="338" flags="0x4"/>
    </TTGlyph>
    <TTGlyph name="Otilde" xMin="84" yMin="-20" xMax="1147" yMax="1845">
      <component glyphName="O" x="0" y="0" flags="0x204"/>
      <component glyphName="tilde" x="8" y="338" flags="0x4"/>
    </TTGlyph>
    <TTGlyph name="P" xMin="176" yMin="0" xMax="1094" yMax="1462">
      <contour>
        <pt x="362" y="569" on="1"/>
        <pt x="362" y="0" on="1"/>
        <pt x="176" y="0" on="1"/>
        <pt x="176" y="1462" on="1"/>
        <pt x="580" y="1462" on="1"/>
        <pt x="1094" y="1462" on="0"/>
        <pt x="1094" y="1034" on="1"/>
        <pt x="1094" y="815" on="0"/>
        <pt x="817" y="569" on="0"/>
        <pt x="553" y="569" on="1"/>
      </contour>
      <contour>
        <pt x="362" y="727" on="1"/>
        <pt x="532" y="727" on="1"/>
        <pt x="730" y="727" on="0"/>
        <pt x="901" y="871" on="0"/>
        <pt x="901" y="1024" on="1"/>
        <pt x="901" y="1303" on="0"/>
        <pt x="563" y="1303" on="1"/>
        <pt x="362" y="1303" on="1"/>
      </contour>
    </TTGlyph>
    <TTGlyph name="Phi" xMin="27" yMin="-20" xMax="1204" yMax="1483">
      <contour>
        <pt x="532" y="1483" on="1"/>
        <pt x="698" y="1483" on="1"/>
        <pt x="698" y="1303" on="1"/>
        <pt x="745" y="1303" on="1"/>
        <pt x="958" y="1303" on="0"/>
        <pt x="1204" y="994" on="0"/>
        <pt x="1204" y="758" on="1"/>
        <pt x="1204" y="522" on="0"/>
        <pt x="951" y="205" on="0"/>
        <pt x="723" y="205" on="1"/>
        <pt x="698" y="205" on="1"/>
        <pt x="698" y="-20" on="1"/>
        <pt x="532" y="-20" on="1"/>
        <pt x="532" y="205" on="1"/>
        <pt x="508" y="205" on="1"/>
        <pt x="278" y="205" on="0"/>
        <pt x="27" y="523" on="0"/>
        <pt x="27" y="758" on="1"/>
        <pt x="27" y="993" on="0"/>
        <pt x="272" y="1303" on="0"/>
        <pt x="485" y="1303" on="1"/>
        <pt x="532" y="1303" on="1"/>
      </contour>
      <contour>
        <pt x="698" y="362" on="1"/>
        <pt x="705" y="362" on="1"/>
        <pt x="860" y="362" on="0"/>
        <pt x="1032" y="575" on="0"/>
        <pt x="1032" y="762" on="1"/>
        <pt x="1032" y="934" on="0"/>
        <pt x="874" y="1143" on="0"/>
        <pt x="731" y="1143" on="1"/>
        <pt x="698" y="1143" on="1"/>
      </contour>
      <contour>
        <pt x="532" y="1143" on="1"/>
        <pt x="500" y="1143" on="1"/>
        <pt x="357" y="1143" on="0"/>
        <pt x="199" y="934" on="0"/>
        <pt x="199" y="762" on="1"/>
        <pt x="199" y="575" on="0"/>
        <pt x="371" y="362" on="0"/>
        <pt x="526" y="362" on="1"/>
        <pt x="532" y="362" on="1"/>
      </contour>
    </TTGlyph>
    <TTGlyph name="Pi" xMin="135" yMin="0" xMax="1094" yMax="1462">
      <contour>
        <pt x="1094" y="0" on="1"/>
        <pt x="907" y="0" on="1"/>
        <pt x="907" y="1298" on="1"/>
        <pt x="322" y="1298" on="1"/>
        <pt x="322" y="0" on="1"/>
        <pt x="135" y="0" on="1"/>
        <pt x="135" y="1462" on="1"/>
        <pt x="1094" y="1462" on="1"/>
      </contour>
    </TTGlyph>
    <TTGlyph name="Psi" xMin="57" yMin="0" xMax="1174" yMax="1462">
      <contour>
        <pt x="1174" y="983" on="1"/>
        <pt x="1174" y="696" on="0"/>
        <pt x="942" y="446" on="0"/>
        <pt x="715" y="446" on="1"/>
        <pt x="698" y="446" on="1"/>
        <pt x="698" y="0" on="1"/>
        <pt x="532" y="0" on="1"/>
        <pt x="532" y="446" on="1"/>
        <pt x="516" y="446" on="1"/>
        <pt x="286" y="446" on="0"/>
        <pt x="57" y="697" on="0"/>
        <pt x="57" y="979" on="1"/>
        <pt x="57" y="1462" on="1"/>
        <pt x="229" y="1462" on="1"/>
        <pt x="229" y="983" on="1"/>
        <pt x="229" y="752" on="0"/>
        <pt x="367" y="604" on="0"/>
        <pt x="516" y="604" on="1"/>
        <pt x="532" y="604" on="1"/>
        <pt x="532" y="1462" on="1"/>
        <pt x="698" y="1462" on="1"/>
        <pt x="698" y="604" on="1"/>
        <pt x="715" y="604" on="1"/>
        <pt x="864" y="604" on="0"/>
        <pt x="1001" y="748" on="0"/>
        <pt x="1001" y="979" on="1"/>
        <pt x="1001" y="1462" on="1"/>
        <pt x="1174" y="1462" on="1"/>
      </contour>
    </TTGlyph>
    <TTGlyph name="Q" xMin="84" yMin="-414" xMax="1147" yMax="1485">
      <contour>
        <pt x="862" y="39" on="1"/>
        <pt x="947" y="-141" on="0"/>
        <pt x="1141" y="-272" on="1"/>
        <pt x="1020" y="-414" on="1"/>
        <pt x="784" y="-243" on="0"/>
        <pt x="692" y="-14" on="1"/>
        <pt x="656" y="-20" on="0"/>
        <pt x="616" y="-20" on="1"/>
        <pt x="84" y="-20" on="0"/>
        <pt x="84" y="735" on="1"/>
        <pt x="84" y="1485" on="0"/>
        <pt x="618" y="1485" on="1"/>
        <pt x="874" y="1485" on="0"/>
        <pt x="1147" y="1094" on="0"/>
        <pt x="1147" y="733" on="1"/>
        <pt x="1147" y="207" on="0"/>
      </contour>
      <contour>
        <pt x="616" y="143" on="1"/>
        <pt x="789" y="143" on="0"/>
        <pt x="950" y="433" on="0"/>
        <pt x="950" y="733" on="1"/>
        <pt x="950" y="1036" on="0"/>
        <pt x="787" y="1321" on="0"/>
        <pt x="618" y="1321" on="1"/>
        <pt x="281" y="1321" on="0"/>
        <pt x="281" y="733" on="1"/>
        <pt x="281" y="143" on="0"/>
      </contour>
    </TTGlyph>
    <TTGlyph name="R" xMin="186" yMin="0" xMax="1171" yMax="1462">
      <contour>
        <pt x="373" y="604" on="1"/>
        <pt x="373" y="0" on="1"/>
        <pt x="186" y="0" on="1"/>
        <pt x="186" y="1462" on="1"/>
        <pt x="543" y="1462" on="1"/>
        <pt x="1063" y="1462" on="0"/>
        <pt x="1063" y="1047" on="1"/>
        <pt x="1063" y="760" on="0"/>
        <pt x="774" y="655" on="1"/>
        <pt x="1171" y="0" on="1"/>
        <pt x="952" y="0" on="1"/>
        <pt x="602" y="604" on="1"/>
      </contour>
      <contour>
        <pt x="373" y="762" on="1"/>
        <pt x="537" y="762" on="1"/>
        <pt x="708" y="762" on="0"/>
        <pt x="870" y="894" on="0"/>
        <pt x="870" y="1038" on="1"/>
        <pt x="870" y="1179" on="0"/>
        <pt x="710" y="1303" on="0"/>
        <pt x="532" y="1303" on="1"/>
        <pt x="373" y="1303" on="1"/>
      </contour>
    </TTGlyph>
    <TTGlyph name="Racute" xMin="186" yMin="0" xMax="1171" yMax="1907">
      <component glyphName="R" x="0" y="0" flags="0x204"/>
      <component glyphName="acute" x="29" y="338" flags="0x4"/>
    </TTGlyph>
    <TTGlyph name="Rcaron" xMin="186" yMin="0" xMax="1171" yMax="1907">
      <component glyphName="R" x="0" y="0" flags="0x204"/>
      <component glyphName="caron" x="-30" y="338" flags="0x4"/>
    </TTGlyph>
    <TTGlyph name="Rcommaaccent" xMin="186" yMin="-453" xMax="1171" yMax="1462">
      <component glyphName="R" x="0" y="0" flags="0x204"/>
      <component glyphName="commaaccent" x="-3" y="0" flags="0x4"/>
    </TTGlyph>
    <TTGlyph name="Rho" xMin="176" yMin="0" xMax="1094" yMax="1462">
      <component glyphName="P" x="0" y="0" flags="0x204"/>
    </TTGlyph>
    <TTGlyph name="S" xMin="141" yMin="-20" xMax="1087" yMax="1483">
      <contour>
        <pt x="141" y="49" on="1"/>
        <pt x="141" y="227" on="1"/>
        <pt x="352" y="141" on="0"/>
        <pt x="555" y="141" on="1"/>
        <pt x="905" y="141" on="0"/>
        <pt x="905" y="381" on="1"/>
        <pt x="905" y="485" on="0"/>
        <pt x="764" y="597" on="0"/>
        <pt x="549" y="674" on="1"/>
        <pt x="341" y="747" on="0"/>
        <pt x="160" y="950" on="0"/>
        <pt x="160" y="1112" on="1"/>
        <pt x="160" y="1286" on="0"/>
        <pt x="417" y="1483" on="0"/>
        <pt x="641" y="1483" on="1"/>
        <pt x="870" y="1483" on="0"/>
        <pt x="1057" y="1405" on="1"/>
        <pt x="993" y="1241" on="1"/>
        <pt x="800" y="1319" on="0"/>
        <pt x="633" y="1319" on="1"/>
        <pt x="340" y="1319" on="0"/>
        <pt x="340" y="1110" on="1"/>
        <pt x="340" y="1008" on="0"/>
        <pt x="471" y="884" on="0"/>
        <pt x="676" y="813" on="1"/>
        <pt x="922" y="725" on="0"/>
        <pt x="1087" y="538" on="0"/>
        <pt x="1087" y="391" on="1"/>
        <pt x="1087" y="199" on="0"/>
        <pt x="810" y="-20" on="0"/>
        <pt x="555" y="-20" on="1"/>
        <pt x="290" y="-20" on="0"/>
      </contour>
    </TTGlyph>
    <TTGlyph name="Sacute" xMin="141" yMin="-20" xMax="1087" yMax="1907">
      <component glyphName="S" x="0" y="0" flags="0x204"/>
      <component glyphName="acute" x="96" y="338" flags="0x4"/>
    </TTGlyph>
    <TTGlyph name="Scaron" xMin="141" yMin="-20" xMax="1087" yMax="1907">
      <component glyphName="S" x="0" y="0" flags="0x204"/>
      <component glyphName="caron" x="31" y="338" flags="0x4"/>
    </TTGlyph>
    <TTGlyph name="Scedilla" xMin="141" yMin="-492" xMax="1087" yMax="1483">
      <component glyphName="S" x="0" y="0" flags="0x204"/>
      <component glyphName="cedilla" x="-22" y="0" flags="0x4"/>
    </TTGlyph>
    <TTGlyph name="Scircumflex" xMin="141" yMin="-20" xMax="1087" yMax="1907">
      <component glyphName="S" x="0" y="0" flags="0x204"/>
      <component glyphName="circumflex" x="20" y="338" flags="0x4"/>
    </TTGlyph>
    <TTGlyph name="Scommaaccent" xMin="141" yMin="-453" xMax="1087" yMax="1483">
      <component glyphName="S" x="0" y="0" flags="0x204"/>
      <component glyphName="commaaccent" x="0" y="0" flags="0x4"/>
    </TTGlyph>
    <TTGlyph name="Sigma" xMin="131" yMin="0" xMax="1096" yMax="1462">
      <contour>
        <pt x="131" y="0" on="1"/>
        <pt x="131" y="152" on="1"/>
        <pt x="545" y="766" on="1"/>
        <pt x="143" y="1315" on="1"/>
        <pt x="143" y="1462" on="1"/>
        <pt x="1036" y="1462" on="1"/>
        <pt x="1036" y="1298" on="1"/>
        <pt x="356" y="1298" on="1"/>
        <pt x="745" y="768" on="1"/>
        <pt x="336" y="164" on="1"/>
        <pt x="1096" y="164" on="1"/>
        <pt x="1096" y="0" on="1"/>
      </contour>
    </TTGlyph>
    <TTGlyph name="T" xMin="102" yMin="0" xMax="1124" yMax="1462">
      <contour>
        <pt x="707" y="0" on="1"/>
        <pt x="520" y="0" on="1"/>
        <pt x="520" y="1298" on="1"/>
        <pt x="102" y="1298" on="1"/>
        <pt x="102" y="1462" on="1"/>
        <pt x="1124" y="1462" on="1"/>
        <pt x="1124" y="1298" on="1"/>
        <pt x="707" y="1298" on="1"/>
      </contour>
    </TTGlyph>
    <TTGlyph name="Tau" xMin="102" yMin="0" xMax="1124" yMax="1462">
      <component glyphName="T" x="0" y="0" flags="0x204"/>
    </TTGlyph>
    <TTGlyph name="Tbar" xMin="102" yMin="0" xMax="1124" yMax="1462">
      <contour>
        <pt x="520" y="819" on="1"/>
        <pt x="520" y="1298" on="1"/>
        <pt x="102" y="1298" on="1"/>
        <pt x="102" y="1462" on="1"/>
        <pt x="1124" y="1462" on="1"/>
        <pt x="1124" y="1298" on="1"/>
        <pt x="707" y="1298" on="1"/>
        <pt x="707" y="819" on="1"/>
        <pt x="1001" y="819" on="1"/>
        <pt x="1001" y="670" on="1"/>
        <pt x="707" y="670" on="1"/>
        <pt x="707" y="0" on="1"/>
        <pt x="520" y="0" on="1"/>
        <pt x="520" y="670" on="1"/>
        <pt x="223" y="670" on="1"/>
        <pt x="223" y="819" on="1"/>
      </contour>
    </TTGlyph>
    <TTGlyph name="Tcaron" xMin="102" yMin="0" xMax="1124" yMax="1907">
      <component glyphName="T" x="0" y="0" flags="0x204"/>
      <component glyphName="caron" x="-1" y="338" flags="0x4"/>
    </TTGlyph>
    <TTGlyph name="Tcommaaccent" xMin="102" yMin="-453" xMax="1124" yMax="1462">
      <component glyphName="T" x="0" y="0" flags="0x204"/>
      <component glyphName="commaaccent" x="-34" y="0" flags="0x4"/>
    </TTGlyph>
    <TTGlyph name="Theta" xMin="84" yMin="-20" xMax="1147" yMax="1485">
      <contour>
        <pt x="616" y="-20" on="1"/>
        <pt x="84" y="-20" on="0"/>
        <pt x="84" y="735" on="1"/>
        <pt x="84" y="1485" on="0"/>
        <pt x="618" y="1485" on="1"/>
        <pt x="874" y="1485" on="0"/>
        <pt x="1147" y="1094" on="0"/>
        <pt x="1147" y="733" on="1"/>
        <pt x="1147" y="372" on="0"/>
        <pt x="871" y="-20" on="0"/>
      </contour>
      <contour>
        <pt x="616" y="143" on="1"/>
        <pt x="789" y="143" on="0"/>
        <pt x="950" y="433" on="0"/>
        <pt x="950" y="733" on="1"/>
        <pt x="950" y="1036" on="0"/>
        <pt x="787" y="1321" on="0"/>
        <pt x="618" y="1321" on="1"/>
        <pt x="281" y="1321" on="0"/>
        <pt x="281" y="733" on="1"/>
        <pt x="281" y="143" on="0"/>
      </contour>
      <contour>
        <pt x="410" y="825" on="1"/>
        <pt x="821" y="825" on="1"/>
        <pt x="821" y="664" on="1"/>
        <pt x="410" y="664" on="1"/>
      </contour>
    </TTGlyph>
    <TTGlyph name="Thorn" xMin="176" yMin="0" xMax="1094" yMax="1462">
      <contour>
        <pt x="362" y="317" on="1"/>
        <pt x="362" y="0" on="1"/>
        <pt x="176" y="0" on="1"/>
        <pt x="176" y="1462" on="1"/>
        <pt x="362" y="1462" on="1"/>
        <pt x="362" y="1210" on="1"/>
        <pt x="580" y="1210" on="1"/>
        <pt x="1094" y="1210" on="0"/>
        <pt x="1094" y="782" on="1"/>
        <pt x="1094" y="563" on="0"/>
        <pt x="817" y="317" on="0"/>
        <pt x="553" y="317" on="1"/>
      </contour>
      <contour>
        <pt x="362" y="475" on="1"/>
        <pt x="532" y="475" on="1"/>
        <pt x="730" y="475" on="0"/>
        <pt x="901" y="619" on="0"/>
        <pt x="901" y="772" on="1"/>
        <pt x="901" y="1051" on="0"/>
        <pt x="563" y="1051" on="1"/>
        <pt x="362" y="1051" on="1"/>
      </contour>
    </TTGlyph>
    <TTGlyph name="U" xMin="125" yMin="-20" xMax="1104" yMax="1464">
      <contour>
        <pt x="1104" y="1464" on="1"/>
        <pt x="1104" y="516" on="1"/>
        <pt x="1104" y="256" on="0"/>
        <pt x="852" y="-20" on="0"/>
        <pt x="608" y="-20" on="1"/>
        <pt x="125" y="-20" on="0"/>
        <pt x="125" y="520" on="1"/>
        <pt x="125" y="1462" on="1"/>
        <pt x="311" y="1462" on="1"/>
        <pt x="311" y="530" on="1"/>
        <pt x="311" y="143" on="0"/>
        <pt x="618" y="143" on="1"/>
        <pt x="913" y="143" on="0"/>
        <pt x="918" y="532" on="1"/>
        <pt x="918" y="1464" on="1"/>
      </contour>
    </TTGlyph>
    <TTGlyph name="Uacute" xMin="125" yMin="-20" xMax="1104" yMax="1907">
      <component glyphName="U" x="0" y="0" flags="0x204"/>
      <component glyphName="acute" x="76" y="338" flags="0x4"/>
    </TTGlyph>
    <TTGlyph name="Ubreve" xMin="125" yMin="-20" xMax="1104" yMax="1856">
      <component glyphName="U" x="0" y="0" flags="0x204"/>
      <component glyphName="breve" x="-1" y="338" flags="0x4"/>
    </TTGlyph>
    <TTGlyph name="Ucircumflex" xMin="125" yMin="-20" xMax="1104" yMax="1907">
      <component glyphName="U" x="0" y="0" flags="0x204"/>
      <component glyphName="circumflex" x="0" y="338" flags="0x4"/>
    </TTGlyph>
    <TTGlyph name="Udieresis" xMin="125" yMin="-20" xMax="1104" yMax="1835">
      <component glyphName="U" x="0" y="0" flags="0x204"/>
      <component glyphName="dieresis" x="2" y="338" flags="0x4"/>
    </TTGlyph>
    <TTGlyph name="Ugrave" xMin="125" yMin="-20" xMax="1104" yMax="1907">
      <component glyphName="U" x="0" y="0" flags="0x204"/>
      <component glyphName="grave" x="-69" y="338" flags="0x4"/>
    </TTGlyph>
    <TTGlyph name="Uhorn" xMin="125" yMin="-20" xMax="1303" yMax="1556">
      <contour>
        <pt x="950" y="1462" on="1"/>
        <pt x="950" y="1268" on="1"/>
        <pt x="997" y="1276" on="0"/>
        <pt x="1052" y="1328" on="0"/>
        <pt x="1081" y="1405" on="0"/>
        <pt x="1090" y="1502" on="0"/>
        <pt x="1090" y="1556" on="1"/>
        <pt x="1288" y="1556" on="1"/>
        <pt x="1303" y="1534" on="1"/>
        <pt x="1288" y="1465" on="0"/>
        <pt x="1240" y="1338" on="0"/>
        <pt x="1158" y="1233" on="0"/>
        <pt x="1037" y="1158" on="0"/>
        <pt x="950" y="1141" on="1"/>
        <pt x="950" y="475" on="1"/>
        <pt x="950" y="361" on="0"/>
        <pt x="905" y="178" on="0"/>
        <pt x="806" y="49" on="0"/>
        <pt x="647" y="-20" on="0"/>
        <pt x="532" y="-20" on="1"/>
        <pt x="424" y="-20" on="0"/>
        <pt x="270" y="45" on="0"/>
        <pt x="171" y="171" on="0"/>
        <pt x="125" y="357" on="0"/>
        <pt x="125" y="479" on="1"/>
        <pt x="125" y="1462" on="1"/>
        <pt x="311" y="1462" on="1"/>
        <pt x="311" y="489" on="1"/>
        <pt x="311" y="402" on="0"/>
        <pt x="335" y="272" on="0"/>
        <pt x="389" y="186" on="0"/>
        <pt x="478" y="143" on="0"/>
        <pt x="543" y="143" on="1"/>
        <pt x="610" y="143" on="0"/>
        <pt x="696" y="191" on="0"/>
        <pt x="745" y="281" on="0"/>
        <pt x="764" y="410" on="0"/>
        <pt x="764" y="492" on="1"/>
        <pt x="764" y="1462" on="1"/>
      </contour>
    </TTGlyph>
    <TTGlyph name="Uhungarumlaut" xMin="125" yMin="-20" xMax="1104" yMax="1907">
      <component glyphName="U" x="0" y="0" flags="0x204"/>
      <component glyphName="hungarumlaut" x="76" y="338" flags="0x4"/>
    </TTGlyph>
    <TTGlyph name="Umacron" xMin="125" yMin="-20" xMax="1104" yMax="1729">
      <component glyphName="U" x="0" y="0" flags="0x204"/>
      <component glyphName="macron" x="0" y="338" flags="0x4"/>
    </TTGlyph>
    <TTGlyph name="Uogonek" xMin="125" yMin="-455" xMax="1104" yMax="1464">
      <component glyphName="U" x="0" y="0" flags="0x204"/>
      <component glyphName="ogonek" x="27" y="0" flags="0x4"/>
    </TTGlyph>
    <TTGlyph name="Upsilon" xMin="33" yMin="0" xMax="1194" yMax="1462">
      <component glyphName="Y" x="0" y="0" flags="0x204"/>
    </TTGlyph>
    <TTGlyph name="Upsilondieresis" xMin="33" yMin="0" xMax="1194" yMax="1835">
      <component glyphName="Y" x="0" y="0" flags="0x204"/>
      <component glyphName="dieresis" x="2" y="338" flags="0x4"/>
    </TTGlyph>
    <TTGlyph name="Upsilontonos" xMin="-237" yMin="0" xMax="1194" yMax="1464">
      <component glyphName="Y" x="0" y="0" flags="0x204"/>
      <component glyphName="tonos" x="-716" y="-105" flags="0x4"/>
    </TTGlyph>
    <TTGlyph name="Uring" xMin="125" yMin="-20" xMax="1104" yMax="2009">
      <component glyphName="U" x="0" y="0" flags="0x204"/>
      <component glyphName="ring" x="2" y="338" flags="0x4"/>
    </TTGlyph>
    <TTGlyph name="Utilde" xMin="125" yMin="-20" xMax="1104" yMax="1845">
      <component glyphName="U" x="0" y="0" flags="0x204"/>
      <component glyphName="tilde" x="6" y="338" flags="0x4"/>
    </TTGlyph>
    <TTGlyph name="V" xMin="33" yMin="0" xMax="1196" yMax="1462">
      <contour>
        <pt x="997" y="1462" on="1"/>
        <pt x="1196" y="1462" on="1"/>
        <pt x="707" y="0" on="1"/>
        <pt x="520" y="0" on="1"/>
        <pt x="33" y="1462" on="1"/>
        <pt x="229" y="1462" on="1"/>
        <pt x="524" y="535" on="1"/>
        <pt x="565" y="408" on="0"/>
        <pt x="612" y="201" on="1"/>
        <pt x="643" y="346" on="0"/>
        <pt x="705" y="541" on="1"/>
      </contour>
    </TTGlyph>
    <TTGlyph name="W" xMin="2" yMin="0" xMax="1227" yMax="1462">
      <contour>
        <pt x="528" y="1008" on="1"/>
        <pt x="705" y="1008" on="1"/>
        <pt x="850" y="487" on="1"/>
        <pt x="911" y="268" on="0"/>
        <pt x="922" y="180" on="1"/>
        <pt x="924" y="233" on="0"/>
        <pt x="987" y="799" on="1"/>
        <pt x="1057" y="1462" on="1"/>
        <pt x="1227" y="1462" on="1"/>
        <pt x="1040" y="0" on="1"/>
        <pt x="850" y="0" on="1"/>
        <pt x="682" y="580" on="1"/>
        <pt x="642" y="718" on="0"/>
        <pt x="616" y="862" on="1"/>
        <pt x="584" y="689" on="0"/>
        <pt x="551" y="578" on="1"/>
        <pt x="395" y="0" on="1"/>
        <pt x="205" y="0" on="1"/>
        <pt x="2" y="1462" on="1"/>
        <pt x="172" y="1462" on="1"/>
        <pt x="260" y="799" on="1"/>
        <pt x="283" y="623" on="0"/>
        <pt x="317" y="219" on="0"/>
        <pt x="317" y="180" on="1"/>
        <pt x="341" y="331" on="0"/>
        <pt x="387" y="492" on="1"/>
      </contour>
    </TTGlyph>
    <TTGlyph name="Wacute" xMin="2" yMin="0" xMax="1227" yMax="1907">
      <component glyphName="W" x="0" y="0" flags="0x204"/>
      <component glyphName="acute" x="82" y="338" flags="0x4"/>
    </TTGlyph>
    <TTGlyph name="Wcircumflex" xMin="2" yMin="0" xMax="1227" yMax="1907">
      <component glyphName="W" x="0" y="0" flags="0x204"/>
      <component glyphName="circumflex" x="2" y="338" flags="0x4"/>
    </TTGlyph>
    <TTGlyph name="Wdieresis" xMin="2" yMin="0" xMax="1227" yMax="1835">
      <component glyphName="W" x="0" y="0" flags="0x204"/>
      <component glyphName="dieresis" x="4" y="338" flags="0x4"/>
    </TTGlyph>
    <TTGlyph name="Wgrave" xMin="2" yMin="0" xMax="1227" yMax="1907">
      <component glyphName="W" x="0" y="0" flags="0x204"/>
      <component glyphName="grave" x="-81" y="338" flags="0x4"/>
    </TTGlyph>
    <TTGlyph name="X" xMin="53" yMin="0" xMax="1174" yMax="1462">
      <contour>
        <pt x="1174" y="0" on="1"/>
        <pt x="963" y="0" on="1"/>
        <pt x="608" y="635" on="1"/>
        <pt x="242" y="0" on="1"/>
        <pt x="53" y="0" on="1"/>
        <pt x="506" y="764" on="1"/>
        <pt x="84" y="1462" on="1"/>
        <pt x="283" y="1462" on="1"/>
        <pt x="614" y="903" on="1"/>
        <pt x="948" y="1462" on="1"/>
        <pt x="1139" y="1462" on="1"/>
        <pt x="717" y="770" on="1"/>
      </contour>
    </TTGlyph>
    <TTGlyph name="Xi" xMin="111" yMin="0" xMax="1116" yMax="1462">
      <contour>
        <pt x="152" y="1462" on="1"/>
        <pt x="1075" y="1462" on="1"/>
        <pt x="1075" y="1298" on="1"/>
        <pt x="152" y="1298" on="1"/>
      </contour>
      <contour>
        <pt x="233" y="846" on="1"/>
        <pt x="993" y="846" on="1"/>
        <pt x="993" y="684" on="1"/>
        <pt x="233" y="684" on="1"/>
      </contour>
      <contour>
        <pt x="1116" y="164" on="1"/>
        <pt x="1116" y="0" on="1"/>
        <pt x="111" y="0" on="1"/>
        <pt x="111" y="164" on="1"/>
      </contour>
    </TTGlyph>
    <TTGlyph name="Y" xMin="33" yMin="0" xMax="1194" yMax="1462">
      <contour>
        <pt x="612" y="723" on="1"/>
        <pt x="993" y="1462" on="1"/>
        <pt x="1194" y="1462" on="1"/>
        <pt x="707" y="569" on="1"/>
        <pt x="707" y="0" on="1"/>
        <pt x="520" y="0" on="1"/>
        <pt x="520" y="559" on="1"/>
        <pt x="33" y="1462" on="1"/>
        <pt x="236" y="1462" on="1"/>
      </contour>
    </TTGlyph>
    <TTGlyph name="Yacute" xMin="33" yMin="0" xMax="1194" yMax="1907">
      <component glyphName="Y" x="0" y="0" flags="0x204"/>
      <component glyphName="acute" x="76" y="338" flags="0x4"/>
    </TTGlyph>
    <TTGlyph name="Ycircumflex" xMin="33" yMin="0" xMax="1194" yMax="1907">
      <component glyphName="Y" x="0" y="0" flags="0x204"/>
      <component glyphName="circumflex" x="-1" y="338" flags="0x4"/>
    </TTGlyph>
    <TTGlyph name="Ydieresis" xMin="33" yMin="0" xMax="1194" yMax="1835">
      <component glyphName="Y" x="0" y="0" flags="0x204"/>
      <component glyphName="dieresis" x="2" y="338" flags="0x4"/>
    </TTGlyph>
    <TTGlyph name="Ygrave" xMin="33" yMin="0" xMax="1194" yMax="1907">
      <component glyphName="Y" x="0" y="0" flags="0x204"/>
      <component glyphName="grave" x="-114" y="338" flags="0x4"/>
    </TTGlyph>
    <TTGlyph name="Z" xMin="102" yMin="0" xMax="1124" yMax="1462">
      <contour>
        <pt x="1124" y="0" on="1"/>
        <pt x="102" y="0" on="1"/>
        <pt x="102" y="145" on="1"/>
        <pt x="895" y="1296" on="1"/>
        <pt x="123" y="1296" on="1"/>
        <pt x="123" y="1462" on="1"/>
        <pt x="1104" y="1462" on="1"/>
        <pt x="1104" y="1317" on="1"/>
        <pt x="311" y="166" on="1"/>
        <pt x="1124" y="166" on="1"/>
      </contour>
    </TTGlyph>
    <TTGlyph name="Zacute" xMin="102" yMin="0" xMax="1124" yMax="1907">
      <component glyphName="Z" x="0" y="0" flags="0x204"/>
      <component glyphName="acute" x="57" y="338" flags="0x4"/>
    </TTGlyph>
    <TTGlyph name="Zcaron" xMin="102" yMin="0" xMax="1124" yMax="1907">
      <component glyphName="Z" x="0" y="0" flags="0x204"/>
      <component glyphName="caron" x="-1" y="338" flags="0x4"/>
    </TTGlyph>
    <TTGlyph name="Zdotaccent" xMin="102" yMin="0" xMax="1124" yMax="1847">
      <component glyphName="Z" x="0" y="0" flags="0x204"/>
      <component glyphName="dotaccent" x="16" y="338" flags="0x4"/>
    </TTGlyph>
    <TTGlyph name="Zeta" xMin="102" yMin="0" xMax="1124" yMax="1462">
      <component glyphName="Z" x="0" y="0" flags="0x204"/>
    </TTGlyph>
    <TTGlyph name="a" xMin="135" yMin="-20" xMax="1026" yMax="1118">
      <contour>
        <pt x="895" y="0" on="1"/>
        <pt x="858" y="152" on="1"/>
        <pt x="850" y="152" on="1"/>
        <pt x="773" y="55" on="0"/>
        <pt x="611" y="-20" on="0"/>
        <pt x="483" y="-20" on="1"/>
        <pt x="320" y="-20" on="0"/>
        <pt x="135" y="152" on="0"/>
        <pt x="135" y="307" on="1"/>
        <pt x="135" y="639" on="0"/>
        <pt x="645" y="655" on="1"/>
        <pt x="848" y="662" on="1"/>
        <pt x="848" y="731" on="1"/>
        <pt x="848" y="967" on="0"/>
        <pt x="604" y="967" on="1"/>
        <pt x="457" y="967" on="0"/>
        <pt x="276" y="885" on="1"/>
        <pt x="213" y="1022" on="1"/>
        <pt x="409" y="1118" on="0"/>
        <pt x="596" y="1118" on="1"/>
        <pt x="823" y="1118" on="0"/>
        <pt x="1026" y="944" on="0"/>
        <pt x="1026" y="752" on="1"/>
        <pt x="1026" y="0" on="1"/>
      </contour>
      <contour>
        <pt x="846" y="537" on="1"/>
        <pt x="684" y="530" on="1"/>
        <pt x="488" y="522" on="0"/>
        <pt x="324" y="415" on="0"/>
        <pt x="324" y="305" on="1"/>
        <pt x="324" y="127" on="0"/>
        <pt x="524" y="127" on="1"/>
        <pt x="671" y="127" on="0"/>
        <pt x="846" y="290" on="0"/>
        <pt x="846" y="438" on="1"/>
      </contour>
    </TTGlyph>
    <TTGlyph name="aacute" xMin="135" yMin="-20" xMax="1026" yMax="1569">
      <component glyphName="a" x="0" y="0" flags="0x204"/>
      <component glyphName="acute" x="84" y="0" flags="0x4"/>
    </TTGlyph>
    <TTGlyph name="abreve" xMin="135" yMin="-20" xMax="1026" yMax="1518">
      <component glyphName="a" x="0" y="0" flags="0x204"/>
      <component glyphName="breve" x="-11" y="0" flags="0x4"/>
    </TTGlyph>
    <TTGlyph name="acircumflex" xMin="135" yMin="-20" xMax="1026" yMax="1569">
      <component glyphName="a" x="0" y="0" flags="0x204"/>
      <component glyphName="circumflex" x="8" y="0" flags="0x4"/>
    </TTGlyph>
    <TTGlyph name="acute" xMin="418" yMin="1241" xMax="811" yMax="1569">
      <contour>
        <pt x="418" y="1268" on="1"/>
        <pt x="512" y="1401" on="0"/>
        <pt x="592" y="1569" on="1"/>
        <pt x="811" y="1569" on="1"/>
        <pt x="811" y="1548" on="1"/>
        <pt x="699" y="1375" on="0"/>
        <pt x="539" y="1241" on="1"/>
        <pt x="418" y="1241" on="1"/>
      </contour>
    </TTGlyph>
    <TTGlyph name="adieresis" xMin="135" yMin="-20" xMax="1026" yMax="1497">
      <component glyphName="a" x="0" y="0" flags="0x204"/>
      <component glyphName="dieresis" x="12" y="0" flags="0x4"/>
    </TTGlyph>
    <TTGlyph name="ae" xMin="45" yMin="-20" xMax="1186" yMax="1118">
      <contour>
        <pt x="522" y="662" on="1"/>
        <pt x="522" y="731" on="1"/>
        <pt x="522" y="967" on="0"/>
        <pt x="383" y="967" on="1"/>
        <pt x="276" y="967" on="0"/>
        <pt x="172" y="885" on="1"/>
        <pt x="115" y="1022" on="1"/>
        <pt x="246" y="1118" on="0"/>
        <pt x="391" y="1118" on="1"/>
        <pt x="579" y="1118" on="0"/>
        <pt x="637" y="940" on="1"/>
        <pt x="715" y="1118" on="0"/>
        <pt x="877" y="1118" on="1"/>
        <pt x="1014" y="1118" on="0"/>
        <pt x="1186" y="847" on="0"/>
        <pt x="1186" y="627" on="1"/>
        <pt x="1186" y="514" on="1"/>
        <pt x="690" y="514" on="1"/>
        <pt x="693" y="322" on="0"/>
        <pt x="821" y="139" on="0"/>
        <pt x="926" y="139" on="1"/>
        <pt x="1037" y="139" on="0"/>
        <pt x="1159" y="215" on="1"/>
        <pt x="1159" y="53" on="1"/>
        <pt x="1052" y="-20" on="0"/>
        <pt x="918" y="-20" on="1"/>
        <pt x="696" y="-20" on="0"/>
        <pt x="602" y="209" on="1"/>
        <pt x="497" y="-20" on="0"/>
        <pt x="301" y="-20" on="1"/>
        <pt x="186" y="-20" on="0"/>
        <pt x="45" y="153" on="0"/>
        <pt x="45" y="307" on="1"/>
        <pt x="45" y="639" on="0"/>
        <pt x="373" y="655" on="1"/>
      </contour>
      <contour>
        <pt x="694" y="662" on="1"/>
        <pt x="1010" y="662" on="1"/>
        <pt x="1010" y="803" on="0"/>
        <pt x="929" y="967" on="0"/>
        <pt x="858" y="967" on="1"/>
        <pt x="790" y="967" on="0"/>
        <pt x="700" y="811" on="0"/>
      </contour>
      <contour>
        <pt x="520" y="537" on="1"/>
        <pt x="432" y="530" on="1"/>
        <pt x="215" y="513" on="0"/>
        <pt x="215" y="305" on="1"/>
        <pt x="215" y="222" on="0"/>
        <pt x="279" y="127" on="0"/>
        <pt x="334" y="127" on="1"/>
        <pt x="416" y="127" on="0"/>
        <pt x="520" y="292" on="0"/>
        <pt x="520" y="438" on="1"/>
      </contour>
    </TTGlyph>
    <TTGlyph name="aeacute" xMin="45" yMin="-20" xMax="1186" yMax="1569">
      <component glyphName="ae" x="0" y="0" flags="0x204"/>
      <component glyphName="acute" x="113" y="0" flags="0x4"/>
    </TTGlyph>
    <TTGlyph name="afii00208" xMin="-6" yMin="465" xMax="1235" yMax="633">
      <contour>
        <pt x="-6" y="465" on="1"/>
        <pt x="-6" y="633" on="1"/>
        <pt x="1235" y="633" on="1"/>
        <pt x="1235" y="465" on="1"/>
      </contour>
    </TTGlyph>
    <TTGlyph name="afii08941" xMin="119" yMin="0" xMax="1110" yMax="1481">
      <contour>
        <pt x="1063" y="1401" on="1"/>
        <pt x="997" y="1257" on="1"/>
        <pt x="856" y="1329" on="0"/>
        <pt x="725" y="1329" on="1"/>
        <pt x="502" y="1329" on="0"/>
        <pt x="502" y="1083" on="1"/>
        <pt x="502" y="891" on="1"/>
        <pt x="879" y="891" on="1"/>
        <pt x="879" y="754" on="1"/>
        <pt x="502" y="754" on="1"/>
        <pt x="502" y="596" on="1"/>
        <pt x="879" y="596" on="1"/>
        <pt x="879" y="459" on="1"/>
        <pt x="502" y="459" on="1"/>
        <pt x="502" y="440" on="1"/>
        <pt x="502" y="244" on="0"/>
        <pt x="362" y="166" on="1"/>
        <pt x="1110" y="166" on="1"/>
        <pt x="1110" y="0" on="1"/>
        <pt x="119" y="0" on="1"/>
        <pt x="119" y="154" on="1"/>
        <pt x="319" y="203" on="0"/>
        <pt x="319" y="438" on="1"/>
        <pt x="319" y="459" on="1"/>
        <pt x="121" y="459" on="1"/>
        <pt x="121" y="596" on="1"/>
        <pt x="319" y="596" on="1"/>
        <pt x="319" y="754" on="1"/>
        <pt x="121" y="754" on="1"/>
        <pt x="121" y="891" on="1"/>
        <pt x="319" y="891" on="1"/>
        <pt x="319" y="1112" on="1"/>
        <pt x="319" y="1280" on="0"/>
        <pt x="536" y="1481" on="0"/>
        <pt x="717" y="1481" on="1"/>
        <pt x="909" y="1481" on="0"/>
      </contour>
    </TTGlyph>
    <TTGlyph name="afii10017" xMin="33" yMin="0" xMax="1196" yMax="1468">
      <component glyphName="A" x="0" y="0" flags="0x204"/>
    </TTGlyph>
    <TTGlyph name="afii10018" xMin="135" yMin="0" xMax="1135" yMax="1462">
      <contour>
        <pt x="135" y="0" on="1"/>
        <pt x="135" y="1462" on="1"/>
        <pt x="1047" y="1462" on="1"/>
        <pt x="1047" y="1298" on="1"/>
        <pt x="322" y="1298" on="1"/>
        <pt x="322" y="846" on="1"/>
        <pt x="594" y="846" on="1"/>
        <pt x="1135" y="846" on="0"/>
        <pt x="1135" y="428" on="1"/>
        <pt x="1135" y="220" on="0"/>
        <pt x="872" y="0" on="0"/>
        <pt x="621" y="0" on="1"/>
      </contour>
      <contour>
        <pt x="322" y="160" on="1"/>
        <pt x="604" y="160" on="1"/>
        <pt x="942" y="160" on="0"/>
        <pt x="942" y="428" on="1"/>
        <pt x="942" y="561" on="0"/>
        <pt x="771" y="682" on="0"/>
        <pt x="573" y="682" on="1"/>
        <pt x="322" y="682" on="1"/>
      </contour>
    </TTGlyph>
    <TTGlyph name="afii10019" xMin="135" yMin="0" xMax="1137" yMax="1462">
      <component glyphName="B" x="0" y="0" flags="0x204"/>
    </TTGlyph>
    <TTGlyph name="afii10020" xMin="246" yMin="0" xMax="1071" yMax="1462">
      <component glyphName="Gamma" x="0" y="0" flags="0x204"/>
    </TTGlyph>
    <TTGlyph name="afii10021" xMin="6" yMin="-385" xMax="1221" yMax="1462">
      <contour>
        <pt x="1221" y="-385" on="1"/>
        <pt x="1044" y="-385" on="1"/>
        <pt x="1044" y="0" on="1"/>
        <pt x="182" y="0" on="1"/>
        <pt x="182" y="-385" on="1"/>
        <pt x="6" y="-385" on="1"/>
        <pt x="6" y="166" on="1"/>
        <pt x="119" y="166" on="1"/>
        <pt x="248" y="402" on="0"/>
        <pt x="422" y="1118" on="0"/>
        <pt x="434" y="1462" on="1"/>
        <pt x="1026" y="1462" on="1"/>
        <pt x="1026" y="166" on="1"/>
        <pt x="1221" y="166" on="1"/>
      </contour>
      <contour>
        <pt x="840" y="166" on="1"/>
        <pt x="840" y="1296" on="1"/>
        <pt x="598" y="1296" on="1"/>
        <pt x="581" y="1030" on="0"/>
        <pt x="418" y="369" on="0"/>
        <pt x="311" y="166" on="1"/>
      </contour>
    </TTGlyph>
    <TTGlyph name="afii10022" xMin="217" yMin="0" xMax="1059" yMax="1462">
      <component glyphName="E" x="0" y="0" flags="0x204"/>
    </TTGlyph>
    <TTGlyph name="afii10023" xMin="217" yMin="0" xMax="1059" yMax="1835">
      <component glyphName="E" x="0" y="0" flags="0x204"/>
      <component glyphName="dieresis" x="25" y="338" flags="0x4"/>
    </TTGlyph>
    <TTGlyph name="afii10024" xMin="0" yMin="0" xMax="1229" yMax="1462">
      <contour>
        <pt x="373" y="754" on="1"/>
        <pt x="12" y="1462" on="1"/>
        <pt x="190" y="1462" on="1"/>
        <pt x="539" y="754" on="1"/>
        <pt x="539" y="1462" on="1"/>
        <pt x="694" y="1462" on="1"/>
        <pt x="694" y="754" on="1"/>
        <pt x="1036" y="1462" on="1"/>
        <pt x="1214" y="1462" on="1"/>
        <pt x="858" y="754" on="1"/>
        <pt x="1229" y="0" on="1"/>
        <pt x="1044" y="0" on="1"/>
        <pt x="694" y="741" on="1"/>
        <pt x="694" y="0" on="1"/>
        <pt x="539" y="0" on="1"/>
        <pt x="539" y="741" on="1"/>
        <pt x="182" y="0" on="1"/>
        <pt x="0" y="0" on="1"/>
      </contour>
    </TTGlyph>
    <TTGlyph name="afii10025" xMin="139" yMin="-20" xMax="1071" yMax="1483">
      <contour>
        <pt x="702" y="770" on="1"/>
        <pt x="702" y="764" on="1"/>
        <pt x="880" y="741" on="0"/>
        <pt x="1071" y="559" on="0"/>
        <pt x="1071" y="416" on="1"/>
        <pt x="1071" y="213" on="0"/>
        <pt x="787" y="-20" on="0"/>
        <pt x="526" y="-20" on="1"/>
        <pt x="284" y="-20" on="0"/>
        <pt x="139" y="59" on="1"/>
        <pt x="139" y="229" on="1"/>
        <pt x="323" y="133" on="0"/>
        <pt x="522" y="133" on="1"/>
        <pt x="877" y="133" on="0"/>
        <pt x="877" y="416" on="1"/>
        <pt x="877" y="680" on="0"/>
        <pt x="483" y="680" on="1"/>
        <pt x="293" y="680" on="1"/>
        <pt x="293" y="831" on="1"/>
        <pt x="469" y="831" on="1"/>
        <pt x="649" y="831" on="0"/>
        <pt x="850" y="979" on="0"/>
        <pt x="850" y="1104" on="1"/>
        <pt x="850" y="1207" on="0"/>
        <pt x="710" y="1329" on="0"/>
        <pt x="592" y="1329" on="1"/>
        <pt x="406" y="1329" on="0"/>
        <pt x="238" y="1208" on="1"/>
        <pt x="145" y="1333" on="1"/>
        <pt x="339" y="1483" on="0"/>
        <pt x="600" y="1483" on="1"/>
        <pt x="809" y="1483" on="0"/>
        <pt x="1044" y="1285" on="0"/>
        <pt x="1044" y="1120" on="1"/>
        <pt x="1044" y="983" on="0"/>
        <pt x="865" y="797" on="0"/>
      </contour>
    </TTGlyph>
    <TTGlyph name="afii10026" xMin="137" yMin="0" xMax="1094" yMax="1462">
      <contour>
        <pt x="137" y="1462" on="1"/>
        <pt x="311" y="1462" on="1"/>
        <pt x="311" y="662" on="1"/>
        <pt x="311" y="520" on="0"/>
        <pt x="304" y="408" on="1"/>
        <pt x="297" y="258" on="1"/>
        <pt x="303" y="258" on="1"/>
        <pt x="881" y="1462" on="1"/>
        <pt x="1094" y="1462" on="1"/>
        <pt x="1094" y="0" on="1"/>
        <pt x="922" y="0" on="1"/>
        <pt x="922" y="793" on="1"/>
        <pt x="922" y="933" on="0"/>
        <pt x="940" y="1210" on="1"/>
        <pt x="932" y="1210" on="1"/>
        <pt x="352" y="0" on="1"/>
        <pt x="137" y="0" on="1"/>
      </contour>
    </TTGlyph>
    <TTGlyph name="afii10027" xMin="137" yMin="0" xMax="1094" yMax="1897">
      <component glyphName="afii10026" x="0" y="0" flags="0x204"/>
      <component glyphName="cyrillicbreve" x="0" y="338" flags="0x4"/>
    </TTGlyph>
    <TTGlyph name="afii10028" xMin="211" yMin="0" xMax="1198" yMax="1462">
      <contour>
        <pt x="1198" y="0" on="1"/>
        <pt x="979" y="0" on="1"/>
        <pt x="397" y="741" on="1"/>
        <pt x="397" y="0" on="1"/>
        <pt x="211" y="0" on="1"/>
        <pt x="211" y="1462" on="1"/>
        <pt x="397" y="1462" on="1"/>
        <pt x="397" y="754" on="1"/>
        <pt x="963" y="1462" on="1"/>
        <pt x="1169" y="1462" on="1"/>
        <pt x="604" y="760" on="1"/>
      </contour>
    </TTGlyph>
    <TTGlyph name="afii10029" xMin="4" yMin="-23" xMax="1094" yMax="1462">
      <contour>
        <pt x="1094" y="0" on="1"/>
        <pt x="907" y="0" on="1"/>
        <pt x="907" y="1298" on="1"/>
        <pt x="610" y="1298" on="1"/>
        <pt x="493" y="321" on="0"/>
        <pt x="316" y="-23" on="0"/>
        <pt x="141" y="-23" on="1"/>
        <pt x="70" y="-23" on="0"/>
        <pt x="4" y="2" on="1"/>
        <pt x="4" y="152" on="1"/>
        <pt x="61" y="127" on="0"/>
        <pt x="117" y="127" on="1"/>
        <pt x="219" y="127" on="0"/>
        <pt x="329" y="488" on="0"/>
        <pt x="455" y="1462" on="1"/>
        <pt x="1094" y="1462" on="1"/>
      </contour>
    </TTGlyph>
    <TTGlyph name="afii10030" xMin="113" yMin="0" xMax="1116" yMax="1462">
      <component glyphName="M" x="0" y="0" flags="0x204"/>
    </TTGlyph>
    <TTGlyph name="afii10031" xMin="135" yMin="0" xMax="1094" yMax="1462">
      <component glyphName="H" x="0" y="0" flags="0x204"/>
    </TTGlyph>
    <TTGlyph name="afii10032" xMin="84" yMin="-20" xMax="1147" yMax="1485">
      <component glyphName="O" x="0" y="0" flags="0x204"/>
    </TTGlyph>
    <TTGlyph name="afii10033" xMin="135" yMin="0" xMax="1094" yMax="1462">
      <component glyphName="Pi" x="0" y="0" flags="0x204"/>
    </TTGlyph>
    <TTGlyph name="afii10034" xMin="176" yMin="0" xMax="1094" yMax="1462">
      <component glyphName="P" x="0" y="0" flags="0x204"/>
    </TTGlyph>
    <TTGlyph name="afii10035" xMin="129" yMin="-20" xMax="1180" yMax="1483">
      <component glyphName="C" x="0" y="0" flags="0x204"/>
    </TTGlyph>
    <TTGlyph name="afii10036" xMin="102" yMin="0" xMax="1124" yMax="1462">
      <component glyphName="T" x="0" y="0" flags="0x204"/>
    </TTGlyph>
    <TTGlyph name="afii10037" xMin="27" yMin="-20" xMax="1200" yMax="1462">
      <contour>
        <pt x="1200" y="1462" on="1"/>
        <pt x="772" y="432" on="1"/>
        <pt x="696" y="249" on="0"/>
        <pt x="576" y="78" on="0"/>
        <pt x="398" y="-20" on="0"/>
        <pt x="272" y="-20" on="1"/>
        <pt x="168" y="-20" on="0"/>
        <pt x="94" y="10" on="1"/>
        <pt x="94" y="195" on="1"/>
        <pt x="179" y="150" on="0"/>
        <pt x="272" y="150" on="1"/>
        <pt x="382" y="150" on="0"/>
        <pt x="503" y="253" on="0"/>
        <pt x="557" y="375" on="1"/>
        <pt x="27" y="1462" on="1"/>
        <pt x="231" y="1462" on="1"/>
        <pt x="614" y="653" on="1"/>
        <pt x="626" y="628" on="0"/>
        <pt x="634" y="606" on="1"/>
        <pt x="642" y="581" on="0"/>
        <pt x="651" y="561" on="1"/>
        <pt x="653" y="561" on="1"/>
        <pt x="692" y="670" on="1"/>
        <pt x="1004" y="1462" on="1"/>
      </contour>
    </TTGlyph>
    <TTGlyph name="afii10038" xMin="27" yMin="-20" xMax="1204" yMax="1483">
      <component glyphName="Phi" x="0" y="0" flags="0x204"/>
    </TTGlyph>
    <TTGlyph name="afii10039" xMin="53" yMin="0" xMax="1174" yMax="1462">
      <component glyphName="X" x="0" y="0" flags="0x204"/>
    </TTGlyph>
    <TTGlyph name="afii10040" xMin="135" yMin="-385" xMax="1210" yMax="1462">
      <contour>
        <pt x="1034" y="166" on="1"/>
        <pt x="1210" y="166" on="1"/>
        <pt x="1210" y="-385" on="1"/>
        <pt x="1034" y="-385" on="1"/>
        <pt x="1034" y="0" on="1"/>
        <pt x="135" y="0" on="1"/>
        <pt x="135" y="1462" on="1"/>
        <pt x="322" y="1462" on="1"/>
        <pt x="322" y="166" on="1"/>
        <pt x="848" y="166" on="1"/>
        <pt x="848" y="1462" on="1"/>
        <pt x="1034" y="1462" on="1"/>
      </contour>
    </TTGlyph>
    <TTGlyph name="afii10041" xMin="135" yMin="0" xMax="1094" yMax="1462">
      <contour>
        <pt x="1094" y="0" on="1"/>
        <pt x="907" y="0" on="1"/>
        <pt x="907" y="598" on="1"/>
        <pt x="680" y="508" on="0"/>
        <pt x="514" y="508" on="1"/>
        <pt x="135" y="508" on="0"/>
        <pt x="135" y="879" on="1"/>
        <pt x="135" y="1462" on="1"/>
        <pt x="322" y="1462" on="1"/>
        <pt x="322" y="903" on="1"/>
        <pt x="322" y="773" on="0"/>
        <pt x="425" y="672" on="0"/>
        <pt x="535" y="672" on="1"/>
        <pt x="688" y="672" on="0"/>
        <pt x="907" y="752" on="1"/>
        <pt x="907" y="1462" on="1"/>
        <pt x="1094" y="1462" on="1"/>
      </contour>
    </TTGlyph>
    <TTGlyph name="afii10042" xMin="121" yMin="0" xMax="1110" yMax="1462">
      <contour>
        <pt x="1110" y="0" on="1"/>
        <pt x="121" y="0" on="1"/>
        <pt x="121" y="1462" on="1"/>
        <pt x="287" y="1462" on="1"/>
        <pt x="287" y="166" on="1"/>
        <pt x="532" y="166" on="1"/>
        <pt x="532" y="1462" on="1"/>
        <pt x="698" y="1462" on="1"/>
        <pt x="698" y="166" on="1"/>
        <pt x="944" y="166" on="1"/>
        <pt x="944" y="1462" on="1"/>
        <pt x="1110" y="1462" on="1"/>
      </contour>
    </TTGlyph>
    <TTGlyph name="afii10043" xMin="61" yMin="-385" xMax="1229" yMax="1462">
      <contour>
        <pt x="1051" y="166" on="1"/>
        <pt x="1229" y="166" on="1"/>
        <pt x="1229" y="-385" on="1"/>
        <pt x="1053" y="-385" on="1"/>
        <pt x="1053" y="0" on="1"/>
        <pt x="61" y="0" on="1"/>
        <pt x="61" y="1462" on="1"/>
        <pt x="227" y="1462" on="1"/>
        <pt x="227" y="166" on="1"/>
        <pt x="473" y="166" on="1"/>
        <pt x="473" y="1462" on="1"/>
        <pt x="639" y="1462" on="1"/>
        <pt x="639" y="166" on="1"/>
        <pt x="885" y="166" on="1"/>
        <pt x="885" y="1462" on="1"/>
        <pt x="1051" y="1462" on="1"/>
      </contour>
    </TTGlyph>
    <TTGlyph name="afii10044" xMin="27" yMin="0" xMax="1141" yMax="1462">
      <contour>
        <pt x="326" y="0" on="1"/>
        <pt x="326" y="1298" on="1"/>
        <pt x="27" y="1298" on="1"/>
        <pt x="27" y="1462" on="1"/>
        <pt x="512" y="1462" on="1"/>
        <pt x="512" y="846" on="1"/>
        <pt x="580" y="846" on="1"/>
        <pt x="850" y="846" on="0"/>
        <pt x="1141" y="628" on="0"/>
        <pt x="1141" y="428" on="1"/>
        <pt x="1141" y="226" on="0"/>
        <pt x="864" y="0" on="0"/>
        <pt x="606" y="0" on="1"/>
      </contour>
      <contour>
        <pt x="512" y="160" on="1"/>
        <pt x="610" y="160" on="1"/>
        <pt x="948" y="160" on="0"/>
        <pt x="948" y="428" on="1"/>
        <pt x="948" y="560" on="0"/>
        <pt x="777" y="682" on="0"/>
        <pt x="580" y="682" on="1"/>
        <pt x="512" y="682" on="1"/>
      </contour>
    </TTGlyph>
    <TTGlyph name="afii10045" xMin="96" yMin="0" xMax="1133" yMax="1462">
      <contour>
        <pt x="96" y="0" on="1"/>
        <pt x="96" y="1462" on="1"/>
        <pt x="262" y="1462" on="1"/>
        <pt x="262" y="846" on="1"/>
        <pt x="309" y="846" on="1"/>
        <pt x="850" y="846" on="0"/>
        <pt x="850" y="428" on="1"/>
        <pt x="850" y="220" on="0"/>
        <pt x="587" y="0" on="0"/>
        <pt x="336" y="0" on="1"/>
      </contour>
      <contour>
        <pt x="262" y="160" on="1"/>
        <pt x="340" y="160" on="1"/>
        <pt x="678" y="160" on="0"/>
        <pt x="678" y="428" on="1"/>
        <pt x="678" y="561" on="0"/>
        <pt x="507" y="682" on="0"/>
        <pt x="309" y="682" on="1"/>
        <pt x="262" y="682" on="1"/>
      </contour>
      <contour>
        <pt x="967" y="0" on="1"/>
        <pt x="967" y="1462" on="1"/>
        <pt x="1133" y="1462" on="1"/>
        <pt x="1133" y="0" on="1"/>
      </contour>
    </TTGlyph>
    <TTGlyph name="afii10046" xMin="176" yMin="0" xMax="1094" yMax="1462">
      <contour>
        <pt x="176" y="0" on="1"/>
        <pt x="176" y="1462" on="1"/>
        <pt x="362" y="1462" on="1"/>
        <pt x="362" y="846" on="1"/>
        <pt x="553" y="846" on="1"/>
        <pt x="1094" y="846" on="0"/>
        <pt x="1094" y="428" on="1"/>
        <pt x="1094" y="220" on="0"/>
        <pt x="831" y="0" on="0"/>
        <pt x="580" y="0" on="1"/>
      </contour>
      <contour>
        <pt x="362" y="160" on="1"/>
        <pt x="563" y="160" on="1"/>
        <pt x="901" y="160" on="0"/>
        <pt x="901" y="428" on="1"/>
        <pt x="901" y="561" on="0"/>
        <pt x="730" y="682" on="0"/>
        <pt x="532" y="682" on="1"/>
        <pt x="362" y="682" on="1"/>
      </contour>
    </TTGlyph>
    <TTGlyph name="afii10047" xMin="68" yMin="-20" xMax="1100" yMax="1483">
      <contour>
        <pt x="145" y="1241" on="1"/>
        <pt x="68" y="1397" on="1"/>
        <pt x="229" y="1483" on="0"/>
        <pt x="451" y="1483" on="1"/>
        <pt x="755" y="1483" on="0"/>
        <pt x="1100" y="1094" on="0"/>
        <pt x="1100" y="758" on="1"/>
        <pt x="1100" y="385" on="0"/>
        <pt x="758" y="-20" on="0"/>
        <pt x="442" y="-20" on="1"/>
        <pt x="230" y="-20" on="0"/>
        <pt x="84" y="39" on="1"/>
        <pt x="84" y="201" on="1"/>
        <pt x="281" y="143" on="0"/>
        <pt x="412" y="143" on="1"/>
        <pt x="885" y="143" on="0"/>
        <pt x="901" y="684" on="1"/>
        <pt x="272" y="684" on="1"/>
        <pt x="272" y="846" on="1"/>
        <pt x="897" y="846" on="1"/>
        <pt x="878" y="1068" on="0"/>
        <pt x="641" y="1319" on="0"/>
        <pt x="451" y="1319" on="1"/>
        <pt x="299" y="1319" on="0"/>
      </contour>
    </TTGlyph>
    <TTGlyph name="afii10048" xMin="98" yMin="-20" xMax="1159" yMax="1485">
      <contour>
        <pt x="403" y="682" on="1"/>
        <pt x="264" y="682" on="1"/>
        <pt x="264" y="0" on="1"/>
        <pt x="98" y="0" on="1"/>
        <pt x="98" y="1462" on="1"/>
        <pt x="264" y="1462" on="1"/>
        <pt x="264" y="846" on="1"/>
        <pt x="408" y="846" on="1"/>
        <pt x="426" y="1195" on="0"/>
        <pt x="601" y="1485" on="0"/>
        <pt x="784" y="1485" on="1"/>
        <pt x="976" y="1485" on="0"/>
        <pt x="1159" y="1132" on="0"/>
        <pt x="1159" y="733" on="1"/>
        <pt x="1159" y="336" on="0"/>
        <pt x="975" y="-20" on="0"/>
        <pt x="782" y="-20" on="1"/>
        <pt x="592" y="-20" on="0"/>
        <pt x="413" y="295" on="0"/>
      </contour>
      <contour>
        <pt x="782" y="143" on="1"/>
        <pt x="888" y="143" on="0"/>
        <pt x="983" y="376" on="0"/>
        <pt x="983" y="733" on="1"/>
        <pt x="983" y="1093" on="0"/>
        <pt x="887" y="1321" on="0"/>
        <pt x="782" y="1321" on="1"/>
        <pt x="674" y="1321" on="0"/>
        <pt x="580" y="1084" on="0"/>
        <pt x="580" y="733" on="1"/>
        <pt x="580" y="385" on="0"/>
        <pt x="673" y="143" on="0"/>
      </contour>
    </TTGlyph>
    <TTGlyph name="afii10049" xMin="57" yMin="0" xMax="1042" yMax="1462">
      <contour>
        <pt x="610" y="604" on="1"/>
        <pt x="276" y="0" on="1"/>
        <pt x="57" y="0" on="1"/>
        <pt x="438" y="655" on="1"/>
        <pt x="166" y="753" on="0"/>
        <pt x="166" y="1063" on="1"/>
        <pt x="166" y="1462" on="0"/>
        <pt x="670" y="1462" on="1"/>
        <pt x="1042" y="1462" on="1"/>
        <pt x="1042" y="0" on="1"/>
        <pt x="856" y="0" on="1"/>
        <pt x="856" y="604" on="1"/>
      </contour>
      <contour>
        <pt x="856" y="1303" on="1"/>
        <pt x="668" y="1303" on="1"/>
        <pt x="358" y="1303" on="0"/>
        <pt x="358" y="1047" on="1"/>
        <pt x="358" y="910" on="0"/>
        <pt x="522" y="762" on="0"/>
        <pt x="676" y="762" on="1"/>
        <pt x="856" y="762" on="1"/>
      </contour>
    </TTGlyph>
    <TTGlyph name="afii10050" xMin="246" yMin="0" xMax="1059" yMax="1763">
      <contour>
        <pt x="883" y="1462" on="1"/>
        <pt x="883" y="1763" on="1"/>
        <pt x="1059" y="1763" on="1"/>
        <pt x="1059" y="1296" on="1"/>
        <pt x="432" y="1296" on="1"/>
        <pt x="432" y="0" on="1"/>
        <pt x="246" y="0" on="1"/>
        <pt x="246" y="1462" on="1"/>
      </contour>
    </TTGlyph>
    <TTGlyph name="afii10051" xMin="23" yMin="-20" xMax="1165" yMax="1462">
      <contour>
        <pt x="664" y="4" on="1"/>
        <pt x="664" y="164" on="1"/>
        <pt x="732" y="143" on="0"/>
        <pt x="799" y="143" on="1"/>
        <pt x="979" y="143" on="0"/>
        <pt x="979" y="369" on="1"/>
        <pt x="979" y="502" on="1"/>
        <pt x="979" y="733" on="0"/>
        <pt x="752" y="733" on="1"/>
        <pt x="508" y="733" on="1"/>
        <pt x="508" y="0" on="1"/>
        <pt x="322" y="0" on="1"/>
        <pt x="322" y="1298" on="1"/>
        <pt x="23" y="1298" on="1"/>
        <pt x="23" y="1462" on="1"/>
        <pt x="864" y="1462" on="1"/>
        <pt x="864" y="1298" on="1"/>
        <pt x="508" y="1298" on="1"/>
        <pt x="508" y="897" on="1"/>
        <pt x="772" y="897" on="1"/>
        <pt x="959" y="897" on="0"/>
        <pt x="1165" y="704" on="0"/>
        <pt x="1165" y="526" on="1"/>
        <pt x="1165" y="389" on="1"/>
        <pt x="1165" y="193" on="0"/>
        <pt x="976" y="-20" on="0"/>
        <pt x="805" y="-20" on="1"/>
        <pt x="717" y="-20" on="0"/>
      </contour>
    </TTGlyph>
    <TTGlyph name="afii10052" xMin="246" yMin="0" xMax="1071" yMax="1907">
      <component glyphName="Gamma" x="0" y="0" flags="0x204"/>
      <component glyphName="acute" x="109" y="338" flags="0x4"/>
    </TTGlyph>
    <TTGlyph name="afii10053" xMin="129" yMin="-20" xMax="1180" yMax="1483">
      <contour>
        <pt x="332" y="846" on="1"/>
        <pt x="961" y="846" on="1"/>
        <pt x="961" y="684" on="1"/>
        <pt x="326" y="684" on="1"/>
        <pt x="349" y="143" on="0"/>
        <pt x="797" y="143" on="1"/>
        <pt x="927" y="143" on="0"/>
        <pt x="1124" y="201" on="1"/>
        <pt x="1124" y="39" on="1"/>
        <pt x="978" y="-20" on="0"/>
        <pt x="766" y="-20" on="1"/>
        <pt x="457" y="-20" on="0"/>
        <pt x="129" y="372" on="0"/>
        <pt x="129" y="733" on="1"/>
        <pt x="129" y="1079" on="0"/>
        <pt x="487" y="1483" on="0"/>
        <pt x="797" y="1483" on="1"/>
        <pt x="1017" y="1483" on="0"/>
        <pt x="1180" y="1397" on="1"/>
        <pt x="1102" y="1241" on="1"/>
        <pt x="948" y="1319" on="0"/>
        <pt x="797" y="1319" on="1"/>
        <pt x="609" y="1319" on="0"/>
        <pt x="359" y="1070" on="0"/>
      </contour>
    </TTGlyph>
    <TTGlyph name="afii10054" xMin="141" yMin="-20" xMax="1087" yMax="1483">
      <component glyphName="S" x="0" y="0" flags="0x204"/>
    </TTGlyph>
    <TTGlyph name="afii10055" xMin="225" yMin="0" xMax="1001" yMax="1462">
      <component glyphName="I" x="0" y="0" flags="0x204"/>
    </TTGlyph>
    <TTGlyph name="afii10056" xMin="225" yMin="0" xMax="1001" yMax="1835">
      <component glyphName="I" x="0" y="0" flags="0x204"/>
      <component glyphName="dieresis" x="2" y="338" flags="0x4"/>
    </TTGlyph>
    <TTGlyph name="afii10057" xMin="137" yMin="-20" xMax="979" yMax="1462">
      <component glyphName="J" x="0" y="0" flags="0x204"/>
    </TTGlyph>
    <TTGlyph name="afii10058" xMin="0" yMin="-20" xMax="1208" yMax="1462">
      <contour>
        <pt x="375" y="1298" on="1"/>
        <pt x="355" y="750" on="1"/>
        <pt x="335" y="177" on="0"/>
        <pt x="208" y="-20" on="0"/>
        <pt x="96" y="-20" on="1"/>
        <pt x="40" y="-20" on="0"/>
        <pt x="0" y="-2" on="1"/>
        <pt x="0" y="143" on="1"/>
        <pt x="32" y="129" on="0"/>
        <pt x="68" y="129" on="1"/>
        <pt x="103" y="129" on="0"/>
        <pt x="156" y="199" on="0"/>
        <pt x="181" y="383" on="0"/>
        <pt x="222" y="1248" on="0"/>
        <pt x="225" y="1462" on="1"/>
        <pt x="723" y="1462" on="1"/>
        <pt x="723" y="846" on="1"/>
        <pt x="762" y="846" on="1"/>
        <pt x="1208" y="846" on="0"/>
        <pt x="1208" y="428" on="1"/>
        <pt x="1208" y="220" on="0"/>
        <pt x="980" y="0" on="0"/>
        <pt x="764" y="0" on="1"/>
        <pt x="557" y="0" on="1"/>
        <pt x="557" y="1298" on="1"/>
      </contour>
      <contour>
        <pt x="723" y="160" on="1"/>
        <pt x="768" y="160" on="1"/>
        <pt x="1036" y="160" on="0"/>
        <pt x="1036" y="428" on="1"/>
        <pt x="1036" y="562" on="0"/>
        <pt x="898" y="682" on="0"/>
        <pt x="743" y="682" on="1"/>
        <pt x="723" y="682" on="1"/>
      </contour>
    </TTGlyph>
    <TTGlyph name="afii10059" xMin="66" yMin="0" xMax="1200" yMax="1462">
      <contour>
        <pt x="549" y="0" on="1"/>
        <pt x="549" y="682" on="1"/>
        <pt x="231" y="682" on="1"/>
        <pt x="231" y="0" on="1"/>
        <pt x="66" y="0" on="1"/>
        <pt x="66" y="1462" on="1"/>
        <pt x="231" y="1462" on="1"/>
        <pt x="231" y="846" on="1"/>
        <pt x="549" y="846" on="1"/>
        <pt x="549" y="1462" on="1"/>
        <pt x="715" y="1462" on="1"/>
        <pt x="715" y="846" on="1"/>
        <pt x="754" y="846" on="1"/>
        <pt x="973" y="846" on="0"/>
        <pt x="1200" y="631" on="0"/>
        <pt x="1200" y="428" on="1"/>
        <pt x="1200" y="220" on="0"/>
        <pt x="972" y="0" on="0"/>
        <pt x="756" y="0" on="1"/>
      </contour>
      <contour>
        <pt x="715" y="160" on="1"/>
        <pt x="760" y="160" on="1"/>
        <pt x="1028" y="160" on="0"/>
        <pt x="1028" y="428" on="1"/>
        <pt x="1028" y="562" on="0"/>
        <pt x="890" y="682" on="0"/>
        <pt x="735" y="682" on="1"/>
        <pt x="715" y="682" on="1"/>
      </contour>
    </TTGlyph>
    <TTGlyph name="afii10060" xMin="23" yMin="0" xMax="1165" yMax="1462">
      <contour>
        <pt x="508" y="897" on="1"/>
        <pt x="772" y="897" on="1"/>
        <pt x="959" y="897" on="0"/>
        <pt x="1165" y="704" on="0"/>
        <pt x="1165" y="526" on="1"/>
        <pt x="1165" y="0" on="1"/>
        <pt x="979" y="0" on="1"/>
        <pt x="979" y="502" on="1"/>
        <pt x="979" y="733" on="0"/>
        <pt x="752" y="733" on="1"/>
        <pt x="508" y="733" on="1"/>
        <pt x="508" y="0" on="1"/>
        <pt x="322" y="0" on="1"/>
        <pt x="322" y="1298" on="1"/>
        <pt x="23" y="1298" on="1"/>
        <pt x="23" y="1462" on="1"/>
        <pt x="864" y="1462" on="1"/>
        <pt x="864" y="1298" on="1"/>
        <pt x="508" y="1298" on="1"/>
      </contour>
    </TTGlyph>
    <TTGlyph name="afii10061" xMin="211" yMin="0" xMax="1198" yMax="1907">
      <component glyphName="afii10028" x="0" y="0" flags="0x204"/>
      <component glyphName="acute" x="156" y="338" flags="0x4"/>
    </TTGlyph>
    <TTGlyph name="afii10062" xMin="27" yMin="-20" xMax="1200" yMax="1897">
      <component glyphName="afii10037" x="0" y="0" flags="0x204"/>
      <component glyphName="cyrillicbreve" x="6" y="338" flags="0x4"/>
    </TTGlyph>
    <TTGlyph name="afii10065" xMin="135" yMin="-20" xMax="1026" yMax="1118">
      <component glyphName="a" x="0" y="0" flags="0x204"/>
    </TTGlyph>
    <TTGlyph name="afii10066" xMin="143" yMin="-20" xMax="1083" yMax="1571">
      <contour>
        <pt x="1040" y="1571" on="1"/>
        <pt x="1073" y="1411" on="1"/>
        <pt x="676" y="1344" on="0"/>
        <pt x="471" y="1279" on="0"/>
        <pt x="344" y="1062" on="0"/>
        <pt x="336" y="852" on="1"/>
        <pt x="348" y="852" on="1"/>
        <pt x="464" y="1022" on="0"/>
        <pt x="684" y="1022" on="1"/>
        <pt x="870" y="1022" on="0"/>
        <pt x="1083" y="759" on="0"/>
        <pt x="1083" y="530" on="1"/>
        <pt x="1083" y="270" on="0"/>
        <pt x="833" y="-20" on="0"/>
        <pt x="612" y="-20" on="1"/>
        <pt x="393" y="-20" on="0"/>
        <pt x="143" y="340" on="0"/>
        <pt x="143" y="659" on="1"/>
        <pt x="143" y="871" on="0"/>
        <pt x="205" y="1159" on="0"/>
        <pt x="309" y="1335" on="0"/>
        <pt x="447" y="1441" on="0"/>
        <pt x="649" y="1498" on="0"/>
      </contour>
      <contour>
        <pt x="332" y="655" on="1"/>
        <pt x="332" y="131" on="0"/>
        <pt x="625" y="131" on="1"/>
        <pt x="891" y="131" on="0"/>
        <pt x="891" y="506" on="1"/>
        <pt x="891" y="870" on="0"/>
        <pt x="651" y="870" on="1"/>
        <pt x="556" y="870" on="0"/>
        <pt x="379" y="743" on="0"/>
      </contour>
    </TTGlyph>
    <TTGlyph name="afii10067" xMin="176" yMin="0" xMax="1108" yMax="1098">
      <contour>
        <pt x="844" y="582" on="1"/>
        <pt x="844" y="575" on="1"/>
        <pt x="1108" y="540" on="0"/>
        <pt x="1108" y="317" on="1"/>
        <pt x="1108" y="168" on="0"/>
        <pt x="896" y="0" on="0"/>
        <pt x="688" y="0" on="1"/>
        <pt x="176" y="0" on="1"/>
        <pt x="176" y="1098" on="1"/>
        <pt x="686" y="1098" on="1"/>
        <pt x="1073" y="1098" on="0"/>
        <pt x="1073" y="821" on="1"/>
        <pt x="1073" y="624" on="0"/>
      </contour>
      <contour>
        <pt x="358" y="944" on="1"/>
        <pt x="358" y="647" on="1"/>
        <pt x="651" y="647" on="1"/>
        <pt x="785" y="647" on="0"/>
        <pt x="899" y="719" on="0"/>
        <pt x="899" y="803" on="1"/>
        <pt x="899" y="944" on="0"/>
        <pt x="682" y="944" on="1"/>
      </contour>
      <contour>
        <pt x="358" y="494" on="1"/>
        <pt x="358" y="150" on="1"/>
        <pt x="676" y="150" on="1"/>
        <pt x="930" y="150" on="0"/>
        <pt x="930" y="330" on="1"/>
        <pt x="930" y="422" on="0"/>
        <pt x="800" y="494" on="0"/>
        <pt x="672" y="494" on="1"/>
      </contour>
    </TTGlyph>
    <TTGlyph name="afii10068" xMin="291" yMin="0" xMax="1038" yMax="1098">
      <contour>
        <pt x="1038" y="944" on="1"/>
        <pt x="473" y="944" on="1"/>
        <pt x="473" y="0" on="1"/>
        <pt x="291" y="0" on="1"/>
        <pt x="291" y="1098" on="1"/>
        <pt x="1038" y="1098" on="1"/>
      </contour>
    </TTGlyph>
    <TTGlyph name="afii10069" xMin="33" yMin="-381" xMax="1128" yMax="1098">
      <contour>
        <pt x="1128" y="-381" on="1"/>
        <pt x="952" y="-381" on="1"/>
        <pt x="952" y="0" on="1"/>
        <pt x="209" y="0" on="1"/>
        <pt x="209" y="-381" on="1"/>
        <pt x="33" y="-381" on="1"/>
        <pt x="33" y="154" on="1"/>
        <pt x="119" y="154" on="1"/>
        <pt x="381" y="543" on="0"/>
        <pt x="385" y="1098" on="1"/>
        <pt x="977" y="1098" on="1"/>
        <pt x="977" y="154" on="1"/>
        <pt x="1128" y="154" on="1"/>
      </contour>
      <contour>
        <pt x="795" y="154" on="1"/>
        <pt x="795" y="958" on="1"/>
        <pt x="545" y="958" on="1"/>
        <pt x="509" y="477" on="0"/>
        <pt x="311" y="154" on="1"/>
      </contour>
    </TTGlyph>
    <TTGlyph name="afii10070" xMin="133" yMin="-20" xMax="1096" yMax="1118">
      <component glyphName="e" x="0" y="0" flags="0x204"/>
    </TTGlyph>
    <TTGlyph name="afii10071" xMin="133" yMin="-20" xMax="1096" yMax="1497">
      <component glyphName="e" x="0" y="0" flags="0x204"/>
      <component glyphName="dieresis" x="18" y="0" flags="0x4"/>
    </TTGlyph>
    <TTGlyph name="afii10072" xMin="0" yMin="0" xMax="1229" yMax="1098">
      <contour>
        <pt x="535" y="565" on="1"/>
        <pt x="535" y="1098" on="1"/>
        <pt x="694" y="1098" on="1"/>
        <pt x="694" y="565" on="1"/>
        <pt x="1044" y="1098" on="1"/>
        <pt x="1229" y="1098" on="1"/>
        <pt x="862" y="565" on="1"/>
        <pt x="1227" y="0" on="1"/>
        <pt x="1032" y="0" on="1"/>
        <pt x="694" y="557" on="1"/>
        <pt x="694" y="0" on="1"/>
        <pt x="535" y="0" on="1"/>
        <pt x="535" y="557" on="1"/>
        <pt x="197" y="0" on="1"/>
        <pt x="2" y="0" on="1"/>
        <pt x="369" y="565" on="1"/>
        <pt x="0" y="1098" on="1"/>
        <pt x="184" y="1098" on="1"/>
      </contour>
    </TTGlyph>
    <TTGlyph name="afii10073" xMin="201" yMin="-20" xMax="1032" yMax="1118">
      <contour>
        <pt x="506" y="647" on="1"/>
        <pt x="678" y="647" on="0"/>
        <pt x="823" y="726" on="0"/>
        <pt x="823" y="813" on="1"/>
        <pt x="823" y="967" on="0"/>
        <pt x="573" y="967" on="1"/>
        <pt x="439" y="967" on="0"/>
        <pt x="264" y="895" on="1"/>
        <pt x="201" y="1042" on="1"/>
        <pt x="361" y="1118" on="0"/>
        <pt x="571" y="1118" on="1"/>
        <pt x="776" y="1118" on="0"/>
        <pt x="997" y="969" on="0"/>
        <pt x="997" y="829" on="1"/>
        <pt x="997" y="643" on="0"/>
        <pt x="805" y="586" on="1"/>
        <pt x="805" y="575" on="1"/>
        <pt x="1032" y="510" on="0"/>
        <pt x="1032" y="303" on="1"/>
        <pt x="1032" y="152" on="0"/>
        <pt x="791" y="-20" on="0"/>
        <pt x="567" y="-20" on="1"/>
        <pt x="332" y="-20" on="0"/>
        <pt x="205" y="49" on="1"/>
        <pt x="205" y="215" on="1"/>
        <pt x="385" y="129" on="0"/>
        <pt x="571" y="129" on="1"/>
        <pt x="854" y="129" on="0"/>
        <pt x="854" y="309" on="1"/>
        <pt x="854" y="494" on="0"/>
        <pt x="543" y="494" on="1"/>
        <pt x="393" y="494" on="1"/>
        <pt x="393" y="647" on="1"/>
      </contour>
    </TTGlyph>
    <TTGlyph name="afii10074" xMin="160" yMin="0" xMax="1069" yMax="1098">
      <contour>
        <pt x="332" y="1098" on="1"/>
        <pt x="332" y="430" on="1"/>
        <pt x="319" y="178" on="1"/>
        <pt x="836" y="1098" on="1"/>
        <pt x="1069" y="1098" on="1"/>
        <pt x="1069" y="0" on="1"/>
        <pt x="897" y="0" on="1"/>
        <pt x="897" y="647" on="1"/>
        <pt x="907" y="918" on="1"/>
        <pt x="393" y="0" on="1"/>
        <pt x="160" y="0" on="1"/>
        <pt x="160" y="1098" on="1"/>
      </contour>
    </TTGlyph>
    <TTGlyph name="afii10075" xMin="160" yMin="0" xMax="1069" yMax="1559">
      <component glyphName="afii10074" x="0" y="0" flags="0x204"/>
      <component glyphName="cyrillicbreve" x="37" y="0" flags="0x4"/>
    </TTGlyph>
    <TTGlyph name="afii10076" xMin="215" yMin="0" xMax="1174" yMax="1098">
      <contour>
        <pt x="913" y="1098" on="1"/>
        <pt x="1135" y="1098" on="1"/>
        <pt x="608" y="571" on="1"/>
        <pt x="1174" y="0" on="1"/>
        <pt x="942" y="0" on="1"/>
        <pt x="395" y="557" on="1"/>
        <pt x="395" y="0" on="1"/>
        <pt x="215" y="0" on="1"/>
        <pt x="215" y="1098" on="1"/>
        <pt x="395" y="1098" on="1"/>
        <pt x="395" y="565" on="1"/>
      </contour>
    </TTGlyph>
    <TTGlyph name="afii10077" xMin="31" yMin="-14" xMax="1040" yMax="1098">
      <contour>
        <pt x="1040" y="0" on="1"/>
        <pt x="858" y="0" on="1"/>
        <pt x="858" y="944" on="1"/>
        <pt x="518" y="944" on="1"/>
        <pt x="481" y="451" on="0"/>
        <pt x="303" y="-14" on="0"/>
        <pt x="123" y="-14" on="1"/>
        <pt x="61" y="-14" on="0"/>
        <pt x="31" y="-2" on="1"/>
        <pt x="31" y="129" on="1"/>
        <pt x="52" y="123" on="0"/>
        <pt x="80" y="123" on="1"/>
        <pt x="191" y="123" on="0"/>
        <pt x="326" y="598" on="0"/>
        <pt x="362" y="1098" on="1"/>
        <pt x="1040" y="1098" on="1"/>
      </contour>
    </TTGlyph>
    <TTGlyph name="afii10078" xMin="115" yMin="0" xMax="1114" yMax="1098">
      <contour>
        <pt x="1114" y="0" on="1"/>
        <pt x="963" y="0" on="1"/>
        <pt x="963" y="897" on="1"/>
        <pt x="955" y="870" on="0"/>
        <pt x="930" y="770" on="1"/>
        <pt x="908" y="685" on="0"/>
        <pt x="895" y="647" on="1"/>
        <pt x="682" y="0" on="1"/>
        <pt x="547" y="0" on="1"/>
        <pt x="334" y="647" on="1"/>
        <pt x="326" y="672" on="0"/>
        <pt x="266" y="897" on="1"/>
        <pt x="266" y="0" on="1"/>
        <pt x="115" y="0" on="1"/>
        <pt x="115" y="1098" on="1"/>
        <pt x="326" y="1098" on="1"/>
        <pt x="541" y="442" on="1"/>
        <pt x="566" y="365" on="0"/>
        <pt x="614" y="174" on="1"/>
        <pt x="619" y="187" on="0"/>
        <pt x="667" y="365" on="1"/>
        <pt x="677" y="404" on="0"/>
        <pt x="688" y="438" on="1"/>
        <pt x="907" y="1098" on="1"/>
        <pt x="1114" y="1098" on="1"/>
      </contour>
    </TTGlyph>
    <TTGlyph name="afii10079" xMin="160" yMin="0" xMax="1069" yMax="1098">
      <contour>
        <pt x="342" y="1098" on="1"/>
        <pt x="342" y="643" on="1"/>
        <pt x="887" y="643" on="1"/>
        <pt x="887" y="1098" on="1"/>
        <pt x="1069" y="1098" on="1"/>
        <pt x="1069" y="0" on="1"/>
        <pt x="887" y="0" on="1"/>
        <pt x="887" y="489" on="1"/>
        <pt x="342" y="489" on="1"/>
        <pt x="342" y="0" on="1"/>
        <pt x="160" y="0" on="1"/>
        <pt x="160" y="1098" on="1"/>
      </contour>
    </TTGlyph>
    <TTGlyph name="afii10080" xMin="115" yMin="-20" xMax="1112" yMax="1118">
      <component glyphName="o" x="0" y="0" flags="0x204"/>
    </TTGlyph>
    <TTGlyph name="afii10081" xMin="160" yMin="0" xMax="1069" yMax="1098">
      <contour>
        <pt x="342" y="0" on="1"/>
        <pt x="160" y="0" on="1"/>
        <pt x="160" y="1098" on="1"/>
        <pt x="1069" y="1098" on="1"/>
        <pt x="1069" y="0" on="1"/>
        <pt x="887" y="0" on="1"/>
        <pt x="887" y="944" on="1"/>
        <pt x="342" y="944" on="1"/>
      </contour>
    </TTGlyph>
    <TTGlyph name="afii10082" xMin="158" yMin="-492" xMax="1092" yMax="1118">
      <component glyphName="p" x="0" y="0" flags="0x204"/>
    </TTGlyph>
    <TTGlyph name="afii10083" xMin="172" yMin="-20" xMax="1061" yMax="1118">
      <component glyphName="c" x="0" y="0" flags="0x204"/>
    </TTGlyph>
    <TTGlyph name="afii10084" xMin="121" yMin="0" xMax="1106" yMax="1098">
      <contour>
        <pt x="1106" y="944" on="1"/>
        <pt x="705" y="944" on="1"/>
        <pt x="705" y="0" on="1"/>
        <pt x="522" y="0" on="1"/>
        <pt x="522" y="944" on="1"/>
        <pt x="121" y="944" on="1"/>
        <pt x="121" y="1098" on="1"/>
        <pt x="1106" y="1098" on="1"/>
      </contour>
    </TTGlyph>
    <TTGlyph name="afii10085" xMin="82" yMin="-492" xMax="1145" yMax="1098">
      <component glyphName="y" x="0" y="0" flags="0x204"/>
    </TTGlyph>
    <TTGlyph name="afii10086" xMin="74" yMin="-492" xMax="1153" yMax="1556">
      <contour>
        <pt x="694" y="1114" on="1"/>
        <pt x="1153" y="1064" on="0"/>
        <pt x="1153" y="551" on="1"/>
        <pt x="1153" y="26" on="0"/>
        <pt x="694" y="-16" on="1"/>
        <pt x="694" y="-492" on="1"/>
        <pt x="537" y="-492" on="1"/>
        <pt x="537" y="-16" on="1"/>
        <pt x="74" y="29" on="0"/>
        <pt x="74" y="551" on="1"/>
        <pt x="74" y="1073" on="0"/>
        <pt x="537" y="1114" on="1"/>
        <pt x="537" y="1556" on="1"/>
        <pt x="694" y="1556" on="1"/>
      </contour>
      <contour>
        <pt x="537" y="135" on="1"/>
        <pt x="537" y="963" on="1"/>
        <pt x="242" y="934" on="0"/>
        <pt x="242" y="551" on="1"/>
        <pt x="242" y="165" on="0"/>
      </contour>
      <contour>
        <pt x="694" y="961" on="1"/>
        <pt x="694" y="135" on="1"/>
        <pt x="985" y="168" on="0"/>
        <pt x="985" y="551" on="1"/>
        <pt x="985" y="928" on="0"/>
      </contour>
    </TTGlyph>
    <TTGlyph name="afii10087" xMin="96" yMin="0" xMax="1130" yMax="1098">
      <component glyphName="x" x="0" y="0" flags="0x204"/>
    </TTGlyph>
    <TTGlyph name="afii10088" xMin="152" yMin="-381" xMax="1180" yMax="1098">
      <contour>
        <pt x="1180" y="-381" on="1"/>
        <pt x="1004" y="-381" on="1"/>
        <pt x="1004" y="0" on="1"/>
        <pt x="152" y="0" on="1"/>
        <pt x="152" y="1098" on="1"/>
        <pt x="334" y="1098" on="1"/>
        <pt x="334" y="154" on="1"/>
        <pt x="838" y="154" on="1"/>
        <pt x="838" y="1098" on="1"/>
        <pt x="1020" y="1098" on="1"/>
        <pt x="1020" y="154" on="1"/>
        <pt x="1180" y="154" on="1"/>
      </contour>
    </TTGlyph>
    <TTGlyph name="afii10089" xMin="152" yMin="0" xMax="1061" yMax="1098">
      <contour>
        <pt x="334" y="1098" on="1"/>
        <pt x="334" y="688" on="1"/>
        <pt x="334" y="514" on="0"/>
        <pt x="539" y="514" on="1"/>
        <pt x="710" y="514" on="0"/>
        <pt x="879" y="629" on="1"/>
        <pt x="879" y="1098" on="1"/>
        <pt x="1061" y="1098" on="1"/>
        <pt x="1061" y="0" on="1"/>
        <pt x="879" y="0" on="1"/>
        <pt x="879" y="489" on="1"/>
        <pt x="698" y="362" on="0"/>
        <pt x="498" y="362" on="1"/>
        <pt x="338" y="362" on="0"/>
        <pt x="152" y="537" on="0"/>
        <pt x="152" y="676" on="1"/>
        <pt x="152" y="1098" on="1"/>
      </contour>
    </TTGlyph>
    <TTGlyph name="afii10090" xMin="125" yMin="0" xMax="1106" yMax="1098">
      <contour>
        <pt x="696" y="154" on="1"/>
        <pt x="944" y="154" on="1"/>
        <pt x="944" y="1098" on="1"/>
        <pt x="1106" y="1098" on="1"/>
        <pt x="1106" y="0" on="1"/>
        <pt x="125" y="0" on="1"/>
        <pt x="125" y="1098" on="1"/>
        <pt x="287" y="1098" on="1"/>
        <pt x="287" y="154" on="1"/>
        <pt x="535" y="154" on="1"/>
        <pt x="535" y="1098" on="1"/>
        <pt x="696" y="1098" on="1"/>
      </contour>
    </TTGlyph>
    <TTGlyph name="afii10091" xMin="109" yMin="-381" xMax="1208" yMax="1098">
      <contour>
        <pt x="680" y="154" on="1"/>
        <pt x="928" y="154" on="1"/>
        <pt x="928" y="1098" on="1"/>
        <pt x="1090" y="1098" on="1"/>
        <pt x="1090" y="154" on="1"/>
        <pt x="1208" y="154" on="1"/>
        <pt x="1208" y="-381" on="1"/>
        <pt x="1047" y="-381" on="1"/>
        <pt x="1047" y="0" on="1"/>
        <pt x="109" y="0" on="1"/>
        <pt x="109" y="1098" on="1"/>
        <pt x="270" y="1098" on="1"/>
        <pt x="270" y="154" on="1"/>
        <pt x="518" y="154" on="1"/>
        <pt x="518" y="1098" on="1"/>
        <pt x="680" y="1098" on="1"/>
      </contour>
    </TTGlyph>
    <TTGlyph name="afii10092" xMin="43" yMin="0" xMax="1155" yMax="1098">
      <contour>
        <pt x="586" y="647" on="1"/>
        <pt x="739" y="647" on="1"/>
        <pt x="1155" y="647" on="0"/>
        <pt x="1155" y="336" on="1"/>
        <pt x="1155" y="0" on="0"/>
        <pt x="735" y="0" on="1"/>
        <pt x="403" y="0" on="1"/>
        <pt x="403" y="944" on="1"/>
        <pt x="43" y="944" on="1"/>
        <pt x="43" y="1098" on="1"/>
        <pt x="586" y="1098" on="1"/>
      </contour>
      <contour>
        <pt x="586" y="494" on="1"/>
        <pt x="586" y="150" on="1"/>
        <pt x="723" y="150" on="1"/>
        <pt x="977" y="150" on="0"/>
        <pt x="977" y="322" on="1"/>
        <pt x="977" y="412" on="0"/>
        <pt x="859" y="494" on="0"/>
        <pt x="719" y="494" on="1"/>
      </contour>
    </TTGlyph>
    <TTGlyph name="afii10093" xMin="113" yMin="0" xMax="1114" yMax="1098">
      <contour>
        <pt x="274" y="647" on="1"/>
        <pt x="408" y="647" on="1"/>
        <pt x="823" y="647" on="0"/>
        <pt x="823" y="336" on="1"/>
        <pt x="823" y="0" on="0"/>
        <pt x="403" y="0" on="1"/>
        <pt x="113" y="0" on="1"/>
        <pt x="113" y="1098" on="1"/>
        <pt x="274" y="1098" on="1"/>
      </contour>
      <contour>
        <pt x="274" y="494" on="1"/>
        <pt x="274" y="150" on="1"/>
        <pt x="412" y="150" on="1"/>
        <pt x="666" y="150" on="0"/>
        <pt x="666" y="322" on="1"/>
        <pt x="666" y="412" on="0"/>
        <pt x="548" y="494" on="0"/>
        <pt x="408" y="494" on="1"/>
      </contour>
      <contour>
        <pt x="1114" y="0" on="1"/>
        <pt x="952" y="0" on="1"/>
        <pt x="952" y="1098" on="1"/>
        <pt x="1114" y="1098" on="1"/>
      </contour>
    </TTGlyph>
    <TTGlyph name="afii10094" xMin="217" yMin="0" xMax="1092" yMax="1098">
      <contour>
        <pt x="399" y="647" on="1"/>
        <pt x="676" y="647" on="1"/>
        <pt x="1092" y="647" on="0"/>
        <pt x="1092" y="336" on="1"/>
        <pt x="1092" y="0" on="0"/>
        <pt x="672" y="0" on="1"/>
        <pt x="217" y="0" on="1"/>
        <pt x="217" y="1098" on="1"/>
        <pt x="399" y="1098" on="1"/>
      </contour>
      <contour>
        <pt x="399" y="494" on="1"/>
        <pt x="399" y="150" on="1"/>
        <pt x="659" y="150" on="1"/>
        <pt x="913" y="150" on="0"/>
        <pt x="913" y="322" on="1"/>
        <pt x="913" y="412" on="0"/>
        <pt x="795" y="494" on="0"/>
        <pt x="655" y="494" on="1"/>
      </contour>
    </TTGlyph>
    <TTGlyph name="afii10095" xMin="184" yMin="-20" xMax="1061" yMax="1118">
      <contour>
        <pt x="190" y="41" on="1"/>
        <pt x="190" y="201" on="1"/>
        <pt x="353" y="139" on="0"/>
        <pt x="506" y="139" on="1"/>
        <pt x="857" y="139" on="0"/>
        <pt x="874" y="487" on="1"/>
        <pt x="336" y="487" on="1"/>
        <pt x="336" y="641" on="1"/>
        <pt x="872" y="641" on="1"/>
        <pt x="845" y="958" on="0"/>
        <pt x="508" y="958" on="1"/>
        <pt x="400" y="958" on="0"/>
        <pt x="246" y="901" on="1"/>
        <pt x="184" y="1059" on="1"/>
        <pt x="337" y="1118" on="0"/>
        <pt x="516" y="1118" on="1"/>
        <pt x="783" y="1118" on="0"/>
        <pt x="1061" y="826" on="0"/>
        <pt x="1061" y="543" on="1"/>
        <pt x="1061" y="272" on="0"/>
        <pt x="775" y="-20" on="0"/>
        <pt x="510" y="-20" on="1"/>
        <pt x="323" y="-20" on="0"/>
      </contour>
    </TTGlyph>
    <TTGlyph name="afii10096" xMin="123" yMin="-20" xMax="1165" yMax="1118">
      <contour>
        <pt x="434" y="489" on="1"/>
        <pt x="285" y="489" on="1"/>
        <pt x="285" y="0" on="1"/>
        <pt x="123" y="0" on="1"/>
        <pt x="123" y="1098" on="1"/>
        <pt x="285" y="1098" on="1"/>
        <pt x="285" y="643" on="1"/>
        <pt x="436" y="643" on="1"/>
        <pt x="471" y="1118" on="0"/>
        <pt x="803" y="1118" on="1"/>
        <pt x="974" y="1118" on="0"/>
        <pt x="1165" y="822" on="0"/>
        <pt x="1165" y="551" on="1"/>
        <pt x="1165" y="-20" on="0"/>
        <pt x="797" y="-20" on="1"/>
        <pt x="462" y="-20" on="0"/>
      </contour>
      <contour>
        <pt x="801" y="131" on="1"/>
        <pt x="904" y="131" on="0"/>
        <pt x="997" y="326" on="0"/>
        <pt x="997" y="551" on="1"/>
        <pt x="997" y="769" on="0"/>
        <pt x="905" y="967" on="0"/>
        <pt x="799" y="967" on="1"/>
        <pt x="695" y="967" on="0"/>
        <pt x="602" y="775" on="0"/>
        <pt x="602" y="551" on="1"/>
        <pt x="602" y="330" on="0"/>
        <pt x="695" y="131" on="0"/>
      </contour>
    </TTGlyph>
    <TTGlyph name="afii10097" xMin="115" yMin="0" xMax="1034" yMax="1098">
      <contour>
        <pt x="313" y="0" on="1"/>
        <pt x="115" y="0" on="1"/>
        <pt x="406" y="461" on="1"/>
        <pt x="172" y="528" on="0"/>
        <pt x="172" y="776" on="1"/>
        <pt x="172" y="926" on="0"/>
        <pt x="376" y="1098" on="0"/>
        <pt x="549" y="1098" on="1"/>
        <pt x="1034" y="1098" on="1"/>
        <pt x="1034" y="0" on="1"/>
        <pt x="852" y="0" on="1"/>
        <pt x="852" y="432" on="1"/>
        <pt x="567" y="432" on="1"/>
      </contour>
      <contour>
        <pt x="852" y="586" on="1"/>
        <pt x="852" y="944" on="1"/>
        <pt x="557" y="944" on="1"/>
        <pt x="346" y="944" on="0"/>
        <pt x="346" y="772" on="1"/>
        <pt x="346" y="586" on="0"/>
        <pt x="584" y="586" on="1"/>
      </contour>
    </TTGlyph>
    <TTGlyph name="afii10098" xMin="291" yMin="0" xMax="1018" yMax="1417">
      <contour>
        <pt x="1018" y="961" on="1"/>
        <pt x="473" y="961" on="1"/>
        <pt x="473" y="0" on="1"/>
        <pt x="291" y="0" on="1"/>
        <pt x="291" y="1098" on="1"/>
        <pt x="836" y="1098" on="1"/>
        <pt x="836" y="1417" on="1"/>
        <pt x="1018" y="1417" on="1"/>
      </contour>
    </TTGlyph>
    <TTGlyph name="afii10099" xMin="4" yMin="-492" xMax="1069" yMax="1556">
      <contour>
        <pt x="645" y="-467" on="1"/>
        <pt x="645" y="-319" on="1"/>
        <pt x="699" y="-340" on="0"/>
        <pt x="760" y="-340" on="1"/>
        <pt x="887" y="-340" on="0"/>
        <pt x="887" y="-170" on="1"/>
        <pt x="887" y="666" on="1"/>
        <pt x="887" y="926" on="0"/>
        <pt x="651" y="926" on="1"/>
        <pt x="489" y="926" on="0"/>
        <pt x="342" y="739" on="0"/>
        <pt x="342" y="528" on="1"/>
        <pt x="342" y="0" on="1"/>
        <pt x="160" y="0" on="1"/>
        <pt x="160" y="1237" on="1"/>
        <pt x="4" y="1237" on="1"/>
        <pt x="4" y="1374" on="1"/>
        <pt x="160" y="1374" on="1"/>
        <pt x="160" y="1556" on="1"/>
        <pt x="342" y="1556" on="1"/>
        <pt x="342" y="1374" on="1"/>
        <pt x="721" y="1374" on="1"/>
        <pt x="721" y="1237" on="1"/>
        <pt x="342" y="1237" on="1"/>
        <pt x="342" y="1053" on="1"/>
        <pt x="334" y="909" on="1"/>
        <pt x="344" y="909" on="1"/>
        <pt x="450" y="1077" on="0"/>
        <pt x="678" y="1077" on="1"/>
        <pt x="1069" y="1077" on="0"/>
        <pt x="1069" y="676" on="1"/>
        <pt x="1069" y="-158" on="1"/>
        <pt x="1069" y="-492" on="0"/>
        <pt x="778" y="-492" on="1"/>
        <pt x="697" y="-492" on="0"/>
      </contour>
    </TTGlyph>
    <TTGlyph name="afii10100" xMin="291" yMin="0" xMax="1038" yMax="1569">
      <component glyphName="afii10068" x="0" y="0" flags="0x204"/>
      <component glyphName="acute" x="104" y="0" flags="0x4"/>
    </TTGlyph>
    <TTGlyph name="afii10101" xMin="172" yMin="-20" xMax="1061" yMax="1118">
      <contour>
        <pt x="1061" y="1059" on="1"/>
        <pt x="999" y="901" on="1"/>
        <pt x="849" y="958" on="0"/>
        <pt x="737" y="958" on="1"/>
        <pt x="390" y="958" on="0"/>
        <pt x="360" y="641" on="1"/>
        <pt x="897" y="641" on="1"/>
        <pt x="897" y="487" on="1"/>
        <pt x="358" y="487" on="1"/>
        <pt x="378" y="139" on="0"/>
        <pt x="727" y="139" on="1"/>
        <pt x="880" y="139" on="0"/>
        <pt x="1042" y="201" on="1"/>
        <pt x="1042" y="41" on="1"/>
        <pt x="909" y="-20" on="0"/>
        <pt x="723" y="-20" on="1"/>
        <pt x="458" y="-20" on="0"/>
        <pt x="172" y="272" on="0"/>
        <pt x="172" y="543" on="1"/>
        <pt x="172" y="826" on="0"/>
        <pt x="463" y="1118" on="0"/>
        <pt x="731" y="1118" on="1"/>
        <pt x="909" y="1118" on="0"/>
      </contour>
    </TTGlyph>
    <TTGlyph name="afii10102" xMin="203" yMin="-20" xMax="1026" yMax="1118">
      <component glyphName="s" x="0" y="0" flags="0x204"/>
    </TTGlyph>
    <TTGlyph name="afii10103" xMin="197" yMin="0" xMax="1075" yMax="1550">
      <component glyphName="i" x="0" y="0" flags="0x204"/>
    </TTGlyph>
    <TTGlyph name="afii10104" xMin="197" yMin="0" xMax="1075" yMax="1497">
      <component glyphName="dotlessi" x="0" y="0" flags="0x204"/>
      <component glyphName="dieresis" x="0" y="0" flags="0x4"/>
    </TTGlyph>
    <TTGlyph name="afii10105" xMin="135" yMin="-492" xMax="854" yMax="1550">
      <component glyphName="j" x="0" y="0" flags="0x204"/>
    </TTGlyph>
    <TTGlyph name="afii10106" xMin="0" yMin="-14" xMax="1180" yMax="1098">
      <contour>
        <pt x="713" y="647" on="1"/>
        <pt x="764" y="647" on="1"/>
        <pt x="1180" y="647" on="0"/>
        <pt x="1180" y="336" on="1"/>
        <pt x="1180" y="0" on="0"/>
        <pt x="760" y="0" on="1"/>
        <pt x="551" y="0" on="1"/>
        <pt x="551" y="944" on="1"/>
        <pt x="365" y="944" on="1"/>
        <pt x="332" y="470" on="0"/>
        <pt x="280" y="93" on="0"/>
        <pt x="188" y="-14" on="0"/>
        <pt x="92" y="-14" on="1"/>
        <pt x="30" y="-14" on="0"/>
        <pt x="0" y="-2" on="1"/>
        <pt x="0" y="129" on="1"/>
        <pt x="22" y="123" on="0"/>
        <pt x="49" y="123" on="1"/>
        <pt x="90" y="123" on="0"/>
        <pt x="139" y="207" on="0"/>
        <pt x="184" y="589" on="0"/>
        <pt x="219" y="1098" on="1"/>
        <pt x="713" y="1098" on="1"/>
      </contour>
      <contour>
        <pt x="713" y="494" on="1"/>
        <pt x="713" y="150" on="1"/>
        <pt x="768" y="150" on="1"/>
        <pt x="1022" y="150" on="0"/>
        <pt x="1022" y="322" on="1"/>
        <pt x="1022" y="412" on="0"/>
        <pt x="904" y="494" on="0"/>
        <pt x="764" y="494" on="1"/>
      </contour>
    </TTGlyph>
    <TTGlyph name="afii10107" xMin="106" yMin="0" xMax="1196" yMax="1098">
      <contour>
        <pt x="268" y="1098" on="1"/>
        <pt x="268" y="643" on="1"/>
        <pt x="567" y="643" on="1"/>
        <pt x="567" y="1098" on="1"/>
        <pt x="729" y="1098" on="1"/>
        <pt x="729" y="647" on="1"/>
        <pt x="780" y="647" on="1"/>
        <pt x="1196" y="647" on="0"/>
        <pt x="1196" y="336" on="1"/>
        <pt x="1196" y="0" on="0"/>
        <pt x="776" y="0" on="1"/>
        <pt x="567" y="0" on="1"/>
        <pt x="567" y="489" on="1"/>
        <pt x="268" y="489" on="1"/>
        <pt x="268" y="0" on="1"/>
        <pt x="106" y="0" on="1"/>
        <pt x="106" y="1098" on="1"/>
      </contour>
      <contour>
        <pt x="729" y="494" on="1"/>
        <pt x="729" y="150" on="1"/>
        <pt x="784" y="150" on="1"/>
        <pt x="1038" y="150" on="0"/>
        <pt x="1038" y="322" on="1"/>
        <pt x="1038" y="412" on="0"/>
        <pt x="920" y="494" on="0"/>
        <pt x="780" y="494" on="1"/>
      </contour>
    </TTGlyph>
    <TTGlyph name="afii10108" xMin="4" yMin="0" xMax="1069" yMax="1556">
      <component glyphName="hbar" x="0" y="0" flags="0x204"/>
    </TTGlyph>
    <TTGlyph name="afii10109" xMin="215" yMin="0" xMax="1163" yMax="1569">
      <component glyphName="kgreenlandic" x="0" y="0" flags="0x204"/>
      <component glyphName="acute" x="90" y="0" flags="0x4"/>
    </TTGlyph>
    <TTGlyph name="afii10110" xMin="82" yMin="-492" xMax="1145" yMax="1559">
      <component glyphName="y" x="0" y="0" flags="0x204"/>
      <component glyphName="cyrillicbreve" x="10" y="0" flags="0x4"/>
    </TTGlyph>
    <TTGlyph name="afii10145" xMin="135" yMin="-385" xMax="1094" yMax="1462">
      <contour>
        <pt x="1094" y="0" on="1"/>
        <pt x="700" y="0" on="1"/>
        <pt x="700" y="-385" on="1"/>
        <pt x="524" y="-385" on="1"/>
        <pt x="524" y="0" on="1"/>
        <pt x="135" y="0" on="1"/>
        <pt x="135" y="1462" on="1"/>
        <pt x="322" y="1462" on="1"/>
        <pt x="322" y="166" on="1"/>
        <pt x="907" y="166" on="1"/>
        <pt x="907" y="1462" on="1"/>
        <pt x="1094" y="1462" on="1"/>
      </contour>
    </TTGlyph>
    <TTGlyph name="afii10193" xMin="160" yMin="-381" xMax="1069" yMax="1098">
      <contour>
        <pt x="342" y="154" on="1"/>
        <pt x="887" y="154" on="1"/>
        <pt x="887" y="1098" on="1"/>
        <pt x="1069" y="1098" on="1"/>
        <pt x="1069" y="0" on="1"/>
        <pt x="715" y="0" on="1"/>
        <pt x="715" y="-381" on="1"/>
        <pt x="532" y="-381" on="1"/>
        <pt x="532" y="0" on="1"/>
        <pt x="160" y="0" on="1"/>
        <pt x="160" y="1098" on="1"/>
        <pt x="342" y="1098" on="1"/>
      </contour>
    </TTGlyph>
    <TTGlyph name="afii61248" xMin="8" yMin="-8" xMax="1223" yMax="1473">
      <contour>
        <pt x="532" y="1436" on="1"/>
        <pt x="500" y="1329" on="1"/>
        <pt x="418" y="1362" on="0"/>
        <pt x="350" y="1362" on="1"/>
        <pt x="152" y="1362" on="0"/>
        <pt x="152" y="1128" on="1"/>
        <pt x="152" y="899" on="0"/>
        <pt x="346" y="899" on="1"/>
        <pt x="449" y="899" on="0"/>
        <pt x="522" y="932" on="1"/>
        <pt x="522" y="825" on="1"/>
        <pt x="448" y="788" on="0"/>
        <pt x="340" y="788" on="1"/>
        <pt x="184" y="788" on="0"/>
        <pt x="8" y="963" on="0"/>
        <pt x="8" y="1126" on="1"/>
        <pt x="8" y="1297" on="0"/>
        <pt x="188" y="1473" on="0"/>
        <pt x="350" y="1473" on="1"/>
        <pt x="449" y="1473" on="0"/>
      </contour>
      <contour>
        <pt x="1042" y="1462" on="1"/>
        <pt x="313" y="0" on="1"/>
        <pt x="156" y="0" on="1"/>
        <pt x="885" y="1462" on="1"/>
      </contour>
      <contour>
        <pt x="918" y="-8" on="1"/>
        <pt x="786" y="-8" on="0"/>
        <pt x="616" y="177" on="0"/>
        <pt x="616" y="334" on="1"/>
        <pt x="616" y="495" on="0"/>
        <pt x="782" y="676" on="0"/>
        <pt x="922" y="676" on="1"/>
        <pt x="1053" y="676" on="0"/>
        <pt x="1223" y="489" on="0"/>
        <pt x="1223" y="334" on="1"/>
        <pt x="1223" y="176" on="0"/>
        <pt x="1059" y="-8" on="0"/>
      </contour>
      <contour>
        <pt x="920" y="100" on="1"/>
        <pt x="1075" y="100" on="0"/>
        <pt x="1075" y="334" on="1"/>
        <pt x="1075" y="565" on="0"/>
        <pt x="920" y="565" on="1"/>
        <pt x="762" y="565" on="0"/>
        <pt x="762" y="334" on="1"/>
        <pt x="762" y="100" on="0"/>
      </contour>
    </TTGlyph>
    <TTGlyph name="afii61289" xMin="227" yMin="-20" xMax="999" yMax="1483">
      <contour>
        <pt x="885" y="332" on="1"/>
        <pt x="999" y="332" on="1"/>
        <pt x="981" y="-20" on="0"/>
        <pt x="713" y="-20" on="1"/>
        <pt x="574" y="-20" on="0"/>
        <pt x="420" y="163" on="0"/>
        <pt x="420" y="336" on="1"/>
        <pt x="420" y="567" on="1"/>
        <pt x="334" y="536" on="0"/>
        <pt x="227" y="510" on="1"/>
        <pt x="227" y="631" on="1"/>
        <pt x="299" y="650" on="0"/>
        <pt x="420" y="690" on="1"/>
        <pt x="420" y="1184" on="1"/>
        <pt x="420" y="1324" on="0"/>
        <pt x="557" y="1483" on="0"/>
        <pt x="690" y="1483" on="1"/>
        <pt x="800" y="1483" on="0"/>
        <pt x="926" y="1318" on="0"/>
        <pt x="926" y="1182" on="1"/>
        <pt x="926" y="827" on="0"/>
        <pt x="586" y="641" on="1"/>
        <pt x="586" y="340" on="1"/>
        <pt x="586" y="119" on="0"/>
        <pt x="731" y="119" on="1"/>
        <pt x="875" y="119" on="0"/>
      </contour>
      <contour>
        <pt x="586" y="770" on="1"/>
        <pt x="793" y="891" on="0"/>
        <pt x="793" y="1176" on="1"/>
        <pt x="793" y="1364" on="0"/>
        <pt x="690" y="1364" on="1"/>
        <pt x="637" y="1364" on="0"/>
        <pt x="586" y="1283" on="0"/>
        <pt x="586" y="1176" on="1"/>
      </contour>
    </TTGlyph>
    <TTGlyph name="afii61352" xMin="25" yMin="0" xMax="1208" yMax="1462">
      <contour>
        <pt x="649" y="0" on="1"/>
        <pt x="475" y="0" on="1"/>
        <pt x="150" y="1169" on="1"/>
        <pt x="141" y="1169" on="1"/>
        <pt x="160" y="916" on="0"/>
        <pt x="160" y="752" on="1"/>
        <pt x="160" y="0" on="1"/>
        <pt x="25" y="0" on="1"/>
        <pt x="25" y="1462" on="1"/>
        <pt x="201" y="1462" on="1"/>
        <pt x="524" y="299" on="1"/>
        <pt x="530" y="299" on="1"/>
        <pt x="516" y="602" on="0"/>
        <pt x="516" y="702" on="1"/>
        <pt x="516" y="1462" on="1"/>
        <pt x="649" y="1462" on="1"/>
      </contour>
      <contour>
        <pt x="954" y="274" on="1"/>
        <pt x="840" y="274" on="0"/>
        <pt x="705" y="461" on="0"/>
        <pt x="705" y="623" on="1"/>
        <pt x="705" y="969" on="0"/>
        <pt x="958" y="969" on="1"/>
        <pt x="1072" y="969" on="0"/>
        <pt x="1208" y="786" on="0"/>
        <pt x="1208" y="623" on="1"/>
        <pt x="1208" y="455" on="0"/>
        <pt x="1076" y="274" on="0"/>
      </contour>
      <contour>
        <pt x="956" y="395" on="1"/>
        <pt x="1019" y="395" on="0"/>
        <pt x="1067" y="510" on="0"/>
        <pt x="1067" y="623" on="1"/>
        <pt x="1067" y="737" on="0"/>
        <pt x="1019" y="846" on="0"/>
        <pt x="956" y="846" on="1"/>
        <pt x="892" y="846" on="0"/>
        <pt x="844" y="736" on="0"/>
        <pt x="844" y="623" on="1"/>
        <pt x="844" y="511" on="0"/>
        <pt x="892" y="395" on="0"/>
      </contour>
      <contour>
        <pt x="745" y="0" on="1"/>
        <pt x="745" y="147" on="1"/>
        <pt x="1159" y="147" on="1"/>
        <pt x="1159" y="0" on="1"/>
      </contour>
    </TTGlyph>
    <TTGlyph name="agrave" xMin="135" yMin="-20" xMax="1026" yMax="1569">
      <component glyphName="a" x="0" y="0" flags="0x204"/>
      <component glyphName="grave" x="-85" y="0" flags="0x4"/>
    </TTGlyph>
    <TTGlyph name="alpha" xMin="121" yMin="-20" xMax="1178" yMax="1118">
      <contour>
        <pt x="862" y="950" on="1"/>
        <pt x="874" y="950" on="1"/>
        <pt x="904" y="1053" on="0"/>
        <pt x="942" y="1098" on="1"/>
        <pt x="1085" y="1098" on="1"/>
        <pt x="1034" y="932" on="0"/>
        <pt x="1034" y="659" on="1"/>
        <pt x="1034" y="240" on="1"/>
        <pt x="1034" y="129" on="0"/>
        <pt x="1118" y="129" on="1"/>
        <pt x="1147" y="129" on="0"/>
        <pt x="1178" y="139" on="1"/>
        <pt x="1178" y="6" on="1"/>
        <pt x="1126" y="-20" on="0"/>
        <pt x="1063" y="-20" on="1"/>
        <pt x="904" y="-20" on="0"/>
        <pt x="864" y="147" on="1"/>
        <pt x="852" y="147" on="1"/>
        <pt x="744" y="-20" on="0"/>
        <pt x="539" y="-20" on="1"/>
        <pt x="344" y="-20" on="0"/>
        <pt x="121" y="277" on="0"/>
        <pt x="121" y="547" on="1"/>
        <pt x="121" y="820" on="0"/>
        <pt x="351" y="1118" on="0"/>
        <pt x="557" y="1118" on="1"/>
        <pt x="767" y="1118" on="0"/>
      </contour>
      <contour>
        <pt x="852" y="532" on="1"/>
        <pt x="852" y="547" on="1"/>
        <pt x="852" y="774" on="0"/>
        <pt x="718" y="967" on="0"/>
        <pt x="571" y="967" on="1"/>
        <pt x="309" y="967" on="0"/>
        <pt x="309" y="545" on="1"/>
        <pt x="309" y="131" on="0"/>
        <pt x="573" y="131" on="1"/>
        <pt x="721" y="131" on="0"/>
        <pt x="848" y="315" on="0"/>
      </contour>
    </TTGlyph>
    <TTGlyph name="alphatonos" xMin="121" yMin="-20" xMax="1178" yMax="1569">
      <component glyphName="alpha" x="0" y="0" flags="0x204"/>
      <component glyphName="tonos" x="16" y="0" flags="0x4"/>
    </TTGlyph>
    <TTGlyph name="amacron" xMin="135" yMin="-20" xMax="1026" yMax="1391">
      <component glyphName="a" x="0" y="0" flags="0x204"/>
      <component glyphName="macron" x="-9" y="0" flags="0x4"/>
    </TTGlyph>
    <TTGlyph name="ampersand" xMin="61" yMin="-20" xMax="1227" yMax="1485">
      <contour>
        <pt x="602" y="776" on="1"/>
        <pt x="883" y="428" on="1"/>
        <pt x="954" y="549" on="0"/>
        <pt x="987" y="694" on="1"/>
        <pt x="1171" y="694" on="1"/>
        <pt x="1118" y="460" on="0"/>
        <pt x="993" y="291" on="1"/>
        <pt x="1227" y="0" on="1"/>
        <pt x="1010" y="0" on="1"/>
        <pt x="879" y="166" on="1"/>
        <pt x="705" y="-20" on="0"/>
        <pt x="467" y="-20" on="1"/>
        <pt x="278" y="-20" on="0"/>
        <pt x="61" y="194" on="0"/>
        <pt x="61" y="381" on="1"/>
        <pt x="61" y="512" on="0"/>
        <pt x="188" y="707" on="0"/>
        <pt x="360" y="809" on="1"/>
        <pt x="197" y="1001" on="0"/>
        <pt x="197" y="1165" on="1"/>
        <pt x="197" y="1313" on="0"/>
        <pt x="388" y="1485" on="0"/>
        <pt x="567" y="1485" on="1"/>
        <pt x="735" y="1485" on="0"/>
        <pt x="920" y="1314" on="0"/>
        <pt x="920" y="1165" on="1"/>
        <pt x="920" y="962" on="0"/>
      </contour>
      <contour>
        <pt x="508" y="897" on="1"/>
        <pt x="642" y="976" on="0"/>
        <pt x="741" y="1095" on="0"/>
        <pt x="741" y="1169" on="1"/>
        <pt x="741" y="1243" on="0"/>
        <pt x="642" y="1335" on="0"/>
        <pt x="561" y="1335" on="1"/>
        <pt x="474" y="1335" on="0"/>
        <pt x="375" y="1246" on="0"/>
        <pt x="375" y="1165" on="1"/>
        <pt x="375" y="1047" on="0"/>
      </contour>
      <contour>
        <pt x="778" y="287" on="1"/>
        <pt x="455" y="688" on="1"/>
        <pt x="252" y="565" on="0"/>
        <pt x="252" y="387" on="1"/>
        <pt x="252" y="282" on="0"/>
        <pt x="386" y="141" on="0"/>
        <pt x="479" y="141" on="1"/>
        <pt x="639" y="141" on="0"/>
      </contour>
    </TTGlyph>
    <TTGlyph name="anoteleia" xMin="487" yMin="584" xMax="741" yMax="862">
      <contour>
        <pt x="614" y="862" on="1"/>
        <pt x="741" y="862" on="0"/>
        <pt x="741" y="723" on="1"/>
        <pt x="741" y="584" on="0"/>
        <pt x="614" y="584" on="1"/>
        <pt x="487" y="584" on="0"/>
        <pt x="487" y="723" on="1"/>
        <pt x="487" y="862" on="0"/>
      </contour>
    </TTGlyph>
    <TTGlyph name="aogonek" xMin="135" yMin="-455" xMax="1106" yMax="1118">
      <component glyphName="a" x="0" y="0" flags="0x204"/>
      <component glyphName="ogonek" x="291" y="0" flags="0x4"/>
    </TTGlyph>
    <TTGlyph name="approxequal" xMin="152" yMin="379" xMax="1075" yMax="1061">
      <contour>
        <pt x="152" y="788" on="1"/>
        <pt x="152" y="950" on="1"/>
        <pt x="250" y="1059" on="0"/>
        <pt x="399" y="1059" on="1"/>
        <pt x="497" y="1059" on="0"/>
        <pt x="647" y="995" on="1"/>
        <pt x="774" y="940" on="0"/>
        <pt x="848" y="940" on="1"/>
        <pt x="957" y="940" on="0"/>
        <pt x="1075" y="1061" on="1"/>
        <pt x="1075" y="899" on="1"/>
        <pt x="978" y="791" on="0"/>
        <pt x="827" y="791" on="1"/>
        <pt x="727" y="791" on="0"/>
        <pt x="580" y="854" on="1"/>
        <pt x="452" y="909" on="0"/>
        <pt x="379" y="909" on="1"/>
        <pt x="267" y="909" on="0"/>
      </contour>
      <contour>
        <pt x="152" y="379" on="1"/>
        <pt x="152" y="541" on="1"/>
        <pt x="251" y="649" on="0"/>
        <pt x="399" y="649" on="1"/>
        <pt x="499" y="649" on="0"/>
        <pt x="647" y="586" on="1"/>
        <pt x="777" y="530" on="0"/>
        <pt x="848" y="530" on="1"/>
        <pt x="956" y="530" on="0"/>
        <pt x="1075" y="651" on="1"/>
        <pt x="1075" y="489" on="1"/>
        <pt x="976" y="381" on="0"/>
        <pt x="827" y="381" on="1"/>
        <pt x="727" y="381" on="0"/>
        <pt x="580" y="444" on="1"/>
        <pt x="449" y="500" on="0"/>
        <pt x="379" y="500" on="1"/>
        <pt x="271" y="500" on="0"/>
      </contour>
    </TTGlyph>
    <TTGlyph name="aring" xMin="135" yMin="-20" xMax="1026" yMax="1671">
      <component glyphName="a" x="0" y="0" flags="0x204"/>
      <component glyphName="ring" x="-1" y="0" flags="0x4"/>
    </TTGlyph>
    <TTGlyph name="aringacute" xMin="135" yMin="-20" xMax="1026" yMax="2048">
      <component glyphName="a" x="0" y="0" flags="0x204"/>
      <component glyphName="ring" x="0" y="0" flags="0x4"/>
      <component glyphName="acute" x="94" y="479" flags="0x4"/>
    </TTGlyph>
    <TTGlyph name="asciicircum" xMin="111" yMin="549" xMax="1118" yMax="1473">
      <contour>
        <pt x="111" y="549" on="1"/>
        <pt x="535" y="1473" on="1"/>
        <pt x="637" y="1473" on="1"/>
        <pt x="1118" y="549" on="1"/>
        <pt x="956" y="549" on="1"/>
        <pt x="588" y="1284" on="1"/>
        <pt x="270" y="549" on="1"/>
      </contour>
    </TTGlyph>
    <TTGlyph name="asciitilde" xMin="152" yMin="586" xMax="1075" yMax="858">
      <contour>
        <pt x="152" y="586" on="1"/>
        <pt x="152" y="748" on="1"/>
        <pt x="251" y="856" on="0"/>
        <pt x="399" y="856" on="1"/>
        <pt x="499" y="856" on="0"/>
        <pt x="647" y="793" on="1"/>
        <pt x="777" y="737" on="0"/>
        <pt x="848" y="737" on="1"/>
        <pt x="956" y="737" on="0"/>
        <pt x="1075" y="858" on="1"/>
        <pt x="1075" y="696" on="1"/>
        <pt x="976" y="588" on="0"/>
        <pt x="827" y="588" on="1"/>
        <pt x="727" y="588" on="0"/>
        <pt x="580" y="651" on="1"/>
        <pt x="449" y="707" on="0"/>
        <pt x="379" y="707" on="1"/>
        <pt x="271" y="707" on="0"/>
      </contour>
    </TTGlyph>
    <TTGlyph name="asterisk" xMin="133" yMin="631" xMax="1096" yMax="1556">
      <contour>
        <pt x="715" y="1556" on="1"/>
        <pt x="672" y="1163" on="1"/>
        <pt x="1069" y="1274" on="1"/>
        <pt x="1096" y="1081" on="1"/>
        <pt x="717" y="1053" on="1"/>
        <pt x="963" y="727" on="1"/>
        <pt x="784" y="631" on="1"/>
        <pt x="608" y="989" on="1"/>
        <pt x="451" y="631" on="1"/>
        <pt x="266" y="727" on="1"/>
        <pt x="508" y="1053" on="1"/>
        <pt x="133" y="1081" on="1"/>
        <pt x="162" y="1274" on="1"/>
        <pt x="553" y="1163" on="1"/>
        <pt x="510" y="1556" on="1"/>
      </contour>
    </TTGlyph>
    <TTGlyph name="at" xMin="31" yMin="-182" xMax="1198" yMax="1462">
      <contour>
        <pt x="799" y="401" on="1"/>
        <pt x="795" y="401" on="1"/>
        <pt x="721" y="221" on="0"/>
        <pt x="565" y="221" on="1"/>
        <pt x="445" y="221" on="0"/>
        <pt x="305" y="430" on="0"/>
        <pt x="305" y="606" on="1"/>
        <pt x="305" y="812" on="0"/>
        <pt x="499" y="1065" on="0"/>
        <pt x="657" y="1065" on="1"/>
        <pt x="794" y="1065" on="0"/>
        <pt x="913" y="1018" on="1"/>
        <pt x="891" y="602" on="1"/>
        <pt x="889" y="564" on="0"/>
        <pt x="889" y="533" on="1"/>
        <pt x="889" y="526" on="1"/>
        <pt x="889" y="350" on="0"/>
        <pt x="961" y="350" on="1"/>
        <pt x="1061" y="350" on="0"/>
        <pt x="1061" y="733" on="1"/>
        <pt x="1061" y="1011" on="0"/>
        <pt x="839" y="1327" on="0"/>
        <pt x="651" y="1327" on="1"/>
        <pt x="425" y="1327" on="0"/>
        <pt x="172" y="943" on="0"/>
        <pt x="172" y="608" on="1"/>
        <pt x="172" y="296" on="0"/>
        <pt x="431" y="-45" on="0"/>
        <pt x="670" y="-45" on="1"/>
        <pt x="851" y="-45" on="0"/>
        <pt x="1016" y="33" on="1"/>
        <pt x="1016" y="-100" on="1"/>
        <pt x="858" y="-182" on="0"/>
        <pt x="664" y="-182" on="1"/>
        <pt x="366" y="-182" on="0"/>
        <pt x="31" y="232" on="0"/>
        <pt x="31" y="602" on="1"/>
        <pt x="31" y="999" on="0"/>
        <pt x="365" y="1462" on="0"/>
        <pt x="653" y="1462" on="1"/>
        <pt x="901" y="1462" on="0"/>
        <pt x="1198" y="1070" on="0"/>
        <pt x="1198" y="731" on="1"/>
        <pt x="1198" y="500" on="0"/>
        <pt x="1070" y="221" on="0"/>
        <pt x="956" y="221" on="1"/>
        <pt x="828" y="221" on="0"/>
      </contour>
      <contour>
        <pt x="752" y="915" on="1"/>
        <pt x="698" y="936" on="0"/>
        <pt x="649" y="936" on="1"/>
        <pt x="560" y="936" on="0"/>
        <pt x="465" y="749" on="0"/>
        <pt x="465" y="602" on="1"/>
        <pt x="465" y="350" on="0"/>
        <pt x="592" y="350" on="1"/>
        <pt x="723" y="350" on="0"/>
        <pt x="737" y="662" on="1"/>
      </contour>
    </TTGlyph>
    <TTGlyph name="atilde" xMin="135" yMin="-20" xMax="1026" yMax="1507">
      <component glyphName="a" x="0" y="0" flags="0x204"/>
      <component glyphName="tilde" x="10" y="0" flags="0x4"/>
    </TTGlyph>
    <TTGlyph name="b" xMin="158" yMin="-20" xMax="1092" yMax="1556">
      <contour>
        <pt x="340" y="139" on="1"/>
        <pt x="328" y="139" on="1"/>
        <pt x="291" y="0" on="1"/>
        <pt x="158" y="0" on="1"/>
        <pt x="158" y="1556" on="1"/>
        <pt x="340" y="1556" on="1"/>
        <pt x="340" y="1180" on="1"/>
        <pt x="340" y="1099" on="0"/>
        <pt x="332" y="954" on="1"/>
        <pt x="340" y="954" on="1"/>
        <pt x="447" y="1118" on="0"/>
        <pt x="662" y="1118" on="1"/>
        <pt x="863" y="1118" on="0"/>
        <pt x="1092" y="819" on="0"/>
        <pt x="1092" y="551" on="1"/>
        <pt x="1092" y="281" on="0"/>
        <pt x="862" y="-20" on="0"/>
        <pt x="662" y="-20" on="1"/>
        <pt x="455" y="-20" on="0"/>
      </contour>
      <contour>
        <pt x="340" y="551" on="1"/>
        <pt x="340" y="324" on="0"/>
        <pt x="479" y="131" on="0"/>
        <pt x="631" y="131" on="1"/>
        <pt x="903" y="131" on="0"/>
        <pt x="903" y="553" on="1"/>
        <pt x="903" y="967" on="0"/>
        <pt x="629" y="967" on="1"/>
        <pt x="474" y="967" on="0"/>
        <pt x="340" y="779" on="0"/>
      </contour>
    </TTGlyph>
    <TTGlyph name="backslash" xMin="211" yMin="0" xMax="1016" yMax="1462">
      <contour>
        <pt x="389" y="1462" on="1"/>
        <pt x="1016" y="0" on="1"/>
        <pt x="838" y="0" on="1"/>
        <pt x="211" y="1462" on="1"/>
      </contour>
    </TTGlyph>
    <TTGlyph name="bar" xMin="539" yMin="-492" xMax="688" yMax="1556">
      <contour>
        <pt x="539" y="1556" on="1"/>
        <pt x="688" y="1556" on="1"/>
        <pt x="688" y="-492" on="1"/>
        <pt x="539" y="-492" on="1"/>
      </contour>
    </TTGlyph>
    <TTGlyph name="beta" xMin="158" yMin="-492" xMax="1104" yMax="1567">
      <contour>
        <pt x="723" y="829" on="1"/>
        <pt x="723" y="823" on="1"/>
        <pt x="1104" y="775" on="0"/>
        <pt x="1104" y="414" on="1"/>
        <pt x="1104" y="209" on="0"/>
        <pt x="859" y="-20" on="0"/>
        <pt x="643" y="-20" on="1"/>
        <pt x="457" y="-20" on="0"/>
        <pt x="340" y="43" on="1"/>
        <pt x="340" y="-492" on="1"/>
        <pt x="158" y="-492" on="1"/>
        <pt x="158" y="1096" on="1"/>
        <pt x="158" y="1322" on="0"/>
        <pt x="396" y="1567" on="0"/>
        <pt x="604" y="1567" on="1"/>
        <pt x="802" y="1567" on="0"/>
        <pt x="1038" y="1357" on="0"/>
        <pt x="1038" y="1174" on="1"/>
        <pt x="1038" y="1038" on="0"/>
        <pt x="877" y="856" on="0"/>
      </contour>
      <contour>
        <pt x="340" y="209" on="1"/>
        <pt x="475" y="129" on="0"/>
        <pt x="629" y="129" on="1"/>
        <pt x="922" y="129" on="0"/>
        <pt x="922" y="428" on="1"/>
        <pt x="922" y="574" on="0"/>
        <pt x="732" y="739" on="0"/>
        <pt x="573" y="739" on="1"/>
        <pt x="479" y="739" on="1"/>
        <pt x="479" y="891" on="1"/>
        <pt x="549" y="891" on="1"/>
        <pt x="691" y="891" on="0"/>
        <pt x="852" y="1041" on="0"/>
        <pt x="852" y="1167" on="1"/>
        <pt x="852" y="1285" on="0"/>
        <pt x="718" y="1417" on="0"/>
        <pt x="604" y="1417" on="1"/>
        <pt x="340" y="1417" on="0"/>
        <pt x="340" y="1087" on="1"/>
      </contour>
    </TTGlyph>
    <TTGlyph name="braceleft" xMin="225" yMin="-324" xMax="1001" yMax="1462">
      <contour>
        <pt x="745" y="-16" on="1"/>
        <pt x="745" y="-97" on="0"/>
        <pt x="857" y="-172" on="0"/>
        <pt x="1001" y="-174" on="1"/>
        <pt x="1001" y="-324" on="1"/>
        <pt x="563" y="-318" on="0"/>
        <pt x="563" y="-31" on="1"/>
        <pt x="563" y="303" on="1"/>
        <pt x="563" y="492" on="0"/>
        <pt x="225" y="492" on="1"/>
        <pt x="225" y="647" on="1"/>
        <pt x="563" y="647" on="0"/>
        <pt x="563" y="836" on="1"/>
        <pt x="563" y="1169" on="1"/>
        <pt x="563" y="1456" on="0"/>
        <pt x="1001" y="1462" on="1"/>
        <pt x="1001" y="1313" on="1"/>
        <pt x="857" y="1311" on="0"/>
        <pt x="745" y="1236" on="0"/>
        <pt x="745" y="1155" on="1"/>
        <pt x="745" y="823" on="1"/>
        <pt x="745" y="616" on="0"/>
        <pt x="512" y="575" on="1"/>
        <pt x="512" y="563" on="1"/>
        <pt x="745" y="522" on="0"/>
        <pt x="745" y="315" on="1"/>
      </contour>
    </TTGlyph>
    <TTGlyph name="braceright" xMin="227" yMin="-324" xMax="1004" yMax="1462">
      <contour>
        <pt x="483" y="315" on="1"/>
        <pt x="483" y="522" on="0"/>
        <pt x="717" y="563" on="1"/>
        <pt x="717" y="575" on="1"/>
        <pt x="483" y="616" on="0"/>
        <pt x="483" y="823" on="1"/>
        <pt x="483" y="1155" on="1"/>
        <pt x="483" y="1236" on="0"/>
        <pt x="370" y="1312" on="0"/>
        <pt x="227" y="1313" on="1"/>
        <pt x="227" y="1462" on="1"/>
        <pt x="666" y="1456" on="0"/>
        <pt x="666" y="1169" on="1"/>
        <pt x="666" y="836" on="1"/>
        <pt x="666" y="647" on="0"/>
        <pt x="1004" y="647" on="1"/>
        <pt x="1004" y="492" on="1"/>
        <pt x="666" y="492" on="0"/>
        <pt x="666" y="303" on="1"/>
        <pt x="666" y="-31" on="1"/>
        <pt x="666" y="-318" on="0"/>
        <pt x="227" y="-324" on="1"/>
        <pt x="227" y="-174" on="1"/>
        <pt x="370" y="-173" on="0"/>
        <pt x="483" y="-97" on="0"/>
        <pt x="483" y="-16" on="1"/>
      </contour>
    </TTGlyph>
    <TTGlyph name="bracketleft" xMin="412" yMin="-324" xMax="940" yMax="1462">
      <contour>
        <pt x="940" y="-324" on="1"/>
        <pt x="412" y="-324" on="1"/>
        <pt x="412" y="1462" on="1"/>
        <pt x="940" y="1462" on="1"/>
        <pt x="940" y="1313" on="1"/>
        <pt x="594" y="1313" on="1"/>
        <pt x="594" y="-174" on="1"/>
        <pt x="940" y="-174" on="1"/>
      </contour>
    </TTGlyph>
    <TTGlyph name="bracketright" xMin="289" yMin="-324" xMax="817" yMax="1462">
      <contour>
        <pt x="289" y="-174" on="1"/>
        <pt x="635" y="-174" on="1"/>
        <pt x="635" y="1313" on="1"/>
        <pt x="289" y="1313" on="1"/>
        <pt x="289" y="1462" on="1"/>
        <pt x="817" y="1462" on="1"/>
        <pt x="817" y="-324" on="1"/>
        <pt x="289" y="-324" on="1"/>
      </contour>
    </TTGlyph>
    <TTGlyph name="breve" xMin="313" yMin="1241" xMax="915" yMax="1518">
      <contour>
        <pt x="915" y="1518" on="1"/>
        <pt x="906" y="1391" on="0"/>
        <pt x="746" y="1241" on="0"/>
        <pt x="610" y="1241" on="1"/>
        <pt x="330" y="1241" on="0"/>
        <pt x="313" y="1518" on="1"/>
        <pt x="422" y="1518" on="1"/>
        <pt x="429" y="1442" on="0"/>
        <pt x="508" y="1393" on="0"/>
        <pt x="612" y="1393" on="1"/>
        <pt x="793" y="1393" on="0"/>
        <pt x="803" y="1518" on="1"/>
      </contour>
    </TTGlyph>
    <TTGlyph name="breveacutecomb" xMin="313" yMin="1241" xMax="915" yMax="1729">
      <contour>
        <pt x="549" y="1528" on="1"/>
        <pt x="569" y="1553" on="0"/>
        <pt x="601" y="1597" on="0"/>
        <pt x="631" y="1643" on="0"/>
        <pt x="660" y="1696" on="0"/>
        <pt x="676" y="1729" on="1"/>
        <pt x="856" y="1729" on="1"/>
        <pt x="856" y="1708" on="1"/>
        <pt x="811" y="1648" on="0"/>
        <pt x="705" y="1545" on="0"/>
        <pt x="649" y="1501" on="1"/>
        <pt x="549" y="1501" on="1"/>
      </contour>
      <contour>
        <pt x="915" y="1507" on="1"/>
        <pt x="911" y="1447" on="0"/>
        <pt x="867" y="1348" on="0"/>
        <pt x="791" y="1279" on="0"/>
        <pt x="681" y="1241" on="0"/>
        <pt x="610" y="1241" on="1"/>
        <pt x="464" y="1241" on="0"/>
        <pt x="320" y="1380" on="0"/>
        <pt x="313" y="1507" on="1"/>
        <pt x="422" y="1507" on="1"/>
        <pt x="426" y="1464" on="0"/>
        <pt x="453" y="1415" on="0"/>
        <pt x="501" y="1389" on="0"/>
        <pt x="569" y="1382" on="0"/>
        <pt x="612" y="1382" on="1"/>
        <pt x="648" y="1382" on="0"/>
        <pt x="714" y="1391" on="0"/>
        <pt x="765" y="1418" on="0"/>
        <pt x="799" y="1467" on="0"/>
        <pt x="803" y="1507" on="1"/>
      </contour>
    </TTGlyph>
    <TTGlyph name="brevegravecomb" xMin="313" yMin="1241" xMax="915" yMax="1729">
      <contour>
        <pt x="664" y="1501" on="1"/>
        <pt x="563" y="1501" on="1"/>
        <pt x="507" y="1545" on="0"/>
        <pt x="401" y="1648" on="0"/>
        <pt x="356" y="1708" on="1"/>
        <pt x="356" y="1729" on="1"/>
        <pt x="537" y="1729" on="1"/>
        <pt x="553" y="1696" on="0"/>
        <pt x="582" y="1643" on="0"/>
        <pt x="611" y="1597" on="0"/>
        <pt x="644" y="1553" on="0"/>
        <pt x="664" y="1528" on="1"/>
      </contour>
      <contour>
        <pt x="915" y="1507" on="1"/>
        <pt x="911" y="1447" on="0"/>
        <pt x="867" y="1348" on="0"/>
        <pt x="791" y="1279" on="0"/>
        <pt x="681" y="1241" on="0"/>
        <pt x="610" y="1241" on="1"/>
        <pt x="464" y="1241" on="0"/>
        <pt x="320" y="1380" on="0"/>
        <pt x="313" y="1507" on="1"/>
        <pt x="422" y="1507" on="1"/>
        <pt x="426" y="1464" on="0"/>
        <pt x="453" y="1415" on="0"/>
        <pt x="501" y="1389" on="0"/>
        <pt x="569" y="1382" on="0"/>
        <pt x="612" y="1382" on="1"/>
        <pt x="648" y="1382" on="0"/>
        <pt x="714" y="1391" on="0"/>
        <pt x="765" y="1418" on="0"/>
        <pt x="799" y="1467" on="0"/>
        <pt x="803" y="1507" on="1"/>
      </contour>
    </TTGlyph>
    <TTGlyph name="brevehookcomb" xMin="313" yMin="1241" xMax="915" yMax="1798">
      <contour>
        <pt x="915" y="1507" on="1"/>
        <pt x="911" y="1447" on="0"/>
        <pt x="867" y="1348" on="0"/>
        <pt x="791" y="1279" on="0"/>
        <pt x="681" y="1241" on="0"/>
        <pt x="610" y="1241" on="1"/>
        <pt x="464" y="1241" on="0"/>
        <pt x="320" y="1380" on="0"/>
        <pt x="313" y="1507" on="1"/>
        <pt x="422" y="1507" on="1"/>
        <pt x="426" y="1464" on="0"/>
        <pt x="453" y="1415" on="0"/>
        <pt x="501" y="1389" on="0"/>
        <pt x="569" y="1382" on="0"/>
        <pt x="612" y="1382" on="1"/>
        <pt x="648" y="1382" on="0"/>
        <pt x="714" y="1391" on="0"/>
        <pt x="765" y="1418" on="0"/>
        <pt x="799" y="1467" on="0"/>
        <pt x="803" y="1507" on="1"/>
      </contour>
      <contour>
        <pt x="760" y="1657" on="1"/>
        <pt x="760" y="1628" on="0"/>
        <pt x="740" y="1585" on="0"/>
        <pt x="705" y="1554" on="0"/>
        <pt x="660" y="1534" on="0"/>
        <pt x="635" y="1528" on="1"/>
        <pt x="629" y="1487" on="1"/>
        <pt x="543" y="1487" on="1"/>
        <pt x="532" y="1577" on="1"/>
        <pt x="588" y="1586" on="0"/>
        <pt x="653" y="1618" on="0"/>
        <pt x="653" y="1655" on="1"/>
        <pt x="653" y="1692" on="0"/>
        <pt x="596" y="1716" on="0"/>
        <pt x="553" y="1716" on="1"/>
        <pt x="531" y="1716" on="0"/>
        <pt x="492" y="1713" on="0"/>
        <pt x="481" y="1710" on="1"/>
        <pt x="481" y="1792" on="1"/>
        <pt x="492" y="1795" on="0"/>
        <pt x="530" y="1798" on="0"/>
        <pt x="561" y="1798" on="1"/>
        <pt x="660" y="1798" on="0"/>
        <pt x="760" y="1729" on="0"/>
      </contour>
    </TTGlyph>
    <TTGlyph name="brevetildecomb" xMin="291" yMin="1241" xMax="936" yMax="1808">
      <contour>
        <pt x="907" y="1507" on="1"/>
        <pt x="903" y="1447" on="0"/>
        <pt x="859" y="1348" on="0"/>
        <pt x="783" y="1279" on="0"/>
        <pt x="673" y="1241" on="0"/>
        <pt x="602" y="1241" on="1"/>
        <pt x="456" y="1241" on="0"/>
        <pt x="311" y="1380" on="0"/>
        <pt x="305" y="1507" on="1"/>
        <pt x="414" y="1507" on="1"/>
        <pt x="418" y="1464" on="0"/>
        <pt x="445" y="1415" on="0"/>
        <pt x="493" y="1389" on="0"/>
        <pt x="560" y="1382" on="0"/>
        <pt x="604" y="1382" on="1"/>
        <pt x="640" y="1382" on="0"/>
        <pt x="705" y="1391" on="0"/>
        <pt x="756" y="1418" on="0"/>
        <pt x="790" y="1467" on="0"/>
        <pt x="795" y="1507" on="1"/>
      </contour>
      <contour>
        <pt x="748" y="1587" on="1"/>
        <pt x="712" y="1587" on="0"/>
        <pt x="640" y="1615" on="0"/>
        <pt x="571" y="1649" on="0"/>
        <pt x="508" y="1677" on="0"/>
        <pt x="479" y="1677" on="1"/>
        <pt x="439" y="1677" on="0"/>
        <pt x="397" y="1635" on="0"/>
        <pt x="383" y="1585" on="1"/>
        <pt x="291" y="1585" on="1"/>
        <pt x="296" y="1633" on="0"/>
        <pt x="324" y="1714" on="0"/>
        <pt x="372" y="1773" on="0"/>
        <pt x="438" y="1806" on="0"/>
        <pt x="479" y="1806" on="1"/>
        <pt x="517" y="1806" on="0"/>
        <pt x="591" y="1778" on="0"/>
        <pt x="660" y="1744" on="0"/>
        <pt x="722" y="1716" on="0"/>
        <pt x="748" y="1716" on="1"/>
        <pt x="788" y="1716" on="0"/>
        <pt x="830" y="1759" on="0"/>
        <pt x="844" y="1808" on="1"/>
        <pt x="936" y="1808" on="1"/>
        <pt x="932" y="1760" on="0"/>
        <pt x="903" y="1679" on="0"/>
        <pt x="855" y="1620" on="0"/>
        <pt x="789" y="1587" on="0"/>
      </contour>
    </TTGlyph>
    <TTGlyph name="brokenbar" xMin="539" yMin="-492" xMax="688" yMax="1556">
      <contour>
        <pt x="539" y="1556" on="1"/>
        <pt x="688" y="1556" on="1"/>
        <pt x="688" y="776" on="1"/>
        <pt x="539" y="776" on="1"/>
      </contour>
      <contour>
        <pt x="539" y="289" on="1"/>
        <pt x="688" y="289" on="1"/>
        <pt x="688" y="-492" on="1"/>
        <pt x="539" y="-492" on="1"/>
      </contour>
    </TTGlyph>
    <TTGlyph name="bullet" xMin="379" yMin="485" xMax="850" yMax="1010">
      <contour>
        <pt x="614" y="1010" on="1"/>
        <pt x="850" y="1010" on="0"/>
        <pt x="850" y="748" on="1"/>
        <pt x="850" y="620" on="0"/>
        <pt x="723" y="485" on="0"/>
        <pt x="614" y="485" on="1"/>
        <pt x="503" y="485" on="0"/>
        <pt x="379" y="619" on="0"/>
        <pt x="379" y="748" on="1"/>
        <pt x="379" y="1010" on="0"/>
      </contour>
    </TTGlyph>
    <TTGlyph name="c" xMin="172" yMin="-20" xMax="1061" yMax="1118">
      <contour>
        <pt x="1061" y="1059" on="1"/>
        <pt x="999" y="901" on="1"/>
        <pt x="849" y="958" on="0"/>
        <pt x="731" y="958" on="1"/>
        <pt x="360" y="958" on="0"/>
        <pt x="360" y="545" on="1"/>
        <pt x="360" y="139" on="0"/>
        <pt x="721" y="139" on="1"/>
        <pt x="878" y="139" on="0"/>
        <pt x="1042" y="201" on="1"/>
        <pt x="1042" y="41" on="1"/>
        <pt x="908" y="-20" on="0"/>
        <pt x="713" y="-20" on="1"/>
        <pt x="456" y="-20" on="0"/>
        <pt x="172" y="271" on="0"/>
        <pt x="172" y="543" on="1"/>
        <pt x="172" y="824" on="0"/>
        <pt x="462" y="1118" on="0"/>
        <pt x="725" y="1118" on="1"/>
        <pt x="903" y="1118" on="0"/>
      </contour>
    </TTGlyph>
    <TTGlyph name="cacute" xMin="172" yMin="-20" xMax="1061" yMax="1569">
      <component glyphName="c" x="0" y="0" flags="0x204"/>
      <component glyphName="acute" x="160" y="0" flags="0x4"/>
    </TTGlyph>
    <TTGlyph name="caron" xMin="283" yMin="1241" xMax="946" yMax="1569">
      <contour>
        <pt x="946" y="1542" on="1"/>
        <pt x="921" y="1513" on="0"/>
        <pt x="887" y="1475" on="1"/>
        <pt x="746" y="1317" on="0"/>
        <pt x="711" y="1241" on="1"/>
        <pt x="518" y="1241" on="1"/>
        <pt x="483" y="1317" on="0"/>
        <pt x="342" y="1475" on="1"/>
        <pt x="283" y="1542" on="1"/>
        <pt x="283" y="1569" on="1"/>
        <pt x="403" y="1569" on="1"/>
        <pt x="485" y="1515" on="0"/>
        <pt x="614" y="1382" on="1"/>
        <pt x="736" y="1510" on="0"/>
        <pt x="825" y="1569" on="1"/>
        <pt x="946" y="1569" on="1"/>
      </contour>
    </TTGlyph>
    <TTGlyph name="caroncommaaccent" xMin="494" yMin="1229" xMax="735" yMax="1556">
      <contour>
        <pt x="494" y="1255" on="1"/>
        <pt x="520" y="1362" on="1"/>
        <pt x="546" y="1478" on="0"/>
        <pt x="555" y="1556" on="1"/>
        <pt x="735" y="1556" on="1"/>
        <pt x="735" y="1536" on="1"/>
        <pt x="735" y="1522" on="0"/>
        <pt x="651" y="1324" on="0"/>
        <pt x="590" y="1229" on="1"/>
        <pt x="494" y="1229" on="1"/>
      </contour>
    </TTGlyph>
    <TTGlyph name="ccaron" xMin="172" yMin="-20" xMax="1061" yMax="1569">
      <component glyphName="c" x="0" y="0" flags="0x204"/>
      <component glyphName="caron" x="92" y="0" flags="0x4"/>
    </TTGlyph>
    <TTGlyph name="ccedilla" xMin="172" yMin="-492" xMax="1061" yMax="1118">
      <component glyphName="c" x="0" y="0" flags="0x204"/>
      <component glyphName="cedilla" x="49" y="0" flags="0x4"/>
    </TTGlyph>
    <TTGlyph name="ccircumflex" xMin="172" yMin="-20" xMax="1061" yMax="1569">
      <component glyphName="c" x="0" y="0" flags="0x204"/>
      <component glyphName="circumflex" x="84" y="0" flags="0x4"/>
    </TTGlyph>
    <TTGlyph name="cdot" xMin="172" yMin="-20" xMax="1061" yMax="1509">
      <component glyphName="c" x="0" y="0" flags="0x204"/>
      <component glyphName="dotaccent" x="84" y="0" flags="0x4"/>
    </TTGlyph>
    <TTGlyph name="cedilla" xMin="428" yMin="-492" xMax="801" yMax="0">
      <contour>
        <pt x="428" y="-483" on="1"/>
        <pt x="428" y="-375" on="1"/>
        <pt x="461" y="-381" on="0"/>
        <pt x="508" y="-381" on="1"/>
        <pt x="659" y="-381" on="0"/>
        <pt x="659" y="-289" on="1"/>
        <pt x="659" y="-215" on="0"/>
        <pt x="487" y="-176" on="1"/>
        <pt x="578" y="0" on="1"/>
        <pt x="698" y="0" on="1"/>
        <pt x="641" y="-115" on="1"/>
        <pt x="801" y="-152" on="0"/>
        <pt x="801" y="-287" on="1"/>
        <pt x="801" y="-492" on="0"/>
        <pt x="510" y="-492" on="1"/>
        <pt x="476" y="-492" on="0"/>
      </contour>
    </TTGlyph>
    <TTGlyph name="cent" xMin="172" yMin="-20" xMax="1061" yMax="1483">
      <contour>
        <pt x="743" y="1319" on="1"/>
        <pt x="905" y="1316" on="0"/>
        <pt x="1061" y="1260" on="1"/>
        <pt x="999" y="1102" on="1"/>
        <pt x="849" y="1159" on="0"/>
        <pt x="731" y="1159" on="1"/>
        <pt x="360" y="1159" on="0"/>
        <pt x="360" y="745" on="1"/>
        <pt x="360" y="340" on="0"/>
        <pt x="721" y="340" on="1"/>
        <pt x="874" y="340" on="0"/>
        <pt x="1042" y="401" on="1"/>
        <pt x="1042" y="242" on="1"/>
        <pt x="920" y="183" on="0"/>
        <pt x="743" y="180" on="1"/>
        <pt x="743" y="-20" on="1"/>
        <pt x="606" y="-20" on="1"/>
        <pt x="606" y="186" on="1"/>
        <pt x="172" y="255" on="0"/>
        <pt x="172" y="743" on="1"/>
        <pt x="172" y="1237" on="0"/>
        <pt x="606" y="1311" on="1"/>
        <pt x="606" y="1483" on="1"/>
        <pt x="743" y="1483" on="1"/>
      </contour>
    </TTGlyph>
    <TTGlyph name="chi" xMin="43" yMin="-492" xMax="1165" yMax="1102">
      <contour>
        <pt x="637" y="506" on="1"/>
        <pt x="948" y="1098" on="1"/>
        <pt x="1126" y="1098" on="1"/>
        <pt x="709" y="322" on="1"/>
        <pt x="895" y="-139" on="1"/>
        <pt x="941" y="-253" on="0"/>
        <pt x="1021" y="-342" on="0"/>
        <pt x="1085" y="-342" on="1"/>
        <pt x="1129" y="-342" on="0"/>
        <pt x="1165" y="-334" on="1"/>
        <pt x="1165" y="-473" on="1"/>
        <pt x="1099" y="-492" on="0"/>
        <pt x="1047" y="-492" on="1"/>
        <pt x="945" y="-492" on="0"/>
        <pt x="810" y="-402" on="0"/>
        <pt x="739" y="-225" on="1"/>
        <pt x="592" y="152" on="1"/>
        <pt x="238" y="-492" on="1"/>
        <pt x="43" y="-492" on="1"/>
        <pt x="518" y="338" on="1"/>
        <pt x="338" y="784" on="1"/>
        <pt x="270" y="952" on="0"/>
        <pt x="186" y="952" on="1"/>
        <pt x="157" y="952" on="0"/>
        <pt x="123" y="942" on="1"/>
        <pt x="123" y="1085" on="1"/>
        <pt x="176" y="1102" on="0"/>
        <pt x="252" y="1102" on="1"/>
        <pt x="333" y="1102" on="0"/>
        <pt x="443" y="993" on="0"/>
        <pt x="498" y="854" on="1"/>
      </contour>
    </TTGlyph>
    <TTGlyph name="circumflex" xMin="283" yMin="1241" xMax="946" yMax="1569">
      <contour>
        <pt x="946" y="1241" on="1"/>
        <pt x="825" y="1241" on="1"/>
        <pt x="740" y="1297" on="0"/>
        <pt x="614" y="1427" on="1"/>
        <pt x="481" y="1291" on="0"/>
        <pt x="403" y="1241" on="1"/>
        <pt x="283" y="1241" on="1"/>
        <pt x="283" y="1268" on="1"/>
        <pt x="308" y="1297" on="0"/>
        <pt x="342" y="1335" on="1"/>
        <pt x="481" y="1490" on="0"/>
        <pt x="518" y="1569" on="1"/>
        <pt x="711" y="1569" on="1"/>
        <pt x="748" y="1490" on="0"/>
        <pt x="887" y="1335" on="1"/>
        <pt x="946" y="1268" on="1"/>
      </contour>
    </TTGlyph>
    <TTGlyph name="circumflexacutecomb" xMin="188" yMin="1241" xMax="1040" yMax="1663">
      <contour>
        <pt x="811" y="1241" on="1"/>
        <pt x="711" y="1241" on="1"/>
        <pt x="660" y="1275" on="0"/>
        <pt x="552" y="1359" on="0"/>
        <pt x="500" y="1407" on="1"/>
        <pt x="446" y="1359" on="0"/>
        <pt x="340" y="1275" on="0"/>
        <pt x="289" y="1241" on="1"/>
        <pt x="188" y="1241" on="1"/>
        <pt x="188" y="1268" on="1"/>
        <pt x="239" y="1327" on="0"/>
        <pt x="355" y="1459" on="0"/>
        <pt x="403" y="1528" on="1"/>
        <pt x="596" y="1528" on="1"/>
        <pt x="644" y="1459" on="0"/>
        <pt x="760" y="1327" on="0"/>
        <pt x="811" y="1268" on="1"/>
      </contour>
      <contour>
        <pt x="733" y="1462" on="1"/>
        <pt x="753" y="1488" on="0"/>
        <pt x="785" y="1532" on="0"/>
        <pt x="815" y="1578" on="0"/>
        <pt x="844" y="1630" on="0"/>
        <pt x="860" y="1663" on="1"/>
        <pt x="1040" y="1663" on="1"/>
        <pt x="1040" y="1642" on="1"/>
        <pt x="995" y="1582" on="0"/>
        <pt x="889" y="1479" on="0"/>
        <pt x="834" y="1436" on="1"/>
        <pt x="733" y="1436" on="1"/>
      </contour>
    </TTGlyph>
    <TTGlyph name="circumflexgravecomb" xMin="188" yMin="1241" xMax="1040" yMax="1663">
      <contour>
        <pt x="418" y="1268" on="1"/>
        <pt x="469" y="1327" on="0"/>
        <pt x="585" y="1459" on="0"/>
        <pt x="633" y="1528" on="1"/>
        <pt x="825" y="1528" on="1"/>
        <pt x="873" y="1459" on="0"/>
        <pt x="989" y="1327" on="0"/>
        <pt x="1040" y="1268" on="1"/>
        <pt x="1040" y="1241" on="1"/>
        <pt x="940" y="1241" on="1"/>
        <pt x="889" y="1275" on="0"/>
        <pt x="783" y="1359" on="0"/>
        <pt x="729" y="1407" on="1"/>
        <pt x="676" y="1359" on="0"/>
        <pt x="569" y="1275" on="0"/>
        <pt x="518" y="1241" on="1"/>
        <pt x="418" y="1241" on="1"/>
      </contour>
      <contour>
        <pt x="496" y="1436" on="1"/>
        <pt x="395" y="1436" on="1"/>
        <pt x="340" y="1479" on="0"/>
        <pt x="233" y="1582" on="0"/>
        <pt x="188" y="1642" on="1"/>
        <pt x="188" y="1663" on="1"/>
        <pt x="369" y="1663" on="1"/>
        <pt x="385" y="1630" on="0"/>
        <pt x="414" y="1578" on="0"/>
        <pt x="443" y="1532" on="0"/>
        <pt x="476" y="1488" on="0"/>
        <pt x="496" y="1462" on="1"/>
      </contour>
    </TTGlyph>
    <TTGlyph name="circumflexhookcomb" xMin="221" yMin="1241" xMax="1008" yMax="1784">
      <contour>
        <pt x="844" y="1241" on="1"/>
        <pt x="743" y="1241" on="1"/>
        <pt x="692" y="1275" on="0"/>
        <pt x="585" y="1359" on="0"/>
        <pt x="532" y="1407" on="1"/>
        <pt x="478" y="1359" on="0"/>
        <pt x="373" y="1275" on="0"/>
        <pt x="322" y="1241" on="1"/>
        <pt x="221" y="1241" on="1"/>
        <pt x="221" y="1268" on="1"/>
        <pt x="272" y="1327" on="0"/>
        <pt x="388" y="1459" on="0"/>
        <pt x="436" y="1528" on="1"/>
        <pt x="629" y="1528" on="1"/>
        <pt x="677" y="1459" on="0"/>
        <pt x="793" y="1327" on="0"/>
        <pt x="844" y="1268" on="1"/>
      </contour>
      <contour>
        <pt x="1008" y="1642" on="1"/>
        <pt x="1008" y="1613" on="0"/>
        <pt x="988" y="1570" on="0"/>
        <pt x="953" y="1540" on="0"/>
        <pt x="908" y="1519" on="0"/>
        <pt x="883" y="1513" on="1"/>
        <pt x="877" y="1432" on="1"/>
        <pt x="791" y="1432" on="1"/>
        <pt x="780" y="1563" on="1"/>
        <pt x="836" y="1572" on="0"/>
        <pt x="901" y="1603" on="0"/>
        <pt x="901" y="1640" on="1"/>
        <pt x="901" y="1659" on="0"/>
        <pt x="886" y="1683" on="0"/>
        <pt x="859" y="1697" on="0"/>
        <pt x="822" y="1702" on="0"/>
        <pt x="801" y="1702" on="1"/>
        <pt x="779" y="1702" on="0"/>
        <pt x="740" y="1699" on="0"/>
        <pt x="729" y="1696" on="1"/>
        <pt x="729" y="1778" on="1"/>
        <pt x="750" y="1784" on="0"/>
        <pt x="809" y="1784" on="1"/>
        <pt x="908" y="1784" on="0"/>
        <pt x="1008" y="1715" on="0"/>
      </contour>
    </TTGlyph>
    <TTGlyph name="circumflextildecomb" xMin="291" yMin="1241" xMax="936" yMax="1808">
      <contour>
        <pt x="301" y="1268" on="1"/>
        <pt x="352" y="1327" on="0"/>
        <pt x="468" y="1459" on="0"/>
        <pt x="516" y="1528" on="1"/>
        <pt x="709" y="1528" on="1"/>
        <pt x="757" y="1459" on="0"/>
        <pt x="873" y="1327" on="0"/>
        <pt x="924" y="1268" on="1"/>
        <pt x="924" y="1241" on="1"/>
        <pt x="823" y="1241" on="1"/>
        <pt x="772" y="1275" on="0"/>
        <pt x="666" y="1359" on="0"/>
        <pt x="612" y="1407" on="1"/>
        <pt x="560" y="1359" on="0"/>
        <pt x="452" y="1275" on="0"/>
        <pt x="401" y="1241" on="1"/>
        <pt x="301" y="1241" on="1"/>
      </contour>
      <contour>
        <pt x="748" y="1587" on="1"/>
        <pt x="712" y="1587" on="0"/>
        <pt x="640" y="1615" on="0"/>
        <pt x="571" y="1649" on="0"/>
        <pt x="508" y="1677" on="0"/>
        <pt x="479" y="1677" on="1"/>
        <pt x="439" y="1677" on="0"/>
        <pt x="397" y="1635" on="0"/>
        <pt x="383" y="1585" on="1"/>
        <pt x="291" y="1585" on="1"/>
        <pt x="296" y="1633" on="0"/>
        <pt x="324" y="1714" on="0"/>
        <pt x="372" y="1773" on="0"/>
        <pt x="438" y="1806" on="0"/>
        <pt x="479" y="1806" on="1"/>
        <pt x="517" y="1806" on="0"/>
        <pt x="591" y="1778" on="0"/>
        <pt x="660" y="1744" on="0"/>
        <pt x="722" y="1716" on="0"/>
        <pt x="748" y="1716" on="1"/>
        <pt x="788" y="1716" on="0"/>
        <pt x="830" y="1759" on="0"/>
        <pt x="844" y="1808" on="1"/>
        <pt x="936" y="1808" on="1"/>
        <pt x="932" y="1760" on="0"/>
        <pt x="903" y="1679" on="0"/>
        <pt x="855" y="1620" on="0"/>
        <pt x="789" y="1587" on="0"/>
      </contour>
    </TTGlyph>
    <TTGlyph name="colon" xMin="487" yMin="-29" xMax="741" yMax="1126">
      <contour>
        <pt x="614" y="1126" on="1"/>
        <pt x="741" y="1126" on="0"/>
        <pt x="741" y="987" on="1"/>
        <pt x="741" y="848" on="0"/>
        <pt x="614" y="848" on="1"/>
        <pt x="487" y="848" on="0"/>
        <pt x="487" y="987" on="1"/>
        <pt x="487" y="1126" on="0"/>
      </contour>
      <contour>
        <pt x="614" y="250" on="1"/>
        <pt x="741" y="250" on="0"/>
        <pt x="741" y="111" on="1"/>
        <pt x="741" y="-29" on="0"/>
        <pt x="614" y="-29" on="1"/>
        <pt x="487" y="-29" on="0"/>
        <pt x="487" y="111" on="1"/>
        <pt x="487" y="250" on="0"/>
      </contour>
    </TTGlyph>
    <TTGlyph name="comma" xMin="440" yMin="-289" xMax="786" yMax="262">
      <contour>
        <pt x="770" y="262" on="1"/>
        <pt x="786" y="238" on="1"/>
        <pt x="729" y="14" on="0"/>
        <pt x="592" y="-289" on="1"/>
        <pt x="440" y="-289" on="1"/>
        <pt x="516" y="34" on="0"/>
        <pt x="551" y="262" on="1"/>
      </contour>
    </TTGlyph>
    <TTGlyph name="commaaccent" xMin="483" yMin="-453" xMax="745" yMax="-125">
      <contour>
        <pt x="483" y="-426" on="1"/>
        <pt x="545" y="-286" on="0"/>
        <pt x="567" y="-125" on="1"/>
        <pt x="745" y="-125" on="1"/>
        <pt x="745" y="-145" on="1"/>
        <pt x="745" y="-167" on="0"/>
        <pt x="649" y="-371" on="0"/>
        <pt x="582" y="-453" on="1"/>
        <pt x="483" y="-453" on="1"/>
      </contour>
    </TTGlyph>
    <TTGlyph name="commaaccentrotate" xMin="483" yMin="1241" xMax="745" yMax="1569">
      <contour>
        <pt x="745" y="1542" on="1"/>
        <pt x="682" y="1389" on="0"/>
        <pt x="662" y="1241" on="1"/>
        <pt x="483" y="1241" on="1"/>
        <pt x="483" y="1262" on="1"/>
        <pt x="483" y="1279" on="0"/>
        <pt x="574" y="1480" on="0"/>
        <pt x="647" y="1569" on="1"/>
        <pt x="745" y="1569" on="1"/>
      </contour>
    </TTGlyph>
    <TTGlyph name="copyright" xMin="6" yMin="-20" xMax="1223" yMax="1483">
      <contour>
        <pt x="614" y="1483" on="1"/>
        <pt x="900" y="1483" on="0"/>
        <pt x="1223" y="1075" on="0"/>
        <pt x="1223" y="731" on="1"/>
        <pt x="1223" y="386" on="0"/>
        <pt x="899" y="-20" on="0"/>
        <pt x="614" y="-20" on="1"/>
        <pt x="328" y="-20" on="0"/>
        <pt x="6" y="387" on="0"/>
        <pt x="6" y="731" on="1"/>
        <pt x="6" y="1074" on="0"/>
        <pt x="327" y="1483" on="0"/>
      </contour>
      <contour>
        <pt x="614" y="88" on="1"/>
        <pt x="854" y="88" on="0"/>
        <pt x="1114" y="429" on="0"/>
        <pt x="1114" y="731" on="1"/>
        <pt x="1114" y="1033" on="0"/>
        <pt x="854" y="1374" on="0"/>
        <pt x="614" y="1374" on="1"/>
        <pt x="374" y="1374" on="0"/>
        <pt x="115" y="1032" on="0"/>
        <pt x="115" y="731" on="1"/>
        <pt x="115" y="430" on="0"/>
        <pt x="374" y="88" on="0"/>
      </contour>
      <contour>
        <pt x="874" y="453" on="1"/>
        <pt x="874" y="322" on="1"/>
        <pt x="767" y="272" on="0"/>
        <pt x="653" y="272" on="1"/>
        <pt x="458" y="272" on="0"/>
        <pt x="248" y="519" on="0"/>
        <pt x="248" y="733" on="1"/>
        <pt x="248" y="942" on="0"/>
        <pt x="468" y="1188" on="0"/>
        <pt x="659" y="1188" on="1"/>
        <pt x="787" y="1188" on="0"/>
        <pt x="913" y="1126" on="1"/>
        <pt x="852" y="999" on="1"/>
        <pt x="742" y="1053" on="0"/>
        <pt x="659" y="1053" on="1"/>
        <pt x="538" y="1053" on="0"/>
        <pt x="408" y="882" on="0"/>
        <pt x="408" y="731" on="1"/>
        <pt x="408" y="408" on="0"/>
        <pt x="659" y="408" on="1"/>
        <pt x="753" y="408" on="0"/>
      </contour>
    </TTGlyph>
    <TTGlyph name="currency" xMin="174" yMin="285" xMax="1055" yMax="1163">
      <contour>
        <pt x="303" y="936" on="1"/>
        <pt x="174" y="1065" on="1"/>
        <pt x="272" y="1163" on="1"/>
        <pt x="399" y="1034" on="1"/>
        <pt x="500" y="1102" on="0"/>
        <pt x="614" y="1102" on="1"/>
        <pt x="728" y="1102" on="0"/>
        <pt x="827" y="1034" on="1"/>
        <pt x="956" y="1163" on="1"/>
        <pt x="1055" y="1067" on="1"/>
        <pt x="926" y="938" on="1"/>
        <pt x="993" y="837" on="0"/>
        <pt x="993" y="723" on="1"/>
        <pt x="993" y="603" on="0"/>
        <pt x="926" y="508" on="1"/>
        <pt x="1053" y="381" on="1"/>
        <pt x="956" y="285" on="1"/>
        <pt x="827" y="412" on="1"/>
        <pt x="728" y="346" on="0"/>
        <pt x="614" y="346" on="1"/>
        <pt x="496" y="346" on="0"/>
        <pt x="399" y="414" on="1"/>
        <pt x="272" y="287" on="1"/>
        <pt x="176" y="383" on="1"/>
        <pt x="303" y="510" on="1"/>
        <pt x="238" y="605" on="0"/>
        <pt x="238" y="723" on="1"/>
        <pt x="238" y="837" on="0"/>
      </contour>
      <contour>
        <pt x="614" y="483" on="1"/>
        <pt x="714" y="483" on="0"/>
        <pt x="858" y="623" on="0"/>
        <pt x="858" y="723" on="1"/>
        <pt x="858" y="824" on="0"/>
        <pt x="715" y="967" on="0"/>
        <pt x="614" y="967" on="1"/>
        <pt x="515" y="967" on="0"/>
        <pt x="375" y="825" on="0"/>
        <pt x="375" y="723" on="1"/>
        <pt x="375" y="623" on="0"/>
        <pt x="516" y="483" on="0"/>
      </contour>
    </TTGlyph>
    <TTGlyph name="cyrillicbighookLC" xMin="434" yMin="-403" xMax="793" yMax="154">
      <contour>
        <pt x="793" y="154" on="1"/>
        <pt x="793" y="-129" on="1"/>
        <pt x="792" y="-195" on="0"/>
        <pt x="766" y="-297" on="0"/>
        <pt x="709" y="-367" on="0"/>
        <pt x="620" y="-403" on="0"/>
        <pt x="557" y="-403" on="1"/>
        <pt x="519" y="-403" on="0"/>
        <pt x="456" y="-386" on="0"/>
        <pt x="434" y="-377" on="1"/>
        <pt x="434" y="-227" on="1"/>
        <pt x="448" y="-234" on="0"/>
        <pt x="507" y="-248" on="0"/>
        <pt x="541" y="-248" on="1"/>
        <pt x="587" y="-248" on="0"/>
        <pt x="637" y="-199" on="0"/>
        <pt x="637" y="-150" on="1"/>
        <pt x="637" y="154" on="1"/>
      </contour>
    </TTGlyph>
    <TTGlyph name="cyrillicbighookUC" xMin="434" yMin="-403" xMax="793" yMax="166">
      <contour>
        <pt x="793" y="166" on="1"/>
        <pt x="793" y="-129" on="1"/>
        <pt x="792" y="-195" on="0"/>
        <pt x="766" y="-297" on="0"/>
        <pt x="709" y="-367" on="0"/>
        <pt x="620" y="-403" on="0"/>
        <pt x="557" y="-403" on="1"/>
        <pt x="519" y="-403" on="0"/>
        <pt x="456" y="-386" on="0"/>
        <pt x="434" y="-377" on="1"/>
        <pt x="434" y="-227" on="1"/>
        <pt x="448" y="-234" on="0"/>
        <pt x="507" y="-248" on="0"/>
        <pt x="541" y="-248" on="1"/>
        <pt x="587" y="-248" on="0"/>
        <pt x="637" y="-199" on="0"/>
        <pt x="637" y="-150" on="1"/>
        <pt x="637" y="166" on="1"/>
      </contour>
    </TTGlyph>
    <TTGlyph name="cyrillicbreve" xMin="231" yMin="1241" xMax="997" yMax="1559">
      <contour>
        <pt x="997" y="1559" on="1"/>
        <pt x="977" y="1241" on="0"/>
        <pt x="608" y="1241" on="1"/>
        <pt x="413" y="1241" on="0"/>
        <pt x="241" y="1389" on="0"/>
        <pt x="231" y="1559" on="1"/>
        <pt x="401" y="1559" on="1"/>
        <pt x="409" y="1457" on="0"/>
        <pt x="493" y="1372" on="0"/>
        <pt x="612" y="1372" on="1"/>
        <pt x="806" y="1372" on="0"/>
        <pt x="823" y="1559" on="1"/>
      </contour>
    </TTGlyph>
    <TTGlyph name="cyrillichookleft" xMin="455" yMin="-446" xMax="774" yMax="0">
      <contour>
        <pt x="625" y="-238" on="1"/>
        <pt x="625" y="-132" on="0"/>
        <pt x="485" y="0" on="1"/>
        <pt x="614" y="0" on="1"/>
        <pt x="640" y="-19" on="0"/>
        <pt x="697" y="-71" on="0"/>
        <pt x="744" y="-135" on="0"/>
        <pt x="774" y="-210" on="0"/>
        <pt x="774" y="-252" on="1"/>
        <pt x="774" y="-342" on="0"/>
        <pt x="674" y="-446" on="0"/>
        <pt x="573" y="-446" on="1"/>
        <pt x="544" y="-446" on="0"/>
        <pt x="481" y="-438" on="0"/>
        <pt x="455" y="-430" on="1"/>
        <pt x="455" y="-317" on="1"/>
        <pt x="469" y="-321" on="0"/>
        <pt x="514" y="-326" on="0"/>
        <pt x="539" y="-326" on="1"/>
        <pt x="573" y="-326" on="0"/>
        <pt x="625" y="-283" on="0"/>
      </contour>
    </TTGlyph>
    <TTGlyph name="d" xMin="137" yMin="-20" xMax="1071" yMax="1556">
      <contour>
        <pt x="897" y="147" on="1"/>
        <pt x="889" y="147" on="1"/>
        <pt x="776" y="-20" on="0"/>
        <pt x="567" y="-20" on="1"/>
        <pt x="366" y="-20" on="0"/>
        <pt x="137" y="279" on="0"/>
        <pt x="137" y="547" on="1"/>
        <pt x="137" y="817" on="0"/>
        <pt x="367" y="1118" on="0"/>
        <pt x="567" y="1118" on="1"/>
        <pt x="773" y="1118" on="0"/>
        <pt x="889" y="958" on="1"/>
        <pt x="901" y="958" on="1"/>
        <pt x="889" y="1087" on="0"/>
        <pt x="889" y="1120" on="1"/>
        <pt x="889" y="1556" on="1"/>
        <pt x="1071" y="1556" on="1"/>
        <pt x="1071" y="0" on="1"/>
        <pt x="924" y="0" on="1"/>
      </contour>
      <contour>
        <pt x="889" y="506" on="1"/>
        <pt x="889" y="547" on="1"/>
        <pt x="889" y="774" on="0"/>
        <pt x="750" y="967" on="0"/>
        <pt x="598" y="967" on="1"/>
        <pt x="326" y="967" on="0"/>
        <pt x="326" y="545" on="1"/>
        <pt x="326" y="131" on="0"/>
        <pt x="600" y="131" on="1"/>
        <pt x="752" y="131" on="0"/>
        <pt x="885" y="308" on="0"/>
      </contour>
    </TTGlyph>
    <TTGlyph name="dagger" xMin="240" yMin="0" xMax="989" yMax="1556">
      <contour>
        <pt x="989" y="989" on="1"/>
        <pt x="657" y="1020" on="1"/>
        <pt x="713" y="0" on="1"/>
        <pt x="496" y="0" on="1"/>
        <pt x="551" y="1020" on="1"/>
        <pt x="240" y="989" on="1"/>
        <pt x="240" y="1169" on="1"/>
        <pt x="551" y="1139" on="1"/>
        <pt x="496" y="1556" on="1"/>
        <pt x="713" y="1556" on="1"/>
        <pt x="657" y="1139" on="1"/>
        <pt x="989" y="1169" on="1"/>
      </contour>
    </TTGlyph>
    <TTGlyph name="daggerdbl" xMin="229" yMin="0" xMax="999" yMax="1556">
      <contour>
        <pt x="668" y="496" on="1"/>
        <pt x="999" y="526" on="1"/>
        <pt x="999" y="346" on="1"/>
        <pt x="668" y="377" on="1"/>
        <pt x="723" y="0" on="1"/>
        <pt x="506" y="0" on="1"/>
        <pt x="561" y="377" on="1"/>
        <pt x="229" y="346" on="1"/>
        <pt x="229" y="526" on="1"/>
        <pt x="561" y="496" on="1"/>
        <pt x="514" y="786" on="1"/>
        <pt x="561" y="1061" on="1"/>
        <pt x="229" y="1030" on="1"/>
        <pt x="229" y="1210" on="1"/>
        <pt x="561" y="1180" on="1"/>
        <pt x="506" y="1556" on="1"/>
        <pt x="723" y="1556" on="1"/>
        <pt x="668" y="1180" on="1"/>
        <pt x="999" y="1210" on="1"/>
        <pt x="999" y="1030" on="1"/>
        <pt x="668" y="1061" on="1"/>
        <pt x="715" y="786" on="1"/>
      </contour>
    </TTGlyph>
    <TTGlyph name="dasiaoxia" xMin="301" yMin="1128" xMax="907" yMax="1479">
      <contour>
        <pt x="301" y="1255" on="1"/>
        <pt x="301" y="1333" on="0"/>
        <pt x="421" y="1448" on="0"/>
        <pt x="543" y="1479" on="1"/>
        <pt x="543" y="1403" on="1"/>
        <pt x="483" y="1381" on="0"/>
        <pt x="426" y="1335" on="0"/>
        <pt x="426" y="1311" on="1"/>
        <pt x="426" y="1292" on="0"/>
        <pt x="457" y="1274" on="0"/>
        <pt x="493" y="1258" on="0"/>
        <pt x="524" y="1232" on="0"/>
        <pt x="524" y="1204" on="1"/>
        <pt x="524" y="1167" on="0"/>
        <pt x="474" y="1128" on="0"/>
        <pt x="428" y="1128" on="1"/>
        <pt x="369" y="1128" on="0"/>
        <pt x="301" y="1198" on="0"/>
      </contour>
      <contour>
        <pt x="610" y="1161" on="1"/>
        <pt x="621" y="1191" on="0"/>
        <pt x="646" y="1266" on="0"/>
        <pt x="670" y="1345" on="0"/>
        <pt x="692" y="1426" on="0"/>
        <pt x="700" y="1462" on="1"/>
        <pt x="907" y="1462" on="1"/>
        <pt x="907" y="1442" on="1"/>
        <pt x="889" y="1410" on="0"/>
        <pt x="841" y="1333" on="0"/>
        <pt x="785" y="1253" on="0"/>
        <pt x="723" y="1172" on="0"/>
        <pt x="692" y="1135" on="1"/>
        <pt x="610" y="1135" on="1"/>
      </contour>
    </TTGlyph>
    <TTGlyph name="dcaron" xMin="79" yMin="-20" xMax="1315" yMax="1556">
      <component glyphName="d" x="-58" y="0" flags="0x4"/>
      <component glyphName="caroncommaaccent" x="580" y="0" flags="0x4"/>
    </TTGlyph>
    <TTGlyph name="dcroat" xMin="137" yMin="-20" xMax="1227" yMax="1556">
      <contour>
        <pt x="897" y="147" on="1"/>
        <pt x="889" y="147" on="1"/>
        <pt x="776" y="-20" on="0"/>
        <pt x="567" y="-20" on="1"/>
        <pt x="366" y="-20" on="0"/>
        <pt x="137" y="268" on="0"/>
        <pt x="137" y="526" on="1"/>
        <pt x="137" y="786" on="0"/>
        <pt x="367" y="1077" on="0"/>
        <pt x="567" y="1077" on="1"/>
        <pt x="775" y="1077" on="0"/>
        <pt x="889" y="918" on="1"/>
        <pt x="901" y="918" on="1"/>
        <pt x="889" y="1044" on="0"/>
        <pt x="889" y="1079" on="1"/>
        <pt x="889" y="1237" on="1"/>
        <pt x="510" y="1237" on="1"/>
        <pt x="510" y="1374" on="1"/>
        <pt x="889" y="1374" on="1"/>
        <pt x="889" y="1556" on="1"/>
        <pt x="1071" y="1556" on="1"/>
        <pt x="1071" y="1374" on="1"/>
        <pt x="1227" y="1374" on="1"/>
        <pt x="1227" y="1237" on="1"/>
        <pt x="1071" y="1237" on="1"/>
        <pt x="1071" y="0" on="1"/>
        <pt x="924" y="0" on="1"/>
      </contour>
      <contour>
        <pt x="889" y="487" on="1"/>
        <pt x="889" y="526" on="1"/>
        <pt x="889" y="742" on="0"/>
        <pt x="750" y="926" on="0"/>
        <pt x="598" y="926" on="1"/>
        <pt x="326" y="926" on="0"/>
        <pt x="326" y="524" on="1"/>
        <pt x="326" y="131" on="0"/>
        <pt x="600" y="131" on="1"/>
        <pt x="751" y="131" on="0"/>
        <pt x="885" y="297" on="0"/>
      </contour>
    </TTGlyph>
    <TTGlyph name="degree" xMin="299" yMin="854" xMax="930" yMax="1483">
      <contour>
        <pt x="614" y="1483" on="1"/>
        <pt x="743" y="1483" on="0"/>
        <pt x="930" y="1296" on="0"/>
        <pt x="930" y="1167" on="1"/>
        <pt x="930" y="1038" on="0"/>
        <pt x="744" y="854" on="0"/>
        <pt x="614" y="854" on="1"/>
        <pt x="483" y="854" on="0"/>
        <pt x="299" y="1039" on="0"/>
        <pt x="299" y="1167" on="1"/>
        <pt x="299" y="1296" on="0"/>
        <pt x="484" y="1483" on="0"/>
      </contour>
      <contour>
        <pt x="614" y="977" on="1"/>
        <pt x="693" y="977" on="0"/>
        <pt x="807" y="1089" on="0"/>
        <pt x="807" y="1167" on="1"/>
        <pt x="807" y="1248" on="0"/>
        <pt x="692" y="1362" on="0"/>
        <pt x="614" y="1362" on="1"/>
        <pt x="535" y="1362" on="0"/>
        <pt x="422" y="1247" on="0"/>
        <pt x="422" y="1167" on="1"/>
        <pt x="422" y="1089" on="0"/>
        <pt x="534" y="977" on="0"/>
      </contour>
    </TTGlyph>
    <TTGlyph name="delta" xMin="135" yMin="-20" xMax="1094" yMax="1567">
      <contour>
        <pt x="557" y="938" on="1"/>
        <pt x="303" y="1083" on="0"/>
        <pt x="303" y="1286" on="1"/>
        <pt x="303" y="1419" on="0"/>
        <pt x="485" y="1567" on="0"/>
        <pt x="645" y="1567" on="1"/>
        <pt x="844" y="1567" on="0"/>
        <pt x="1038" y="1458" on="1"/>
        <pt x="965" y="1313" on="1"/>
        <pt x="796" y="1419" on="0"/>
        <pt x="637" y="1419" on="1"/>
        <pt x="563" y="1419" on="0"/>
        <pt x="477" y="1346" on="0"/>
        <pt x="477" y="1282" on="1"/>
        <pt x="477" y="1219" on="0"/>
        <pt x="561" y="1116" on="0"/>
        <pt x="733" y="1016" on="1"/>
        <pt x="1094" y="810" on="0"/>
        <pt x="1094" y="498" on="1"/>
        <pt x="1094" y="252" on="0"/>
        <pt x="835" y="-20" on="0"/>
        <pt x="610" y="-20" on="1"/>
        <pt x="397" y="-20" on="0"/>
        <pt x="135" y="227" on="0"/>
        <pt x="135" y="438" on="1"/>
        <pt x="135" y="810" on="0"/>
      </contour>
      <contour>
        <pt x="684" y="854" on="1"/>
        <pt x="328" y="754" on="0"/>
        <pt x="328" y="434" on="1"/>
        <pt x="328" y="299" on="0"/>
        <pt x="480" y="131" on="0"/>
        <pt x="610" y="131" on="1"/>
        <pt x="905" y="131" on="0"/>
        <pt x="905" y="481" on="1"/>
        <pt x="905" y="725" on="0"/>
      </contour>
    </TTGlyph>
    <TTGlyph name="dieresis" xMin="330" yMin="1292" xMax="897" yMax="1497">
      <contour>
        <pt x="426" y="1497" on="1"/>
        <pt x="522" y="1497" on="0"/>
        <pt x="522" y="1395" on="1"/>
        <pt x="522" y="1292" on="0"/>
        <pt x="426" y="1292" on="1"/>
        <pt x="330" y="1292" on="0"/>
        <pt x="330" y="1395" on="1"/>
        <pt x="330" y="1497" on="0"/>
      </contour>
      <contour>
        <pt x="801" y="1497" on="1"/>
        <pt x="897" y="1497" on="0"/>
        <pt x="897" y="1395" on="1"/>
        <pt x="897" y="1292" on="0"/>
        <pt x="801" y="1292" on="1"/>
        <pt x="705" y="1292" on="0"/>
        <pt x="705" y="1395" on="1"/>
        <pt x="705" y="1497" on="0"/>
      </contour>
    </TTGlyph>
    <TTGlyph name="dieresistonos" xMin="299" yMin="1292" xMax="928" yMax="1716">
      <contour>
        <pt x="532" y="1415" on="1"/>
        <pt x="582" y="1554" on="0"/>
        <pt x="623" y="1716" on="1"/>
        <pt x="829" y="1716" on="1"/>
        <pt x="829" y="1696" on="1"/>
        <pt x="736" y="1532" on="0"/>
        <pt x="614" y="1389" on="1"/>
        <pt x="532" y="1389" on="1"/>
      </contour>
      <contour>
        <pt x="395" y="1497" on="1"/>
        <pt x="492" y="1497" on="0"/>
        <pt x="492" y="1395" on="1"/>
        <pt x="492" y="1346" on="0"/>
        <pt x="436" y="1292" on="0"/>
        <pt x="395" y="1292" on="1"/>
        <pt x="299" y="1292" on="0"/>
        <pt x="299" y="1395" on="1"/>
        <pt x="299" y="1497" on="0"/>
      </contour>
      <contour>
        <pt x="831" y="1497" on="1"/>
        <pt x="928" y="1497" on="0"/>
        <pt x="928" y="1395" on="1"/>
        <pt x="928" y="1292" on="0"/>
        <pt x="831" y="1292" on="1"/>
        <pt x="735" y="1292" on="0"/>
        <pt x="735" y="1395" on="1"/>
        <pt x="735" y="1497" on="0"/>
      </contour>
    </TTGlyph>
    <TTGlyph name="divide" xMin="152" yMin="248" xMax="1075" yMax="1196">
      <contour>
        <pt x="612" y="1196" on="1"/>
        <pt x="727" y="1196" on="0"/>
        <pt x="727" y="1071" on="1"/>
        <pt x="727" y="946" on="0"/>
        <pt x="612" y="946" on="1"/>
        <pt x="498" y="946" on="0"/>
        <pt x="498" y="1071" on="1"/>
        <pt x="498" y="1196" on="0"/>
      </contour>
      <contour>
        <pt x="152" y="647" on="1"/>
        <pt x="152" y="797" on="1"/>
        <pt x="1075" y="797" on="1"/>
        <pt x="1075" y="647" on="1"/>
      </contour>
      <contour>
        <pt x="612" y="498" on="1"/>
        <pt x="727" y="498" on="0"/>
        <pt x="727" y="373" on="1"/>
        <pt x="727" y="248" on="0"/>
        <pt x="612" y="248" on="1"/>
        <pt x="498" y="248" on="0"/>
        <pt x="498" y="373" on="1"/>
        <pt x="498" y="498" on="0"/>
      </contour>
    </TTGlyph>
    <TTGlyph name="dollar" xMin="182" yMin="-119" xMax="1044" yMax="1554">
      <contour>
        <pt x="684" y="111" on="1"/>
        <pt x="684" y="-119" on="1"/>
        <pt x="547" y="-119" on="1"/>
        <pt x="547" y="102" on="1"/>
        <pt x="319" y="102" on="0"/>
        <pt x="182" y="172" on="1"/>
        <pt x="182" y="344" on="1"/>
        <pt x="378" y="252" on="0"/>
        <pt x="547" y="252" on="1"/>
        <pt x="547" y="686" on="1"/>
        <pt x="354" y="750" on="0"/>
        <pt x="199" y="913" on="0"/>
        <pt x="199" y="1051" on="1"/>
        <pt x="199" y="1182" on="0"/>
        <pt x="383" y="1354" on="0"/>
        <pt x="547" y="1374" on="1"/>
        <pt x="547" y="1554" on="1"/>
        <pt x="684" y="1554" on="1"/>
        <pt x="684" y="1378" on="1"/>
        <pt x="871" y="1369" on="0"/>
        <pt x="1020" y="1300" on="1"/>
        <pt x="954" y="1155" on="1"/>
        <pt x="814" y="1217" on="0"/>
        <pt x="684" y="1227" on="1"/>
        <pt x="684" y="805" on="1"/>
        <pt x="883" y="737" on="0"/>
        <pt x="1044" y="576" on="0"/>
        <pt x="1044" y="446" on="1"/>
        <pt x="1044" y="166" on="0"/>
      </contour>
      <contour>
        <pt x="547" y="854" on="1"/>
        <pt x="547" y="1223" on="1"/>
        <pt x="375" y="1194" on="0"/>
        <pt x="375" y="1049" on="1"/>
        <pt x="375" y="971" on="0"/>
        <pt x="456" y="885" on="0"/>
      </contour>
      <contour>
        <pt x="684" y="635" on="1"/>
        <pt x="684" y="262" on="1"/>
        <pt x="868" y="290" on="0"/>
        <pt x="868" y="446" on="1"/>
        <pt x="868" y="573" on="0"/>
      </contour>
    </TTGlyph>
    <TTGlyph name="dotaccent" xMin="508" yMin="1280" xMax="721" yMax="1509">
      <contour>
        <pt x="614" y="1509" on="1"/>
        <pt x="721" y="1509" on="0"/>
        <pt x="721" y="1395" on="1"/>
        <pt x="721" y="1280" on="0"/>
        <pt x="614" y="1280" on="1"/>
        <pt x="508" y="1280" on="0"/>
        <pt x="508" y="1395" on="1"/>
        <pt x="508" y="1509" on="0"/>
      </contour>
    </TTGlyph>
    <TTGlyph name="dotbelow" xMin="508" yMin="-360" xMax="721" yMax="-131">
      <contour>
        <pt x="508" y="-246" on="1"/>
        <pt x="508" y="-186" on="0"/>
        <pt x="569" y="-131" on="0"/>
        <pt x="614" y="-131" on="1"/>
        <pt x="658" y="-131" on="0"/>
        <pt x="721" y="-186" on="0"/>
        <pt x="721" y="-246" on="1"/>
        <pt x="721" y="-275" on="0"/>
        <pt x="704" y="-318" on="0"/>
        <pt x="675" y="-346" on="0"/>
        <pt x="636" y="-360" on="0"/>
        <pt x="614" y="-360" on="1"/>
        <pt x="569" y="-360" on="0"/>
        <pt x="508" y="-305" on="0"/>
      </contour>
    </TTGlyph>
    <TTGlyph name="dotlessi" xMin="197" yMin="0" xMax="1075" yMax="1098">
      <contour>
        <pt x="541" y="954" on="1"/>
        <pt x="272" y="975" on="1"/>
        <pt x="272" y="1098" on="1"/>
        <pt x="723" y="1098" on="1"/>
        <pt x="723" y="143" on="1"/>
        <pt x="1075" y="123" on="1"/>
        <pt x="1075" y="0" on="1"/>
        <pt x="197" y="0" on="1"/>
        <pt x="197" y="123" on="1"/>
        <pt x="541" y="143" on="1"/>
      </contour>
    </TTGlyph>
    <TTGlyph name="dotlessj" xMin="135" yMin="-492" xMax="854" yMax="1098">
      <contour>
        <pt x="135" y="-457" on="1"/>
        <pt x="135" y="-303" on="1"/>
        <pt x="269" y="-342" on="0"/>
        <pt x="424" y="-342" on="1"/>
        <pt x="541" y="-342" on="0"/>
        <pt x="672" y="-228" on="0"/>
        <pt x="672" y="-127" on="1"/>
        <pt x="672" y="954" on="1"/>
        <pt x="252" y="975" on="1"/>
        <pt x="252" y="1098" on="1"/>
        <pt x="854" y="1098" on="1"/>
        <pt x="854" y="-117" on="1"/>
        <pt x="854" y="-297" on="0"/>
        <pt x="628" y="-492" on="0"/>
        <pt x="422" y="-492" on="1"/>
        <pt x="258" y="-492" on="0"/>
      </contour>
    </TTGlyph>
    <TTGlyph name="e" xMin="133" yMin="-20" xMax="1096" yMax="1118">
      <contour>
        <pt x="1096" y="514" on="1"/>
        <pt x="322" y="514" on="1"/>
        <pt x="330" y="139" on="0"/>
        <pt x="666" y="139" on="1"/>
        <pt x="861" y="139" on="0"/>
        <pt x="1036" y="215" on="1"/>
        <pt x="1036" y="55" on="1"/>
        <pt x="870" y="-20" on="0"/>
        <pt x="672" y="-20" on="1"/>
        <pt x="427" y="-20" on="0"/>
        <pt x="133" y="279" on="0"/>
        <pt x="133" y="541" on="1"/>
        <pt x="133" y="807" on="0"/>
        <pt x="404" y="1118" on="0"/>
        <pt x="631" y="1118" on="1"/>
        <pt x="843" y="1118" on="0"/>
        <pt x="1096" y="850" on="0"/>
        <pt x="1096" y="627" on="1"/>
      </contour>
      <contour>
        <pt x="326" y="662" on="1"/>
        <pt x="899" y="662" on="1"/>
        <pt x="899" y="967" on="0"/>
        <pt x="627" y="967" on="1"/>
        <pt x="352" y="967" on="0"/>
      </contour>
    </TTGlyph>
    <TTGlyph name="eacute" xMin="133" yMin="-20" xMax="1096" yMax="1569">
      <component glyphName="e" x="0" y="0" flags="0x204"/>
      <component glyphName="acute" x="82" y="0" flags="0x4"/>
    </TTGlyph>
    <TTGlyph name="ebreve" xMin="133" yMin="-20" xMax="1096" yMax="1518">
      <component glyphName="e" x="0" y="0" flags="0x204"/>
      <component glyphName="breve" x="16" y="0" flags="0x4"/>
    </TTGlyph>
    <TTGlyph name="ecaron" xMin="133" yMin="-20" xMax="1096" yMax="1569">
      <component glyphName="e" x="0" y="0" flags="0x204"/>
      <component glyphName="caron" x="25" y="0" flags="0x4"/>
    </TTGlyph>
    <TTGlyph name="ecircumflex" xMin="133" yMin="-20" xMax="1096" yMax="1569">
      <component glyphName="e" x="0" y="0" flags="0x204"/>
      <component glyphName="circumflex" x="16" y="0" flags="0x4"/>
    </TTGlyph>
    <TTGlyph name="edieresis" xMin="133" yMin="-20" xMax="1096" yMax="1497">
      <component glyphName="e" x="0" y="0" flags="0x204"/>
      <component glyphName="dieresis" x="18" y="0" flags="0x4"/>
    </TTGlyph>
    <TTGlyph name="edotaccent" xMin="133" yMin="-20" xMax="1096" yMax="1509">
      <component glyphName="e" x="0" y="0" flags="0x204"/>
      <component glyphName="dotaccent" x="23" y="0" flags="0x4"/>
    </TTGlyph>
    <TTGlyph name="egrave" xMin="133" yMin="-20" xMax="1096" yMax="1569">
      <component glyphName="e" x="0" y="0" flags="0x204"/>
      <component glyphName="grave" x="-44" y="0" flags="0x4"/>
    </TTGlyph>
    <TTGlyph name="eight" xMin="156" yMin="-20" xMax="1073" yMax="1485">
      <contour>
        <pt x="764" y="774" on="1"/>
        <pt x="1073" y="614" on="0"/>
        <pt x="1073" y="381" on="1"/>
        <pt x="1073" y="200" on="0"/>
        <pt x="821" y="-20" on="0"/>
        <pt x="614" y="-20" on="1"/>
        <pt x="398" y="-20" on="0"/>
        <pt x="156" y="187" on="0"/>
        <pt x="156" y="373" on="1"/>
        <pt x="156" y="630" on="0"/>
        <pt x="438" y="766" on="1"/>
        <pt x="203" y="912" on="0"/>
        <pt x="203" y="1135" on="1"/>
        <pt x="203" y="1296" on="0"/>
        <pt x="436" y="1485" on="0"/>
        <pt x="614" y="1485" on="1"/>
        <pt x="798" y="1485" on="0"/>
        <pt x="1026" y="1295" on="0"/>
        <pt x="1026" y="1133" on="1"/>
        <pt x="1026" y="903" on="0"/>
      </contour>
      <contour>
        <pt x="616" y="848" on="1"/>
        <pt x="848" y="951" on="0"/>
        <pt x="848" y="1126" on="1"/>
        <pt x="848" y="1227" on="0"/>
        <pt x="722" y="1333" on="0"/>
        <pt x="612" y="1333" on="1"/>
        <pt x="506" y="1333" on="0"/>
        <pt x="381" y="1227" on="0"/>
        <pt x="381" y="1126" on="1"/>
        <pt x="381" y="1036" on="0"/>
        <pt x="480" y="911" on="0"/>
      </contour>
      <contour>
        <pt x="588" y="696" on="1"/>
        <pt x="334" y="575" on="0"/>
        <pt x="334" y="371" on="1"/>
        <pt x="334" y="131" on="0"/>
        <pt x="610" y="131" on="1"/>
        <pt x="746" y="131" on="0"/>
        <pt x="895" y="262" on="0"/>
        <pt x="895" y="379" on="1"/>
        <pt x="895" y="469" on="0"/>
        <pt x="769" y="608" on="0"/>
        <pt x="618" y="682" on="1"/>
      </contour>
    </TTGlyph>
</ttFont>
